<?xml version="1.0" encoding="UTF-8"?>
<svg width="32px" height="32px" viewBox="0 0 32 32" version="1.1" xmlns="http://www.w3.org/2000/svg" xmlns:xlink="http://www.w3.org/1999/xlink">
    <title>画板</title>
    <defs>
        <linearGradient x1="33.6159123%" y1="3.91654146%" x2="65.5896944%" y2="95.4276647%" id="linearGradient-1">
            <stop stop-color="#FFFBE8" offset="0.00546328671%"></stop>
            <stop stop-color="#FEE574" offset="100%"></stop>
        </linearGradient>
    </defs>
    <g id="画板" stroke="none" stroke-width="1" fill="none" fill-rule="evenodd">
        <path d="M19.0352868,8.81300754 L19.0352868,9.83367705 C19.0239407,10.4708384 19.4022829,11.0507165 19.9906436,11.2979345 C20.4469258,11.475909 20.9611542,11.4235201 21.3720174,11.157202 C21.7828806,10.8908838 22.0400447,10.4432625 22.0628384,9.95475491 L22.0628384,9.95475491 L22.0628384,8.8264165 C22.5932495,8.81767585 23.12376,8.84459307 23.6504897,8.90706885 C24.4834845,9.11836671 25.0483888,9.89096803 24.9960682,10.7473729 L24.9960682,10.7473729 L24.9959687,10.7473729 L24.9959687,23.0379183 C25.0303271,23.5560294 24.8438596,24.0645238 24.4825394,24.4380331 C24.1212192,24.8115423 23.6186672,25.0153115 23.0987866,24.9991016 L23.0987866,24.9991016 L8.7687339,24.9991016 C8.26843421,24.9823572 7.79683529,24.7617851 7.46374961,24.388746 C7.13075139,24.0156425 6.9653543,23.5226682 7.00606985,23.0246087 L7.00606985,23.0246087 L7.00606985,10.6533116 C6.98708525,9.81300754 7.54089403,9.06665205 8.35164834,8.83992477 C8.43204811,8.82919698 8.51352036,8.82919698 8.59392013,8.83992477 L8.59392013,8.83992477 L9.93929963,8.83992477 L9.93929963,9.84728465 C9.91183884,10.6427831 10.4942861,11.3290234 11.2848781,11.432322 C12.1163628,11.5187353 12.8616844,10.9187095 12.9533198,10.0892417 C12.9669507,9.91035639 12.9669507,9.73057711 12.9533198,9.5517911 L12.9533198,9.5517911 L12.9533198,8.81300754 L19.0352868,8.81300754 Z M23.7984397,13.8233863 L8.12290796,13.8233863 L8.12290796,22.4336216 C8.09210941,22.628964 8.15474723,22.82743 8.29215227,22.969867 C8.42955732,23.112304 8.62586315,23.1822645 8.82256102,23.1588969 L8.82256102,23.1588969 L23.1661451,23.1588969 C23.3783541,23.1780077 23.5826176,23.0734213 23.6908849,22.8902212 C23.7699512,22.7315681 23.8114147,22.5568897 23.8120706,22.3796878 L23.8120706,22.3796878 L23.8120706,14.9382165 L23.7984397,13.8233863 Z M22.5740468,20.0560655 L22.5740468,21.8829607 L20.2059521,21.8829607 L20.2059521,20.0560655 L22.5740468,20.0560655 Z M18.9544964,20.0560655 L18.9544964,21.8829607 L16.5863021,21.8829607 L16.5863021,20.0560655 L18.9544964,20.0560655 Z M15.3484774,20.029049 L15.3484774,21.8828613 L12.9668512,21.8828613 L12.9668512,20.029049 L15.3484774,20.029049 Z M11.7155946,20.0560655 L11.7155946,21.8829607 L9.3474003,21.8829607 L9.3474003,20.0560655 L11.7155946,20.0560655 Z M18.9544964,17.5709399 L18.9544964,19.397835 L16.5863021,19.397835 L16.5863021,17.5709399 L18.9544964,17.5709399 Z M15.334946,17.5709399 L15.334946,19.397835 L12.9668512,19.397835 L12.9668512,17.5709399 L15.334946,17.5709399 Z M11.728927,17.5709399 L11.728927,19.397835 L9.36073271,19.397835 L9.36073271,17.5709399 L11.728927,17.5709399 Z M22.5740468,17.5574316 L22.5740468,19.3843268 L20.2059521,19.3843268 L20.2059521,17.5574316 L22.5740468,17.5574316 Z M22.5607144,15.0861123 L22.5607144,16.9128087 L20.1925202,16.9128087 L20.1925202,15.0861123 L22.5607144,15.0861123 Z M18.9544964,15.0861123 L18.9544964,16.9128087 L16.5863021,16.9128087 L16.5863021,15.0861123 L18.9544964,15.0861123 Z M15.3484774,15.0861123 L15.3484774,16.9128087 L12.9668512,16.9128087 L12.9668512,15.0861123 L15.3484774,15.0861123 Z M11.1772239,7.06686411 C11.5197133,6.92357131 11.9156412,7.0155684 12.1595439,7.29511426 C12.2969518,7.48558414 12.3592243,7.71992691 12.3344572,7.95334478 L12.3344572,7.95334478 L12.3344572,9.75332267 C12.3454268,9.99788189 12.2575241,10.2365887 12.090494,10.4158242 C11.9236054,10.5952231 11.6915093,10.7001571 11.4463595,10.7070467 C10.9389051,10.6923847 10.5373277,10.2735749 10.5448298,9.76683094 L10.5448298,9.76683094 L10.5448298,7.93993583 C10.5385433,7.54117132 10.7959193,7.18584263 11.1772239,7.06686411 Z M20.1520254,7.06686411 C20.4945149,6.92357131 20.8904428,7.0155684 21.1343455,7.29511426 C21.2958272,7.47588934 21.3824026,7.71120346 21.3765178,7.95334478 L21.3765178,7.95334478 L21.3765178,9.75332267 C21.3875255,9.99786953 21.2996578,10.2365787 21.1326541,10.4158242 C20.9657388,10.5951861 20.7336591,10.7001127 20.4885196,10.7070467 C20.2422328,10.6999869 20.0088305,10.5955962 19.8396093,10.4168174 C19.6706003,10.2378378 19.5797,9.9991858 19.5868904,9.75332267 L19.5868904,9.75332267 L19.5868904,7.92652688 C19.5765778,7.55016784 19.8020528,7.20718353 20.1520254,7.06686411 Z" id="形状结合" fill="url(#linearGradient-1)"></path>
    </g>
</svg>