<?xml version="1.0" encoding="UTF-8"?>
<svg width="43px" height="43px" viewBox="0 0 43 43" version="1.1" xmlns="http://www.w3.org/2000/svg" xmlns:xlink="http://www.w3.org/1999/xlink">
    <title>zip</title>
    <g id="页面-1" stroke="none" stroke-width="1" fill="none" fill-rule="evenodd">
        <g id="11-1-5导入" transform="translate(-1160.000000, -612.000000)">
            <g id="编组-14备份-2" transform="translate(1104.000000, 508.000000)">
                <g id="编组-8" transform="translate(20.000000, 68.000000)">
                    <g id="zip" transform="translate(36.400000, 36.400000)">
                        <rect id="矩形" fill="#000000" opacity="0" x="1.4" y="1.58709677" width="39.2" height="39.2"></rect>
                        <path d="M30.0948112,3.93548387 L37.5632982,11.4021402 L37.5632982,37.7911279 C37.5645804,38.1532297 37.4219729,38.5010132 37.1668395,38.757969 C36.9117061,39.0149248 36.5649463,39.160004 36.2028446,39.1612903 L9.7713429,39.1612903 C9.40924115,39.160004 9.06248139,39.0149248 8.80734798,38.757969 C8.55221457,38.5010132 8.40960706,38.1532297 8.41088928,37.7911279 L8.41088928,5.30564627 C8.40960706,4.94354454 8.55221457,4.59576098 8.80734798,4.33880518 C9.06248139,4.08184939 9.40924115,3.9367702 9.7713429,3.93548387 L30.0948112,3.93548387 Z" id="路径" fill="#94E1E5"></path>
                        <path d="M29.8154341,4.61935038 L9.7713429,4.61935038 C9.39479118,4.61935038 9.08990577,4.92666517 9.08990577,5.30564627 L9.08990577,37.7911279 C9.08990577,38.170109 9.39479121,38.4774238 9.7713429,38.4774238 L36.2028446,38.4774238 C36.5793963,38.4774238 36.8842817,38.170109 36.8842817,37.7911279 L36.8842817,11.686376 L29.8148268,4.61935038 L29.8154341,4.61935038 Z M30.0948112,3.93548387 L37.5632982,11.4021402 L37.5632982,37.7911279 C37.5645804,38.1532297 37.4219729,38.5010132 37.1668395,38.757969 C36.9117061,39.0149248 36.5649463,39.160004 36.2028446,39.1612903 L9.7713429,39.1612903 C9.40924115,39.160004 9.06248139,39.0149248 8.80734798,38.757969 C8.55221457,38.5010132 8.40960706,38.1532297 8.41088928,37.7911279 L8.41088928,5.30564627 C8.40960706,4.94354454 8.55221457,4.59576098 8.80734798,4.33880518 C9.06248139,4.08184939 9.40924115,3.9367702 9.7713429,3.93548387 L30.0948112,3.93548387 Z" id="形状" fill="#29C4CC" fill-rule="nonzero"></path>
                        <path d="M37.5632895,11.7635083 L30.9857812,11.7635083 C30.667387,11.7625435 30.3624259,11.6350942 30.1380279,11.4092154 C29.9136298,11.1833365 29.7881891,10.8775438 29.7893109,10.5591502 L29.7893109,3.93548387 L37.5632895,11.7635083 Z" id="路径" fill="#29C4CC"></path>
                        <path d="M21.043601,19.8122002 L25.0028601,19.8122002 L25.0028601,21.8194639 C24.9839461,22.8992673 24.1031996,23.7647216 23.0232306,23.7647216 C21.9432615,23.7647216 21.062515,22.8992673 21.043601,21.8194639 L21.043601,19.8122002 L21.043601,19.8122002 Z M22.6269402,20.6096396 L22.6269402,22.2045184 L23.4189135,22.2045184 L23.4189135,20.6090323 L22.6269402,20.6090323 L22.6269402,20.6096396 Z M23.4189135,17.4204894 L25.0028601,17.4204894 L25.0028601,19.0153682 L23.4183062,19.0153682 L23.4183062,17.4204894 L23.4189135,17.4204894 Z M23.4189135,7.85303894 L25.0028601,7.85303894 L25.0028601,9.4479177 L23.4183062,9.4479177 L23.4183062,7.85303894 L23.4189135,7.85303894 Z M23.4189135,12.6370679 L25.0028601,12.6370679 L25.0028601,14.2313392 L23.4183062,14.2313392 L23.4183062,12.6370679 L23.4189135,12.6370679 Z M23.4189135,15.0281713 L25.0028601,15.0281713 L25.0028601,16.62305 L23.4183062,16.62305 L23.4183062,15.0287786 L23.4189135,15.0281713 Z M23.4189135,5.46132815 L25.0028601,5.46132815 L25.0028601,7.05559954 L23.4183062,7.05559954 L23.4183062,5.46193548 L23.4189135,5.46132815 Z M23.4189135,10.2447497 L25.0028601,10.2447497 L25.0028601,11.8396285 L23.4183062,11.8396285 L23.4183062,10.2447497 L23.4189135,10.2447497 Z M21.043601,16.62305 L22.6269402,16.62305 L22.6269402,18.2179288 L21.043601,18.2179288 L21.043601,16.62305 Z M21.043601,7.05559954 L22.6269402,7.05559954 L22.6269402,8.6504783 L21.043601,8.6504783 L21.043601,7.05559954 Z M21.043601,11.8396285 L22.6269402,11.8396285 L22.6269402,13.4338999 L21.043601,13.4338999 L21.043601,11.8396285 Z M21.043601,14.2313392 L22.6269402,14.2313392 L22.6269402,15.826218 L21.043601,15.826218 L21.043601,14.2313392 Z M21.043601,4.66388875 L22.6269402,4.66388875 L22.6269402,6.25876751 L21.043601,6.25876751 L21.043601,4.66388875 Z M21.043601,9.4479177 L22.6269402,9.4479177 L22.6269402,11.0421891 L21.043601,11.0421891 L21.043601,9.4479177 Z" id="形状" fill="#FFFFFF" fill-rule="nonzero"></path>
                        <rect id="矩形" fill="#29C4CC" x="4.2" y="23.8967742" width="27.0064516" height="11.7419355" rx="1.17419355"></rect>
                        <path d="M6.05052903,26.1704258 L10.8036645,26.1704258 L10.8036645,26.8373677 L6.8208,26.8373677 L6.8208,29.0824258 L10.5782194,29.0824258 L10.5782194,29.7493677 L6.8208,29.7493677 L6.8208,32.2104774 L10.9633548,32.2104774 L10.9633548,32.8774194 L6.05052903,32.8774194 L6.05052903,26.1704258 Z M11.6115097,28.0209548 L12.4945032,28.0209548 L13.7532387,29.7493677 L15.0025806,28.0209548 L15.8855742,28.0209548 L14.1665548,30.3035871 L16.0922323,32.8774194 L15.1998452,32.8774194 L13.7532387,30.8578065 L12.2972387,32.8774194 L11.4048516,32.8774194 L13.330529,30.3035871 L11.6115097,28.0209548 Z M18.8163613,27.8894452 C19.4175484,27.8894452 19.8966194,28.0303484 20.2629677,28.3121548 C20.6387097,28.6033548 20.8641548,29.0448516 20.9486968,29.6366452 L20.2066065,29.6366452 C20.1408516,29.2609032 19.9905548,28.9790968 19.7557161,28.7912258 C19.5114839,28.6033548 19.2014968,28.5188129 18.8163613,28.5188129 C18.3466839,28.5188129 17.9709419,28.6972903 17.698529,29.0542452 C17.4355097,29.4018065 17.304,29.8714839 17.304,30.4632774 C17.304,31.055071 17.4261161,31.5247484 17.6891355,31.8629161 C17.9427613,32.2010839 18.3185032,32.3795613 18.8069677,32.3795613 C19.6336,32.3795613 20.112671,31.9568516 20.2253935,31.1208258 L20.9768774,31.1208258 C20.8641548,31.7408 20.6293161,32.219871 20.2535742,32.5392516 C19.8872258,32.8492387 19.4081548,33.008929 18.8069677,33.008929 C18.074271,33.008929 17.5106581,32.7646968 17.1067355,32.2762323 C16.7216,31.8159484 16.533729,31.2147613 16.533729,30.472671 C16.533729,29.7305806 16.7216,29.1293935 17.1067355,28.6597161 C17.5200516,28.143071 18.0930581,27.8894452 18.8163613,27.8894452 Z M23.8606968,27.8894452 C24.6403613,27.8894452 25.2321548,28.1524645 25.6266839,28.6785032 C25.9836387,29.1481806 26.1715097,29.8151226 26.1902968,30.6605419 L22.357729,30.6605419 C22.3953032,31.2053677 22.5362065,31.6280774 22.7992258,31.928671 C23.0622452,32.2292645 23.4285935,32.3795613 23.8888774,32.3795613 C24.2834065,32.3795613 24.6121806,32.2762323 24.8564129,32.0789677 C25.063071,31.9098839 25.2227613,31.6562581 25.3448774,31.3180903 L26.0963613,31.3180903 C25.9836387,31.7877677 25.7675871,32.1635097 25.4388129,32.4641032 C25.0348903,32.8210581 24.5182452,33.008929 23.8888774,33.008929 C23.1937548,33.008929 22.6301419,32.7740903 22.2168258,32.3232 C21.7847226,31.8535226 21.5780645,31.2335484 21.5780645,30.4444903 C21.5780645,29.7305806 21.775329,29.1293935 22.1886452,28.6503226 C22.6019613,28.143071 23.1561806,27.8894452 23.8606968,27.8894452 Z M23.8794839,28.5188129 C23.4473806,28.5188129 23.0998194,28.6597161 22.8368,28.9415226 C22.5737806,29.223329 22.4234839,29.599071 22.3765161,30.0781419 L25.4106323,30.0781419 C25.3166968,29.0354581 24.8000516,28.5188129 23.8794839,28.5188129 Z M27.2235871,26.0389161 L27.9656774,26.0389161 L27.9656774,32.8774194 L27.2235871,32.8774194 L27.2235871,26.0389161 Z" id="Excel" fill="#FFFFFF" fill-rule="nonzero"></path>
                    </g>
                </g>
            </g>
        </g>
    </g>
</svg>