<?xml version="1.0" encoding="UTF-8"?>
<svg width="28px" height="28px" viewBox="0 0 28 28" version="1.1" xmlns="http://www.w3.org/2000/svg" xmlns:xlink="http://www.w3.org/1999/xlink">
    <title>icon-ronghe-hover</title>
    <defs>
        <rect id="path-1" x="0" y="0" width="28" height="28"></rect>
        <linearGradient x1="33.6159123%" y1="19.8001825%" x2="65.5896944%" y2="79.7700569%" id="linearGradient-3">
            <stop stop-color="#FFFEF7" offset="0.00546328671%"></stop>
            <stop stop-color="#FFE375" offset="100%"></stop>
        </linearGradient>
    </defs>
    <g id="页面-1" stroke="none" stroke-width="1" fill="none" fill-rule="evenodd">
        <g id="5-5方案管理-场地绘制-路牌-保存" transform="translate(-1377.000000, -189.000000)">
            <g id="编组-10备份-3" transform="translate(1343.000000, 97.000000)">
                <g id="编组-41备份" transform="translate(27.000000, 46.000000)">
                    <g id="icon-ronghe-hover" transform="translate(7.000000, 46.000000)">
                        <mask id="mask-2" fill="white">
                            <use xlink:href="#path-1"></use>
                        </mask>
                        <use id="蒙版" fill-opacity="0" fill="#D8D8D8" xlink:href="#path-1"></use>
                        <path d="M9.49257054,20.1065032 L9.49257054,23 L8.0418276,23 C7.24060439,23 6.59108465,22.3522687 6.59108465,21.5532516 L6.59108465,20.1065032 L9.49257054,20.1065032 L9.49257054,20.1065032 Z M24,20.1065032 L24,21.5532516 C24,22.3522687 23.3504803,23 22.5492571,23 L21.0985141,23 L21.0985141,20.1065032 L24,20.1065032 L24,20.1065032 Z M19.6477712,9.97926449 L19.6477712,23 L10.9433135,23 L10.9433135,9.97926449 L19.6477712,9.97926449 Z M13.8447994,13.5961355 L13.8447994,19.383129 L17.4716567,16.4896322 L13.8447994,13.5961355 Z M24,14.3195097 L24,18.6597548 L21.0985141,18.6597548 L21.0985141,14.3195097 L24,14.3195097 Z M9.49257054,14.3195097 L9.49257054,18.6597548 L6.59108465,18.6597548 L6.59108465,14.3195097 L9.49257054,14.3195097 L9.49257054,14.3195097 Z M16.0566865,6 C16.8579097,6 17.5074295,6.64773132 17.5074295,7.44674839 L17.5074295,9.61687097 L16.0566865,9.61687097 L16.0566865,7.44674839 L4.45074295,7.44674839 L4.45074295,15.4038645 L5.90148589,15.4038645 L5.90148589,16.8506129 L4.45074295,16.8506129 C3.64951974,16.8506129 3,16.2028816 3,15.4038645 L3,7.44674839 C3,6.64773132 3.64951974,6 4.45074295,6 L16.0566865,6 Z M22.5492571,9.97926449 C23.3504803,9.97926449 24,10.6269958 24,11.4260129 L24,12.8727613 L21.0985141,12.8727613 L21.0985141,9.97926449 L22.5492571,9.97926449 L22.5492571,9.97926449 Z M9.49257054,9.97926449 L9.49257054,12.8727613 L6.59108465,12.8727613 L6.59108465,11.4260129 C6.59108465,10.6269958 7.24060439,9.97926449 8.0418276,9.97926449 L9.49257054,9.97926449 Z" fill="url(#linearGradient-3)" mask="url(#mask-2)"></path>
                    </g>
                </g>
            </g>
        </g>
    </g>
</svg>