<?xml version="1.0" encoding="UTF-8"?>
<svg width="28px" height="28px" viewBox="0 0 28 28" version="1.1" xmlns="http://www.w3.org/2000/svg" xmlns:xlink="http://www.w3.org/1999/xlink">
    <title>画板</title>
    <defs>
        <linearGradient x1="33.6159123%" y1="3.91654146%" x2="65.5896944%" y2="95.4276647%" id="linearGradient-1">
            <stop stop-color="#C8E6FD" offset="0.00546328671%"></stop>
            <stop stop-color="#74C4FE" offset="100%"></stop>
        </linearGradient>
        <linearGradient x1="35.2466234%" y1="5.44539451%" x2="62.8256424%" y2="100%" id="linearGradient-2">
            <stop stop-color="#F1F9FF" offset="0%"></stop>
            <stop stop-color="#6BBEFA" offset="100%"></stop>
        </linearGradient>
    </defs>
    <g id="画板" stroke="none" stroke-width="1" fill="none" fill-rule="evenodd">
        <g id="编组-13" transform="translate(4.000000, 4.000000)">
            <path d="M2.31621349,11.0899582 L1.24874119,11.0899582 C0.55387714,11.0899582 0,10.5334728 0,9.85774059 C0,9.17207113 0.563947633,8.62552301 1.24874119,8.62552301 L2.32628399,8.62552301 C3.02114804,8.62552301 3.57502518,9.18200837 3.57502518,9.85774059 C3.57502518,10.5334728 3.01107754,11.0899582 2.31621349,11.0899582 Z M3.6958711,5.37604603 L2.9305136,4.64069038 C2.43705942,4.14382845 2.43705942,3.37866109 2.9305136,2.8917364 C3.42396777,2.40481172 4.19939577,2.40481172 4.69284995,2.8917364 L5.43806647,3.62709205 C5.93152064,4.11401674 5.93152064,4.8791841 5.43806647,5.36610879 C4.96475327,5.86297071 4.16918429,5.86297071 3.6958711,5.37604603 Z M8.75125881,2.28556485 L8.75125881,1.23221757 C8.75125881,0.546548117 9.31520645,0 10,0 C10.6847936,0 11.2487412,0.556485356 11.2487412,1.23221757 L11.2487412,2.29550209 C11.2487412,2.98117155 10.6847936,3.52771967 10,3.52771967 C9.31520645,3.52771967 8.75125881,2.96129707 8.75125881,2.28556485 L8.75125881,2.28556485 Z M14.5317221,3.62709205 L15.2769386,2.8917364 C15.7703927,2.40481172 16.5458207,2.40481172 17.0392749,2.8917364 C17.5327291,3.37866109 17.5327291,4.14382845 17.0392749,4.63075314 L16.2940584,5.36610879 C15.8006042,5.85303347 15.0251762,5.85303347 14.5317221,5.36610879 C14.0584089,4.89905858 14.0584089,4.11401674 14.5317221,3.62709205 Z M17.673716,8.62552301 L18.7512588,8.62552301 C19.4461229,8.62552301 20,9.18200837 20,9.85774059 C20,10.5334728 19.4360524,11.0899582 18.7512588,11.0899582 L17.673716,11.0899582 C16.978852,11.0899582 16.4249748,10.5334728 16.4249748,9.85774059 C16.4149043,9.18200837 16.978852,8.62552301 17.673716,8.62552301 L17.673716,8.62552301 Z M10,4.92887029 C7.24068479,4.92887029 5.00503525,7.13493724 5.00503525,9.85774059 L5.00503525,16.1877615 L15.0050352,16.1877615 L15.0050352,9.85774059 C14.9848943,7.125 12.7492447,4.92887029 10,4.92887029 Z M8.43907351,14.6574268 L9.44612286,11.3682008 L8.07653575,10.9607741 L11.4098691,7.26412134 L10.5135952,10.6129707 L11.8831823,11.0203975 L8.43907351,14.6574268 L8.43907351,14.6574268 Z M3,18 L17,18 C17.5522847,18 18,18.4477153 18,19 C18,19.5522847 17.5522847,20 17,20 L3,20 C2.44771525,20 2,19.5522847 2,19 C2,18.4477153 2.44771525,18 3,18 Z" id="形状结合" fill="url(#linearGradient-1)"></path>
            <path d="M10,5.41636918 C10.7186878,5.41636918 11.3985772,5.58245456 12.0023094,5.87841953 L7.1973303,11.2078391 L8.83612517,11.6953502 L7.609,15.7 L5.49253414,15.7002626 L5.49253414,9.85774059 C5.49253414,8.63172602 5.99633955,7.52233232 6.81018474,6.71925611 C7.62639549,5.91384564 8.75424342,5.41636918 10,5.41636918 Z M13.1852477,6.71722972 C13.9460615,7.46646567 14.4393682,8.48353197 14.5091276,9.61385201 L14.5175364,9.85774059 L14.5175364,15.7002626 L8.122,15.7 L12.7827873,10.779401 L11.1071203,10.2809211 L12.2494808,6.00922784 C12.5921651,6.20438718 12.9066315,6.44285337 13.1852477,6.71722972 Z M2.32628399,9.1130219 C2.53793642,9.1130219 2.72856727,9.19683217 2.86634782,9.33278958 C3.00288171,9.46751683 3.08752629,9.6534037 3.08752629,9.85774059 C3.08752629,10.0611722 3.00112476,10.2458027 2.86405635,10.3799754 C2.72368035,10.5173857 2.52989298,10.6024593 2.31621349,10.6024593 L2.31621349,10.6024593 L1.24874119,10.6024593 C1.03708875,10.6024593 0.846457909,10.518649 0.708677355,10.3826916 C0.572143462,10.2479643 0.487498889,10.0620775 0.487498889,9.85774059 C0.487498889,9.65216296 0.572083952,9.46757555 0.707505986,9.33394545 C0.846412528,9.19687695 1.03837924,9.1130219 1.24874119,9.1130219 L1.24874119,9.1130219 Z M18.7512588,9.1130219 C18.9629112,9.1130219 19.1535421,9.19683217 19.2913226,9.33278958 C19.4278565,9.46751683 19.5125011,9.6534037 19.5125011,9.85774059 C19.5125011,10.0612133 19.4261772,10.2458882 19.2900167,10.380247 C19.1514789,10.5169516 18.9607266,10.6024593 18.7512588,10.6024593 L18.7512588,10.6024593 L17.673716,10.6024593 C17.4620636,10.6024593 17.2714327,10.518649 17.1336522,10.3826916 C16.9971183,10.2479643 16.9124737,10.0620775 16.9124196,9.85047616 C16.909429,9.64981024 16.9931443,9.46771859 17.1274053,9.33523415 C17.2666913,9.19779119 17.4603506,9.1130219 17.673716,9.1130219 L17.673716,9.1130219 Z M3.81168177,3.01404178 C4.00599071,3.01404178 4.19958743,3.08988224 4.35043963,3.23873833 L4.35043963,3.23873833 L5.09565614,3.97409398 C5.2439198,4.12039578 5.32065821,4.30783372 5.32065821,4.49660042 C5.32065821,4.68536712 5.2439198,4.87280506 5.09565614,5.01910686 C4.94413999,5.17782338 4.75516922,5.25141906 4.56638298,5.25249587 C4.37467738,5.25358933 4.1823978,5.18009785 4.0403872,5.03100562 L4.0403872,5.03100562 L3.2764115,4.29716482 C3.12619628,4.14591224 3.04792185,3.95461486 3.04792185,3.76248692 C3.04792185,3.57284677 3.1245198,3.38517874 3.27292392,3.23873833 C3.42377612,3.08988224 3.61737284,3.01404178 3.81168177,3.01404178 Z M16.1581067,3.01404178 C16.3524157,3.01404178 16.5460124,3.08988224 16.6968646,3.23873833 C16.8451283,3.38504013 16.9218667,3.57247807 16.9218667,3.76124477 C16.9218667,3.95001147 16.8451283,4.13744941 16.6968646,4.28375121 L16.6968646,4.28375121 L15.9516481,5.01910686 C15.8007959,5.16796295 15.6071992,5.24380341 15.4128902,5.24380341 C15.2185813,5.24380341 15.0249846,5.16796295 14.8741324,5.01910686 C14.7327368,4.87958228 14.664236,4.69198502 14.664236,4.50405335 C14.664236,4.31089224 14.736327,4.11601412 14.8741324,3.97409398 L14.8741324,3.97409398 L15.6193489,3.23873833 C15.7702011,3.08988224 15.9637978,3.01404178 16.1581067,3.01404178 Z M10,0.487498889 C10.2094678,0.487498889 10.4002201,0.57300656 10.5387579,0.709711133 C10.6749184,0.844069932 10.7612423,1.0287449 10.7612423,1.23221757 L10.7612423,1.23221757 L10.7612423,2.29550209 C10.7612423,2.50107972 10.6766572,2.68566713 10.5412352,2.81929723 C10.4023287,2.95636573 10.210362,3.04022078 10,3.04022078 C9.7914735,3.04022078 9.60197344,2.95302544 9.4639989,2.81577864 C9.32634461,2.67885039 9.2387577,2.49102944 9.2387577,2.28556485 L9.2387577,2.28556485 L9.2387577,1.23221757 C9.2387577,1.02663995 9.32334276,0.842052535 9.4587648,0.708422435 C9.59767134,0.571353935 9.78963805,0.487498889 10,0.487498889 Z" id="形状结合" stroke="url(#linearGradient-2)" stroke-width="0.974997778"></path>
        </g>
    </g>
</svg>