<?xml version="1.0" encoding="UTF-8"?>
<svg width="28px" height="28px" viewBox="0 0 28 28" version="1.1" xmlns="http://www.w3.org/2000/svg" xmlns:xlink="http://www.w3.org/1999/xlink">
    <title>画板</title>
    <defs>
        <linearGradient x1="33.6159123%" y1="3.91654146%" x2="65.5896944%" y2="95.4276647%" id="linearGradient-1">
            <stop stop-color="#FFF4C1" offset="0.00546328671%"></stop>
            <stop stop-color="#FEE574" offset="100%"></stop>
        </linearGradient>
        <linearGradient x1="33.5441775%" y1="1.20410023e-13%" x2="62.8256424%" y2="100%" id="linearGradient-2">
            <stop stop-color="#FFFFFF" offset="0%"></stop>
            <stop stop-color="#FFE271" offset="100%"></stop>
        </linearGradient>
    </defs>
    <g id="画板" stroke="none" stroke-width="1" fill="none" fill-rule="evenodd">
        <g id="编组-13" transform="translate(4.000000, 4.000000)">
            <path d="M2.31621349,11.0899582 L1.24874119,11.0899582 C0.55387714,11.0899582 0,10.5334728 0,9.85774059 C0,9.17207113 0.563947633,8.62552301 1.24874119,8.62552301 L2.32628399,8.62552301 C3.02114804,8.62552301 3.57502518,9.18200837 3.57502518,9.85774059 C3.57502518,10.5334728 3.01107754,11.0899582 2.31621349,11.0899582 Z M3.6958711,5.37604603 L2.9305136,4.64069038 C2.43705942,4.14382845 2.43705942,3.37866109 2.9305136,2.8917364 C3.42396777,2.40481172 4.19939577,2.40481172 4.69284995,2.8917364 L5.43806647,3.62709205 C5.93152064,4.11401674 5.93152064,4.8791841 5.43806647,5.36610879 C4.96475327,5.86297071 4.16918429,5.86297071 3.6958711,5.37604603 Z M8.75125881,2.28556485 L8.75125881,1.23221757 C8.75125881,0.546548117 9.31520645,0 10,0 C10.6847936,0 11.2487412,0.556485356 11.2487412,1.23221757 L11.2487412,2.29550209 C11.2487412,2.98117155 10.6847936,3.52771967 10,3.52771967 C9.31520645,3.52771967 8.75125881,2.96129707 8.75125881,2.28556485 L8.75125881,2.28556485 Z M14.5317221,3.62709205 L15.2769386,2.8917364 C15.7703927,2.40481172 16.5458207,2.40481172 17.0392749,2.8917364 C17.5327291,3.37866109 17.5327291,4.14382845 17.0392749,4.63075314 L16.2940584,5.36610879 C15.8006042,5.85303347 15.0251762,5.85303347 14.5317221,5.36610879 C14.0584089,4.89905858 14.0584089,4.11401674 14.5317221,3.62709205 Z M17.673716,8.62552301 L18.7512588,8.62552301 C19.4461229,8.62552301 20,9.18200837 20,9.85774059 C20,10.5334728 19.4360524,11.0899582 18.7512588,11.0899582 L17.673716,11.0899582 C16.978852,11.0899582 16.4249748,10.5334728 16.4249748,9.85774059 C16.4149043,9.18200837 16.978852,8.62552301 17.673716,8.62552301 L17.673716,8.62552301 Z M10,4.92887029 C7.24068479,4.92887029 5.00503525,7.13493724 5.00503525,9.85774059 L5.00503525,16.1877615 L15.0050352,16.1877615 L15.0050352,9.85774059 C14.9848943,7.125 12.7492447,4.92887029 10,4.92887029 Z M8.43907351,14.6574268 L9.44612286,11.3682008 L8.07653575,10.9607741 L11.4098691,7.26412134 L10.5135952,10.6129707 L11.8831823,11.0203975 L8.43907351,14.6574268 L8.43907351,14.6574268 Z M3,18 L17,18 C17.5522847,18 18,18.4477153 18,19 C18,19.5522847 17.5522847,20 17,20 L3,20 C2.44771525,20 2,19.5522847 2,19 C2,18.4477153 2.44771525,18 3,18 Z" id="形状结合" fill="url(#linearGradient-1)"></path>
            <path d="M10,5.97887029 C10.3572091,5.97887029 10.703506,6.02565869 11.0328966,6.1134783 L6.18285816,11.4929153 L8.13227869,12.0728318 L7.194,15.137 L6.05503525,15.1377615 L6.05503525,9.85774059 C6.05503525,8.78794258 6.49525543,7.82026934 7.20527526,7.11964465 C7.92039014,6.41399233 8.90874526,5.97887029 10,5.97887029 Z M12.7905606,7.1180159 C13.4520033,7.769393 13.882302,8.65236345 13.9467246,9.63041155 L13.9550352,9.85774059 L13.9550352,15.1377615 L9.43,15.137 L13.8207975,10.5013269 L11.7919598,9.89778527 L12.5859829,6.93022572 C12.6563809,6.99043724 12.7246175,7.05307629 12.7905606,7.1180159 Z M3.81168177,3.57654289 L4.70056563,4.37448252 C4.73521716,4.40867553 4.7581571,4.451207 4.7581571,4.49660042 C4.7581571,4.54199383 4.73521716,4.5845253 4.70056563,4.61871832 C4.69628283,4.62294444 4.69187505,4.62698998 4.68735958,4.63083916 C4.68438694,4.63462952 4.68120401,4.63831522 4.67780674,4.64188151 C4.6466591,4.67457883 4.60461143,4.68976756 4.56317461,4.69000391 C4.51917074,4.6902549 4.47403338,4.67413685 4.44251142,4.63730742 L4.44251142,4.63730742 L3.67005968,3.89513563 C3.63422962,3.8570851 3.61042296,3.81124723 3.61042296,3.76248692 C3.61042296,3.71664547 3.63306037,3.67361841 3.66801443,3.63912687 C3.70824129,3.59943231 3.75919452,3.57654289 3.81168177,3.57654289 L3.81168177,3.57654289 Z M16.1581067,3.57654289 C16.3364256,3.67331988 16.3593656,3.71585135 16.3593656,3.76124477 C16.3593656,3.80663819 16.3364256,3.84916966 16.3017741,3.88336267 L16.3017741,3.88336267 L15.5565576,4.61871832 C15.5163307,4.65841288 15.4653775,4.6813023 15.4128902,4.6813023 C15.360403,4.6813023 15.3094497,4.65841288 15.2692229,4.61871832 C15.2377444,4.58765634 15.2267372,4.54478172 15.2267372,4.50405335 C15.2267372,4.454003 15.2441037,4.40318195 15.2803319,4.36352049 L15.2803319,4.36352049 L16.0144394,3.63912687 C16.0546663,3.59943231 16.1056195,3.57654289 16.1581067,3.57654289 Z M9.85385531,1.10881098 C10.0560876,1.05 10.1067243,1.07364548 10.1436673,1.11009968 C10.1754902,1.14150142 10.1987412,1.18381491 10.1987412,1.23221757 L10.1987412,1.23221757 L10.1987412,2.29550209 C10.1987412,2.34414913 10.1780502,2.38742532 10.1461447,2.41890869 C10.1086371,2.45592001 10.0565716,2.47771967 10,2.47771967 C9.94514656,2.47771967 9.89655351,2.45265019 9.86069415,2.41697996 C9.82657611,2.38304188 9.80125881,2.33747498 9.80125881,2.28556485 L9.80125881,2.28556485 L9.80125881,1.23221757 C9.80125881,1.18357054 9.82194976,1.14029435 9.85385531,1.10881098 Z" id="形状结合" stroke="url(#linearGradient-2)" stroke-width="2.1"></path>
        </g>
    </g>
</svg>