<?xml version="1.0" encoding="UTF-8"?>
<svg width="18px" height="27px" viewBox="0 0 18 27" version="1.1" xmlns="http://www.w3.org/2000/svg" xmlns:xlink="http://www.w3.org/1999/xlink">
    <title>画板</title>
    <g id="画板" stroke="none" stroke-width="1" fill="none" fill-rule="evenodd">
        <g id="编组-12">
            <path d="M7.53761136,24.375 L10.4623886,24.375 C11.6613442,24.375 12.812228,24.846412 13.6666667,25.6875 C13.9682941,25.9844146 13.9721147,26.4696287 13.6752002,26.7712562 C13.5311494,26.9175936 13.3343971,27 13.1290553,27 L4.87094469,27 C4.44769844,27 4.10458956,26.6568911 4.10458956,26.2336449 C4.10458956,26.0283031 4.18699599,25.8315508 4.33333333,25.6875 C5.18777196,24.846412 6.3386558,24.375 7.53761136,24.375 Z" id="矩形" fill="#D5D3D3" opacity="0.2"></path>
            <g id="_定位小" fill="#F53F3F" fill-rule="nonzero">
                <path d="M2.63565387,15.3791289 C0.94882004,13.694528 0,11.4013777 0,9.00916397 C0,6.61695024 0.94882004,4.32379999 2.63565387,2.63919907 C6.15027496,-0.879733024 11.8492713,-0.879733024 15.3638924,2.63919907 C17.0510035,4.32383524 18,6.61718029 18,9.00961709 C18,11.4020539 17.0510035,13.6953989 15.3638924,15.3800351 C13.2329072,17.5082151 11.8149746,19.1535083 11.1100944,20.3159147 C10.4990874,21.3235163 9.89374944,23.0539488 9.29193365,25.4922555 C9.21265816,25.8134467 8.79979716,25.8193112 8.72354058,25.5008386 C8.13912996,23.0601467 7.5389244,21.3318387 6.92292389,20.3159147 C6.22222761,19.1603081 4.79313761,17.5147129 2.63565387,15.3791289 Z" id="形状"></path>
            </g>
        </g>
    </g>
</svg>