<?xml version="1.0" encoding="UTF-8"?>
<svg width="24px" height="24px" viewBox="0 0 24 24" version="1.1" xmlns="http://www.w3.org/2000/svg" xmlns:xlink="http://www.w3.org/1999/xlink">
    <title>画板</title>
    <defs>
        <linearGradient x1="50%" y1="0%" x2="50%" y2="98.3309659%" id="linearGradient-1">
            <stop stop-color="#FFFFFF" offset="0%"></stop>
            <stop stop-color="#007BC7" offset="100%"></stop>
        </linearGradient>
    </defs>
    <g id="画板" stroke="none" stroke-width="1" fill="none" fill-rule="evenodd">
        <path d="M21.3045072,9.59105378 L20.0003643,9.41026983 C19.7108081,9.36959344 19.4759712,9.17525068 19.3619727,8.91085415 C19.104336,8.30748769 18.7760203,7.74253783 18.3838655,7.22730356 C18.2083078,6.99680401 18.1558685,6.69625068 18.265307,6.42959435 L18.7600605,5.22060164 C18.9128185,4.84999453 18.7646205,4.42289244 18.4135051,4.22403008 L15.593182,2.60827347 C15.2420666,2.40715132 14.7974724,2.4930237 14.5489557,2.80939563 L13.7418463,3.83308478 C13.5617286,4.06358432 13.2698924,4.1697949 12.9780563,4.13363811 C12.6588604,4.09296172 12.3328247,4.07036372 12.002229,4.07036372 C11.6716334,4.07036372 11.3455976,4.09296172 11.0264018,4.13363811 C10.7345656,4.1697949 10.4427295,4.06358432 10.2626118,3.83308478 L9.45550238,2.80939563 C9.20698563,2.4930237 8.76239145,2.40715132 8.41127605,2.60827347 L5.59095298,4.22177028 C5.23983758,4.42289244 5.09391949,4.84773473 5.24439752,5.21834184 L5.73915104,6.42733455 C5.84858961,6.69625068 5.79615029,6.99454421 5.62059259,7.22504376 C5.22843773,7.74027803 4.89784206,8.30522789 4.6424854,8.90859435 C4.52848689,9.17525068 4.29364997,9.36959344 4.00409376,9.40801003 L2.69995083,9.58879398 C2.29867609,9.64528897 2,9.98425889 2,10.3865032 L2,13.6157566 C2,14.0157411 2.29867609,14.354711 2.69767086,14.411206 L4.00181379,14.59199 C4.29137,14.6326664 4.52620692,14.8270091 4.64020543,15.0914057 C4.89784206,15.6947721 5.22615776,16.259722 5.61831262,16.7749562 C5.79387032,17.0054558 5.84630964,17.3060091 5.73687107,17.5726655 L5.24211755,18.7816582 C5.08935955,19.1522653 5.23755761,19.5793674 5.58867301,19.7782297 L8.40899608,21.3917265 C8.76011148,21.5928487 9.20470566,21.5069763 9.45322241,21.1906044 L10.2603318,20.1669152 C10.4404495,19.9364157 10.7322857,19.8302051 11.0241218,19.8663619 C11.3433177,19.9070383 11.6693534,19.9296363 11.9999491,19.9296363 C12.3305447,19.9296363 12.6565805,19.9070383 12.9757763,19.8663619 C13.2676125,19.8302051 13.5594486,19.9364157 13.7395663,20.1669152 L14.5466757,21.1906044 C14.7951925,21.5069763 15.2397866,21.5928487 15.590902,21.3917265 L18.4112251,19.7782297 C18.7623405,19.5771076 18.9082586,19.1522653 18.7577806,18.7816582 L18.2630271,17.5726655 C18.1535885,17.3060091 18.2060278,17.0054558 18.3815855,16.7749562 C18.7737404,16.259722 19.104336,15.6947721 19.3596927,15.0914057 C19.4736912,14.8247493 19.7085281,14.6304066 19.9980843,14.59199 L21.3022273,14.411206 C21.703502,14.354711 21.9999496,14.0157411 21.9999496,13.6157566 L21.9999496,10.3865032 C22.0044581,9.98425889 21.705782,9.64528897 21.3045072,9.59105378 Z M12.002229,15.1388614 C10.2534919,15.1388614 8.8353505,13.7332662 8.8353505,12 C8.8353505,10.2667338 10.2534919,8.86113856 12.002229,8.86113856 C13.7509661,8.86113856 15.1691076,10.2667338 15.1691076,12 C15.1691076,13.7332662 13.7509661,15.1388614 12.002229,15.1388614 Z" id="形状" fill="url(#linearGradient-1)" fill-rule="nonzero"></path>
    </g>
</svg>