<?xml version="1.0" encoding="UTF-8"?>
<svg width="24px" height="24px" viewBox="0 0 24 24" version="1.1" xmlns="http://www.w3.org/2000/svg" xmlns:xlink="http://www.w3.org/1999/xlink">
    <title>画板</title>
    <defs>
        <linearGradient x1="50%" y1="0%" x2="50%" y2="100%" id="linearGradient-1">
            <stop stop-color="#FFFFFF" offset="0%"></stop>
            <stop stop-color="#F7D32C" offset="100%"></stop>
        </linearGradient>
    </defs>
    <g id="画板" stroke="none" stroke-width="1" fill="none" fill-rule="evenodd">
        <path d="M21.3045072,10.0910538 L20.0003643,9.91026983 C19.7108081,9.86959344 19.4759712,9.67525068 19.3619727,9.41085415 C19.104336,8.80748769 18.7760203,8.24253783 18.3838655,7.72730356 C18.2083078,7.49680401 18.1558685,7.19625068 18.265307,6.92959435 L18.7600605,5.72060164 C18.9128185,5.34999453 18.7646205,4.92289244 18.4135051,4.72403008 L15.593182,3.10827347 C15.2420666,2.90715132 14.7974724,2.9930237 14.5489557,3.30939563 L13.7418463,4.33308478 C13.5617286,4.56358432 13.2698924,4.6697949 12.9780563,4.63363811 C12.6588604,4.59296172 12.3328247,4.57036372 12.002229,4.57036372 C11.6716334,4.57036372 11.3455976,4.59296172 11.0264018,4.63363811 C10.7345656,4.6697949 10.4427295,4.56358432 10.2626118,4.33308478 L9.45550238,3.30939563 C9.20698563,2.9930237 8.76239145,2.90715132 8.41127605,3.10827347 L5.59095298,4.72177028 C5.23983758,4.92289244 5.09391949,5.34773473 5.24439752,5.71834184 L5.73915104,6.92733455 C5.84858961,7.19625068 5.79615029,7.49454421 5.62059259,7.72504376 C5.22843773,8.24027803 4.89784206,8.80522789 4.6424854,9.40859435 C4.52848689,9.67525068 4.29364997,9.86959344 4.00409376,9.90801003 L2.69995083,10.088794 C2.29867609,10.145289 2,10.4842589 2,10.8865032 L2,14.1157566 C2,14.5157411 2.29867609,14.854711 2.69767086,14.911206 L4.00181379,15.09199 C4.29137,15.1326664 4.52620692,15.3270091 4.64020543,15.5914057 C4.89784206,16.1947721 5.22615776,16.759722 5.61831262,17.2749562 C5.79387032,17.5054558 5.84630964,17.8060091 5.73687107,18.0726655 L5.24211755,19.2816582 C5.08935955,19.6522653 5.23755761,20.0793674 5.58867301,20.2782297 L8.40899608,21.8917265 C8.76011148,22.0928487 9.20470566,22.0069763 9.45322241,21.6906044 L10.2603318,20.6669152 C10.4404495,20.4364157 10.7322857,20.3302051 11.0241218,20.3663619 C11.3433177,20.4070383 11.6693534,20.4296363 11.9999491,20.4296363 C12.3305447,20.4296363 12.6565805,20.4070383 12.9757763,20.3663619 C13.2676125,20.3302051 13.5594486,20.4364157 13.7395663,20.6669152 L14.5466757,21.6906044 C14.7951925,22.0069763 15.2397866,22.0928487 15.590902,21.8917265 L18.4112251,20.2782297 C18.7623405,20.0771076 18.9082586,19.6522653 18.7577806,19.2816582 L18.2630271,18.0726655 C18.1535885,17.8060091 18.2060278,17.5054558 18.3815855,17.2749562 C18.7737404,16.759722 19.104336,16.1947721 19.3596927,15.5914057 C19.4736912,15.3247493 19.7085281,15.1304066 19.9980843,15.09199 L21.3022273,14.911206 C21.703502,14.854711 21.9999496,14.5157411 21.9999496,14.1157566 L21.9999496,10.8865032 C22.0044581,10.4842589 21.705782,10.145289 21.3045072,10.0910538 Z M12.002229,15.6388614 C10.2534919,15.6388614 8.8353505,14.2332662 8.8353505,12.5 C8.8353505,10.7667338 10.2534919,9.36113856 12.002229,9.36113856 C13.7509661,9.36113856 15.1691076,10.7667338 15.1691076,12.5 C15.1691076,14.2332662 13.7509661,15.6388614 12.002229,15.6388614 Z" id="形状" fill="url(#linearGradient-1)" fill-rule="nonzero"></path>
    </g>
</svg>