<?xml version="1.0" encoding="UTF-8"?>
<svg width="28px" height="28px" viewBox="0 0 28 28" version="1.1" xmlns="http://www.w3.org/2000/svg" xmlns:xlink="http://www.w3.org/1999/xlink">
    <title>画板</title>
    <defs>
        <linearGradient x1="35.2290788%" y1="3.91654146%" x2="64.0547433%" y2="95.4276647%" id="linearGradient-1">
            <stop stop-color="#C8E6FD" offset="0.00546328671%"></stop>
            <stop stop-color="#74C4FE" offset="100%"></stop>
        </linearGradient>
        <linearGradient x1="36.6992311%" y1="5.44539451%" x2="61.5628381%" y2="100%" id="linearGradient-2">
            <stop stop-color="#F1F9FF" offset="0%"></stop>
            <stop stop-color="#6BBEFA" offset="100%"></stop>
        </linearGradient>
    </defs>
    <g id="画板" stroke="none" stroke-width="1" fill="none" fill-rule="evenodd">
        <g id="编组-14" transform="translate(4.500000, 4.000000)">
            <path d="M7.39078561,3.61855867 L9.16554631,4.67884459 L18.7940606,10.4309922 C18.9370062,10.5163674 19.0168749,10.6818123 18.9969897,10.8513517 C18.9770867,11.0209065 18.8612556,11.1617776 18.7026975,11.2092631 L14.7264717,12.400437 L17.2432039,16.9108131 C17.3797406,17.1554981 17.4167365,17.4462889 17.3460512,17.7192015 C17.275366,17.9921142 17.102791,18.224788 16.8662989,18.3660266 L14.3698982,19.8573241 C14.1334412,19.9985627 13.852446,20.0368204 13.5887286,19.963681 C13.3250111,19.8905416 13.1001738,19.7119964 12.9636783,19.4673232 L10.4470749,14.9569471 L7.46168853,17.9246291 C7.34264147,18.0427724 7.1669473,18.0760054 7.01520596,18.0090825 C6.86346461,17.9421595 6.76488392,17.7879963 6.76488392,17.6173153 L6.76488392,3.98259506 C6.76488392,3.83038293 6.84337946,3.68973814 6.97077264,3.61363207 C7.03266794,3.57661595 7.19750759,3.50311628 7.39078561,3.61855867 Z M2.85385037,12.1912706 C2.90193664,12.1970682 2.95069176,12.2 3,12.2 L3,12.2 L4.75762474,12.2 L4.75762474,13.8 L3,13.8 C2.88664323,13.8 2.77393404,13.7932224 2.66233198,13.779767 L2.66233198,13.779767 Z M1.8,9.8190922 L1.8,11 C1.8,11.1556088 1.82922369,11.3058398 1.88537464,11.4459674 L1.88537464,11.4459674 L0.400177464,12.0411055 C0.268503914,11.7125075 0.2,11.3603475 0.2,11 L0.2,11 L0.2,9.8190922 L1.8,9.8190922 Z M1.8,5.8190922 L1.8,7.8190922 L0.2,7.8190922 L0.2,5.8190922 L1.8,5.8190922 Z M17.8,4.05797288 L17.8,5.32395165 L16.2,5.32395165 L16.2,4.05797288 L17.8,4.05797288 Z M0.688362755,1.41968309 L2.00862946,2.32350599 C1.87323384,2.52128624 1.8,2.75413426 1.8,3 L1.8,3 L1.8,3.8190922 L0.2,3.8190922 L0.2,3 C0.2,2.42896412 0.372160084,1.88157873 0.688362755,1.41968309 L0.688362755,1.41968309 Z M15.1663944,0.204886709 C16.1718921,0.264079619 17.0588462,0.858258921 17.5040568,1.74614777 L17.5040568,1.74614777 L16.0737902,2.46332084 C15.88269,2.08220754 15.5023831,1.82743619 15.0723664,1.80212142 L15.0723664,1.80212142 Z M5.11944034,0.2 L5.11944034,1.8 L3.11944034,1.8 L3.11944034,0.2 L5.11944034,0.2 Z M9.11944034,0.2 L9.11944034,1.8 L7.11944034,1.8 L7.11944034,0.2 L9.11944034,0.2 Z M13.1194403,0.2 L13.1194403,1.8 L11.1194403,1.8 L11.1194403,0.2 L13.1194403,0.2 Z" id="形状结合" fill="url(#linearGradient-1)"></path>
            <path d="M7.05238281,4.43156909 L8.76944077,4.92955698 L18.2307638,10.5818232 L13.8048753,11.9077044 L16.6174976,16.9483616 L13.9199099,19.2388017 L10.3594573,13.9578447 L7.05238281,17.2453073 L7.05238281,4.43156909 Z M3.18786802,12.4812233 L4.07012585,12.4852687 L4.07012585,13.1125011 L3.24521827,13.1125011 L3.18786802,12.4812233 Z M1.11250111,10.1065911 L0.497168146,11.0126735 L0.49036301,10.1065911 L1.11250111,10.1065911 Z M1.11250111,6.10659109 L1.11250111,7.13159331 L0.487498889,7.13159331 L0.487498889,6.10659109 L1.11250111,6.10659109 Z M0.658175417,1.92672114 L1.19044422,2.29109958 L1.11687668,3.13159331 L0.487498889,3.13159331 C0.487498889,2.49626801 0.546436727,2.20061798 0.658175417,1.92672114 L0.658175417,1.92672114 Z M15.4711417,0.586587994 C15.8772672,0.709641909 16.2401721,0.942226239 16.5213516,1.25548712 L16.5213516,1.25548712 L15.9904427,1.60376395 C15.8460869,1.46016046 15.6767852,1.34357257 15.4908696,1.26007631 L15.4908696,1.26007631 Z M4.43194145,0.487498889 L4.43194145,1.11250111 L3.40693923,1.11250111 L3.40693923,0.487498889 L4.43194145,0.487498889 Z M8.43194145,0.487498889 L8.43194145,1.11250111 L7.40693923,1.11250111 L7.40693923,0.487498889 L8.43194145,0.487498889 Z M12.4319415,0.487498889 L12.4319415,1.11250111 L11.4069392,1.11250111 L11.4069392,0.487498889 L12.4319415,0.487498889 Z" id="形状结合" stroke="url(#linearGradient-2)" stroke-width="0.974997778"></path>
        </g>
    </g>
</svg>