<svg xmlns="http://www.w3.org/2000/svg" xmlns:xlink="http://www.w3.org/1999/xlink" width="78px" height="66px" viewBox="0 0 78 66" version="1.1">
    <title>分组 51</title>
    <defs>
        <linearGradient x1="19.4733234%" y1="33.9864997%" x2="75.6152748%" y2="66.1811026%" id="linearGradient-1">
            <stop stop-color="#203B6F" offset="0%"/>
            <stop stop-color="#2E2F33" stop-opacity="0" offset="100%"/>
        </linearGradient>
        <linearGradient x1="79.3302452%" y1="10.8966321%" x2="70.8777548%" y2="88.9338685%" id="linearGradient-2">
            <stop stop-color="#9DC5F7" offset="0%"/>
            <stop stop-color="#206FB9" offset="100%"/>
        </linearGradient>
    </defs>
    <g id="页面-1" stroke="none" stroke-width="1" fill="none" fill-rule="evenodd">
        <g id="1-3资源中心-标准地址治理-导入地址" transform="translate(-406.000000, -262.000000)">
            <g id="编组-14" transform="translate(321.000000, 160.000000)">
                <g id="编组-8" transform="translate(20.000000, 68.000000)">
                    <g id="分组-51" transform="translate(65.500000, 34.000000)">
                        <polygon id="路径-25" fill="url(#linearGradient-1)" points="50 0 77 18 43.5 65.5 2.5 38"/>
                        <polygon id="路径-24" fill="#206FB9" points="47 38 51 0 31.5 0 35 38"/>
                        <path d="M47.5,37 L47.5,2 C47.5,1.44771525 47.0522847,1 46.5,1 L22.2807764,1 C21.8219088,1 21.4219257,1.31229737 21.3106339,1.75746437 L20.1893661,6.24253563 C20.0780743,6.68770263 19.6780912,7 19.2192236,7 L1.08389171,7 C0.531606962,7 0.0838917123,7.44771525 0.0838917123,8 C0.0838917123,8.02682729 0.0849712673,8.05364371 0.0871277573,8.08038419 L2.42583743,37.0803842 C2.46772679,37.5998122 2.90148699,38 3.42260139,38 L46.5,38 C47.0522847,38 47.5,37.5522847 47.5,37 Z" id="路径-23" fill="url(#linearGradient-2)"/>
                        <g id="上传-(10)" transform="translate(26.500000, 24.000000)" fill="#FFFFFF" fill-rule="nonzero" opacity="0.584170387">
                            <path d="M8.00118746,2.93098879e-13 C10.4667655,2.93098879e-13 12.4682328,1.78708673 12.9345894,4.12538468 C14.6023719,4.26227717 16.0019231,5.77567288 16,7.56269234 C16,9.48676553 14.5329077,11 12.6668394,11 L12.6668394,11 L9.134,11 L9.1474058,10.9902426 C9.18213565,10.9559358 9.20679888,10.91358 9.21938216,10.8675595 L9.22894546,10.7963284 L9.22871895,8.06452343 L10.7922416,8.06452343 C10.903943,8.06454635 11.0046349,7.9988865 11.0472795,7.89821662 C11.0907673,7.79706318 11.0685704,7.67978705 10.9911078,7.60116125 L10.9911078,7.60116125 L7.94764055,4.51134389 C7.89588902,4.45812912 7.82398418,4.42799081 7.74877442,4.42799081 C7.67356465,4.42799081 7.60165981,4.45812912 7.54990829,4.51134389 L7.54990829,4.51134389 L4.50644108,7.6009404 C4.42852543,7.67978707 4.40610203,7.79706318 4.44936334,7.89843747 C4.49210428,7.99939871 4.59329426,8.06506246 4.70530722,8.06452343 L4.70530722,8.06452343 L6.26882988,8.06452343 L6.26882988,10.7961075 C6.26869422,10.8688367 6.29799622,10.9386803 6.35036953,10.9904634 C6.35431219,10.9943504 6.35836412,10.9981075 6.36251829,11.0017319 L4.00065919,11 C1.80074566,11 5.05373521e-13,9.14542111 5.05373521e-13,6.87645622 C-0.0163928833,4.78146897 1.53283523,3.00718745 3.60168122,2.75113883 C4.41961982,1.05992662 6.13027576,-0.0097699892 8.00118746,2.93098879e-13 Z" id="合并形状"/>
                        </g>
                    </g>
                </g>
            </g>
        </g>
    </g>
</svg>