<?xml version="1.0" encoding="UTF-8"?>
<svg width="20px" height="20px" viewBox="0 0 20 20" version="1.1" xmlns="http://www.w3.org/2000/svg" xmlns:xlink="http://www.w3.org/1999/xlink">
    <title>画板</title>
    <defs>
        <linearGradient x1="50%" y1="0%" x2="50%" y2="100%" id="linearGradient-1">
            <stop stop-color="#C4C4C4" offset="0%"></stop>
            <stop stop-color="#8B8B8B" offset="14.5514642%"></stop>
            <stop stop-color="#747474" offset="70.0502622%"></stop>
            <stop stop-color="#3A3A3A" offset="100%"></stop>
        </linearGradient>
        <radialGradient cx="50%" cy="94.3105451%" fx="50%" fy="94.3105451%" r="44.114479%" gradientTransform="translate(0.500000,0.943105),scale(1.000000,0.295410),translate(-0.500000,-0.943105)" id="radialGradient-2">
            <stop stop-color="#9E9E9E" offset="0%"></stop>
            <stop stop-color="#8E8E8E" offset="20.4246894%"></stop>
            <stop stop-color="#5A5A5A" stop-opacity="0" offset="100%"></stop>
        </radialGradient>
        <linearGradient x1="50%" y1="0%" x2="50%" y2="97.4022072%" id="linearGradient-3">
            <stop stop-color="#C7C7C7" offset="0%"></stop>
            <stop stop-color="#9B9B9B" offset="100%"></stop>
        </linearGradient>
        <radialGradient cx="50%" cy="100%" fx="50%" fy="100%" r="98.541086%" id="radialGradient-4">
            <stop stop-color="#E3E3E3" offset="0%"></stop>
            <stop stop-color="#777777" stop-opacity="0" offset="100%"></stop>
        </radialGradient>
        <radialGradient cx="50%" cy="2.0268321%" fx="50%" fy="2.0268321%" r="98.541086%" id="radialGradient-5">
            <stop stop-color="#FFFFFF" offset="0%"></stop>
            <stop stop-color="#6A6A6A" stop-opacity="0" offset="100%"></stop>
        </radialGradient>
        <circle id="path-6" cx="8" cy="8" r="8"></circle>
    </defs>
    <g id="画板" stroke="none" stroke-width="1" fill="none" fill-rule="evenodd">
        <g id="编组-7备份-12备份-7" transform="translate(2.000000, 2.000000)">
            <g id="Oval">
                <use fill="url(#linearGradient-1)" fill-rule="evenodd" xlink:href="#path-6"></use>
                <circle stroke="url(#linearGradient-3)" stroke-width="1" stroke-linejoin="square" fill="url(#radialGradient-2)" fill-rule="evenodd" cx="8" cy="8" r="7.5"></circle>
                <circle stroke="url(#radialGradient-4)" stroke-width="1" stroke-linejoin="square" cx="8" cy="8" r="7.5"></circle>
                <circle stroke="url(#radialGradient-5)" stroke-width="1" stroke-linejoin="square" cx="8" cy="8" r="7.5"></circle>
            </g>
            <path d="M9.01712697,9.97135528 C9.26712696,10.2719778 9.29212696,10.662787 9.09212696,10.9408628 L9.01712697,11.029101 L7.96157141,12.0868468 C6.8504603,13.2559342 5.01712697,13.2559342 3.8504603,12.0868468 C2.78379363,11.0179669 2.74112697,9.28210589 3.7224603,8.11061349 L3.8504603,7.96720544 L4.90601586,6.96513051 C5.07268253,6.74244719 5.35046031,6.68677636 5.62823808,6.74244719 C5.85046031,6.79811802 6.07268252,7.02080133 6.18379364,7.24348465 C6.23141268,7.48207393 6.15658275,7.72066319 6.02927468,7.88913643 L5.96157141,7.96720544 L4.90601586,9.02495119 C4.3504603,9.58165948 4.3504603,10.5280636 4.90601586,11.0847719 C5.42684919,11.6066859 6.2894794,11.6393055 6.85303734,11.1826307 L6.96157141,11.0847719 L8.01712697,10.0270261 C8.29490474,9.74867196 8.73934919,9.74867196 9.01712697,9.97135528 Z M4.4471217,6.51497744 C4.37565079,6.78171049 4.10148232,6.94000174 3.83474926,6.86853083 L2.86882344,6.60971179 C2.60209039,6.53824088 2.44379914,6.2640724 2.51527005,5.99733935 C2.58674095,5.7306063 2.86090943,5.57231506 3.12764248,5.64378596 L4.09356831,5.90260501 C4.36030136,5.97407591 4.51859261,6.24824439 4.4471217,6.51497744 Z M9.53995475,11.6078105 C9.77705079,11.5442808 10.0200217,11.6622916 10.1212845,11.8766356 L10.1523272,11.9613639 L10.4111462,12.9272897 C10.4826171,13.1940228 10.3243259,13.4681912 10.0575928,13.5396621 C9.82049679,13.6031918 9.57752584,13.4851811 9.47626311,13.270837 L9.4452204,13.1861088 L9.18640136,12.2201829 C9.11493045,11.9534499 9.27322169,11.6792814 9.53995475,11.6078105 Z M5.60251622,4.84194483 C5.79777836,5.03720698 5.79777836,5.35378947 5.60251622,5.54905162 C5.40725407,5.74431376 5.09067158,5.74431376 4.89540944,5.54905162 L4.18830265,4.84194483 C3.99304051,4.64668269 3.99304051,4.3301002 4.18830265,4.13483805 C4.3835648,3.93957591 4.70014729,3.93957591 4.89540944,4.13483805 L5.60251622,4.84194483 Z M11.9200941,11.1595228 C12.1153563,11.3547849 12.1153563,11.6713674 11.9200941,11.8666295 C11.724832,12.0618917 11.4082495,12.0618917 11.2129874,11.8666295 L10.5058806,11.1595228 C10.3106184,10.9642606 10.3106184,10.6476781 10.5058806,10.452416 C10.7011427,10.2571538 11.0177252,10.2571538 11.2129874,10.452416 L11.9200941,11.1595228 Z M12.1837936,3.84756408 C13.2504603,4.916444 13.293127,6.65230499 12.3117936,7.82379738 L12.1837936,7.96720544 L11.1282381,9.02495119 C10.7949047,9.30330533 10.3504603,9.30330533 10.0726825,9.02495119 C9.82268252,8.72432872 9.79768253,8.33351949 9.99768252,8.0554437 L10.0726825,7.96720544 L11.1282381,6.90945968 C11.6837936,6.35275139 11.6837936,5.4063473 11.1282381,4.849639 C10.6074047,4.32772498 9.74477454,4.29510535 9.18121659,4.75178012 L9.07268252,4.849639 L8.01712697,5.90738476 C7.68379364,6.1857389 7.23934918,6.1857389 6.96157141,5.90738476 C6.71157141,5.60676228 6.68657142,5.21595306 6.88657141,4.93787727 L6.96157141,4.849639 L8.01712697,3.79189325 C9.18379363,2.67847667 11.017127,2.67847667 12.1837936,3.84756408 Z M6.66317639,2.81535884 L6.92199543,3.78128466 C6.99346634,4.04801771 6.83517509,4.32218619 6.56844204,4.3936571 C6.30170899,4.465128 6.02754051,4.30683676 5.95606961,4.04010371 L5.69725056,3.07417788 C5.62577966,2.80744483 5.7840709,2.53327635 6.05080395,2.46180545 C6.317537,2.39033454 6.59170548,2.54862579 6.66317639,2.81535884 Z M13.2395734,9.3917558 C13.5063064,9.46322671 13.6645976,9.73739518 13.5931267,10.0041282 C13.529597,10.2412243 13.3059112,10.3926379 13.0696525,10.373162 L12.9807543,10.3576816 L12.0148285,10.0988626 C11.7480954,10.0273917 11.5898042,9.7532232 11.6612751,9.48649015 C11.7248048,9.2493941 11.9484906,9.09798047 12.1847494,9.11745641 L12.2736475,9.13293675 L13.2395734,9.3917558 Z" id="形状" fill="#FFFFFF" fill-rule="nonzero"></path>
        </g>
    </g>
</svg>