<?xml version="1.0" encoding="UTF-8"?>
<svg width="18px" height="18px" viewBox="0 0 18 18" version="1.1" xmlns="http://www.w3.org/2000/svg" xmlns:xlink="http://www.w3.org/1999/xlink">
    <title>形状结合</title>
    <defs>
        <linearGradient x1="33.6159123%" y1="3.91654146%" x2="65.5896944%" y2="95.4276647%" id="linearGradient-1">
            <stop stop-color="#FFFBE8" offset="0.00546328671%"></stop>
            <stop stop-color="#FEE574" offset="100%"></stop>
        </linearGradient>
    </defs>
    <g id="页面-2" stroke="none" stroke-width="1" fill="none" fill-rule="evenodd">
        <g id="画板" fill="url(#linearGradient-1)">
            <path d="M12.0352868,1.81300754 L12.0352868,2.83367705 C12.0239407,3.47083838 12.4022829,4.05071647 12.9906436,4.29793453 C13.4469258,4.475909 13.9611542,4.42352008 14.3720174,4.15720195 C14.7828806,3.89088383 15.0400447,3.44326247 15.0628384,2.95475491 L15.0628384,2.95475491 L15.0628384,1.8264165 C15.5932495,1.81767585 16.12376,1.84459307 16.6504897,1.90706885 C17.4834845,2.11836671 18.0483888,2.89096803 17.9960682,3.74737292 L17.9960682,3.74737292 L17.9959687,3.74737292 L17.9959687,16.0379183 C18.0303271,16.5560294 17.8438596,17.0645238 17.4825394,17.4380331 C17.1212192,17.8115423 16.6186672,18.0153115 16.0987866,17.9991016 L16.0987866,17.9991016 L1.7687339,17.9991016 C1.26843421,17.9823572 0.796835295,17.7617851 0.463749613,17.388746 C0.130751388,17.0156425 -0.0346457032,16.5226682 0.00606985436,16.0246087 L0.00606985436,16.0246087 L0.00606985436,3.65331161 C-0.0129147458,2.81300754 0.540894028,2.06665205 1.35164834,1.83992477 C1.43204811,1.82919698 1.51352036,1.82919698 1.59392013,1.83992477 L1.59392013,1.83992477 L2.93929963,1.83992477 L2.93929963,2.84728465 C2.91183884,3.6427831 3.49428608,4.32902343 4.28487812,4.43232202 C5.11636284,4.51873526 5.86168438,3.91870952 5.95331983,3.08924173 C5.96695072,2.91035639 5.96695072,2.73057711 5.95331983,2.5517911 L5.95331983,2.5517911 L5.95331983,1.81300754 L12.0352868,1.81300754 Z M16.7984397,6.82338634 L1.12290796,6.82338634 L1.12290796,15.4336216 C1.09210941,15.628964 1.15474723,15.82743 1.29215227,15.969867 C1.42955732,16.112304 1.62586315,16.1822645 1.82256102,16.1588969 L1.82256102,16.1588969 L16.1661451,16.1588969 C16.3783541,16.1780077 16.5826176,16.0734213 16.6908849,15.8902212 C16.7699512,15.7315681 16.8114147,15.5568897 16.8120706,15.3796878 L16.8120706,15.3796878 L16.8120706,7.93821649 L16.7984397,6.82338634 Z M15.5740468,13.0560655 L15.5740468,14.8829607 L13.2059521,14.8829607 L13.2059521,13.0560655 L15.5740468,13.0560655 Z M11.9544964,13.0560655 L11.9544964,14.8829607 L9.58630215,14.8829607 L9.58630215,13.0560655 L11.9544964,13.0560655 Z M8.34847739,13.029049 L8.34847739,14.8828613 L5.96685123,14.8828613 L5.96685123,13.029049 L8.34847739,13.029049 Z M4.71559457,13.0560655 L4.71559457,14.8829607 L2.3474003,14.8829607 L2.3474003,13.0560655 L4.71559457,13.0560655 Z M11.9544964,10.5709399 L11.9544964,12.397835 L9.58630215,12.397835 L9.58630215,10.5709399 L11.9544964,10.5709399 Z M8.33494599,10.5709399 L8.33494599,12.397835 L5.96685123,12.397835 L5.96685123,10.5709399 L8.33494599,10.5709399 Z M4.72892698,10.5709399 L4.72892698,12.397835 L2.36073271,12.397835 L2.36073271,10.5709399 L4.72892698,10.5709399 Z M15.5740468,10.5574316 L15.5740468,12.3843268 L13.2059521,12.3843268 L13.2059521,10.5574316 L15.5740468,10.5574316 Z M15.5607144,8.08611225 L15.5607144,9.91280872 L13.1925202,9.91280872 L13.1925202,8.08611225 L15.5607144,8.08611225 Z M11.9544964,8.08611225 L11.9544964,9.91280872 L9.58630215,9.91280872 L9.58630215,8.08611225 L11.9544964,8.08611225 Z M8.34847739,8.08611225 L8.34847739,9.91280872 L5.96685123,9.91280872 L5.96685123,8.08611225 L8.34847739,8.08611225 Z M4.17722388,0.066864112 C4.51971335,-0.0764286935 4.91564118,0.0155683966 5.15954393,0.29511426 C5.29695179,0.485584145 5.35922428,0.719926907 5.3344572,0.953344779 L5.3344572,0.953344779 L5.3344572,2.75332267 C5.34542683,2.99788189 5.25752411,3.23658873 5.09049399,3.41582419 C4.9236054,3.59522309 4.69150927,3.70015711 4.44635947,3.70704674 C3.93890509,3.6923847 3.53732766,3.27357491 3.54482985,2.76683094 L3.54482985,2.76683094 L3.54482985,0.939935828 C3.5385433,0.541171316 3.79591934,0.18584263 4.17722388,0.066864112 Z M13.1520254,0.066864112 C13.4945149,-0.0764286935 13.8904428,0.0155683966 14.1343455,0.29511426 C14.2958272,0.475889343 14.3824026,0.711203465 14.3765178,0.953344779 L14.3765178,0.953344779 L14.3765178,2.75332267 C14.3875255,2.99786953 14.2996578,3.23657871 14.1326541,3.41582419 C13.9657388,3.5951861 13.7336591,3.70011271 13.4885196,3.70704674 C13.2422328,3.6999869 13.0088305,3.5955962 12.8396093,3.41681744 C12.6706003,3.23783778 12.5797,2.9991858 12.5868904,2.75332267 L12.5868904,2.75332267 L12.5868904,0.926526877 C12.5765778,0.550167837 12.8020528,0.207183531 13.1520254,0.066864112 Z" id="形状结合"></path>
        </g>
    </g>
</svg>