<?xml version="1.0" encoding="UTF-8"?>
<svg width="86px" height="95px" viewBox="0 0 86 95" version="1.1" xmlns="http://www.w3.org/2000/svg" xmlns:xlink="http://www.w3.org/1999/xlink">
    <title>编组 16</title>
    <defs>
        <linearGradient x1="57.5529761%" y1="24.4221943%" x2="50%" y2="100%" id="linearGradient-1">
            <stop stop-color="#FFFFFF" offset="0%"></stop>
            <stop stop-color="#2499DF" offset="100%"></stop>
        </linearGradient>
        <path d="M13,3.30128182 C5.82017803,3.30128182 0,9.21264148 0,16.5064092 C0,23.7989023 5.82017803,29.7114967 13,29.7114967 C20.179822,29.7114967 26,23.7989023 26,16.5064092 C26,9.21264145 20.179822,3.30128182 13,3.30128182 Z M13,22.4486368 C9.769086,22.4486368 7.15002158,19.7882939 7.15002158,16.5064092 C7.15002158,13.2244846 9.769086,10.5641018 13,10.5641018 C16.2309532,10.5641018 18.8499784,13.2244845 18.8499784,16.5064092 C18.8499784,19.7882939 16.2309532,22.4486368 13,22.4486368 Z M8.592793,30.2879514 C7.66729405,31.3750225 5.70905384,33.672995 5.20001569,34.2443117 C4.52907503,34.9974111 7.4826099,35 12.9530643,35 C18.4234796,35 21.3770144,34.9974509 20.7054464,34.2443117 C20.1925656,33.6691315 18.2069952,31.3389368 17.2910246,30.2621418 C15.9205975,30.7599329 14.444732,31.0320492 12.9054229,31.0320492 C11.3940713,31.0320094 9.94232053,30.7689345 8.592793,30.2879514 Z M15.5999686,2.22580119 C15.4013253,0.964634678 14.3133357,0 12.9999608,0 C11.6866643,0 10.5986747,0.964634678 10.399953,2.22580119 C11.2422853,2.06461054 12.1112811,1.98080894 12.9999608,1.98080894 C13.8886405,1.98080894 14.7576756,2.0646105 15.5999686,2.22580119 Z" id="path-2"></path>
        <filter x="-173.1%" y="-119.8%" width="445.9%" height="356.8%" filterUnits="objectBoundingBox" id="filter-3">
            <feMorphology radius="9.44444444" operator="dilate" in="SourceAlpha" result="shadowSpreadOuter1"></feMorphology>
            <feOffset dx="0" dy="3" in="shadowSpreadOuter1" result="shadowOffsetOuter1"></feOffset>
            <feGaussianBlur stdDeviation="6" in="shadowOffsetOuter1" result="shadowBlurOuter1"></feGaussianBlur>
            <feComposite in="shadowBlurOuter1" in2="SourceAlpha" operator="out" result="shadowBlurOuter1"></feComposite>
            <feColorMatrix values="0 0 0 0 0   0 0 0 0 0.29045561   0 0 0 0 0.436565897  0 0 0 0.3 0" type="matrix" in="shadowBlurOuter1" result="shadowMatrixOuter1"></feColorMatrix>
            <feMorphology radius="1.44444444" operator="dilate" in="SourceAlpha" result="shadowSpreadOuter2"></feMorphology>
            <feOffset dx="0" dy="7" in="shadowSpreadOuter2" result="shadowOffsetOuter2"></feOffset>
            <feGaussianBlur stdDeviation="1.5" in="shadowOffsetOuter2" result="shadowBlurOuter2"></feGaussianBlur>
            <feComposite in="shadowBlurOuter2" in2="SourceAlpha" operator="out" result="shadowBlurOuter2"></feComposite>
            <feColorMatrix values="0 0 0 0 0.0191151694   0 0 0 0 0.0583796361   0 0 0 0 0.106346241  0 0 0 0.5 0" type="matrix" in="shadowBlurOuter2" result="shadowMatrixOuter2"></feColorMatrix>
            <feMerge>
                <feMergeNode in="shadowMatrixOuter1"></feMergeNode>
                <feMergeNode in="shadowMatrixOuter2"></feMergeNode>
            </feMerge>
        </filter>
    </defs>
    <g id="页面-1" stroke="none" stroke-width="1" fill="none" fill-rule="evenodd">
        <g id="防空区-视角" transform="translate(-1698, -698)" fill-rule="nonzero">
            <g id="编组-42" transform="translate(1491, 604)">
                <g id="形状结合" transform="translate(237, 121)">
                    <use fill="black" fill-opacity="1" filter="url(#filter-3)" xlink:href="#path-2"></use>
                    <path stroke="#0C273F" stroke-width="1.44444444" d="M8.37371893,29.4324715 C10.1089193,30.0615895 11.4790655,30.3097894 12.9054229,30.309827 C14.358173,30.309827 15.7510727,30.0531187 17.044449,29.5833153 C17.6302126,29.5461847 17.7419452,29.6775797 17.8411388,29.7941896 C18.7541664,30.8675248 20.7332591,33.1903189 21.2444923,33.7636514 C21.0758602,35.2780636 20.6164986,35.4683008 19.8571322,35.5618583 C18.8108315,35.6907676 17.0095485,35.7170355 14.5799019,35.7212936 L13.2913401,35.7222121 L11.3254633,35.7212915 C8.89657349,35.717031 7.09527791,35.6907544 6.04886597,35.5618455 C5.44679694,35.4876757 5.04830656,35.3576776 4.83855814,35.2232257 C4.70974414,35.140654 4.55273375,34.9926965 4.37693013,34.7710783 C4.44964519,34.5794958 4.51949691,34.4153194 4.5849914,34.2869569 C5.0804031,33.3160005 7.08864954,30.9405812 8.04287526,29.8197683 C8.14235142,29.7029257 8.25346016,29.5726 8.37371893,29.4324715 Z M13,2.5790596 C16.7907116,2.5790596 20.2230145,4.13872216 22.7072617,6.66216842 C25.1873384,9.18137828 26.7222222,12.6614625 26.7222222,16.5064092 C26.7222222,20.3508478 25.1872251,23.8310648 22.7069579,26.3504606 C20.2227318,28.8738778 16.7905507,30.4337189 13,30.4337189 C9.20944929,30.4337189 5.77726819,28.8738778 3.29304207,26.3504606 C0.812774856,23.8310648 -0.722222222,20.3508478 -0.722222222,16.5064092 C-0.722222222,12.6614625 0.8126616,9.18137829 3.29273828,6.66216842 C5.77698553,4.13872217 9.20928841,2.5790596 13,2.5790596 Z M13,11.2863241 C11.5852583,11.2863241 10.3050013,11.8696664 9.37808468,12.8112124 C8.44710937,13.756881 7.87224381,15.0635803 7.87224381,16.5064092 C7.87224381,17.9492162 8.44710805,19.2558938 9.37808027,20.2015467 C10.3049979,21.143081 11.5852567,21.7264146 13,21.7264146 C14.414756,21.7264146 15.695012,21.143086 16.6219248,20.2015565 C17.552898,19.2559026 18.1277562,17.9492208 18.1277562,16.5064092 C18.1277562,15.0635758 17.5528967,13.7568722 16.6219204,12.8112026 C15.6950085,11.8696615 14.4147544,11.2863241 13,11.2863241 Z M12.9999608,-0.722222222 C13.8309939,-0.722222222 14.5912455,-0.419306552 15.1772722,0.0823761623 C15.7714465,0.591033743 16.1859711,1.30442625 16.3133955,2.11343105 C16.3673238,2.45581626 16.3670541,2.79771221 16.3177516,3.12865327 C16.0339504,3.05416448 15.7493114,2.98970938 15.4642195,2.93515097 C14.6659034,2.78237621 13.8422364,2.70303116 12.9999608,2.70303116 C12.1576831,2.70303116 11.3340512,2.78237704 10.535696,2.93515214 C10.2505413,2.98972 9.96584838,3.05418438 9.68203767,3.12855115 C9.63282874,2.79756141 9.63259227,2.45571659 9.68653293,2.11338778 C9.814005,1.30439956 10.2285472,0.591022412 10.8227088,0.082375622 C11.4087394,-0.419310447 12.1689729,-0.722222222 12.9999608,-0.722222222 Z" fill="url(#linearGradient-1)" fill-rule="evenodd"></path>
                </g>
            </g>
        </g>
    </g>
</svg>