<?xml version="1.0" encoding="UTF-8"?>
<svg width="14px" height="14px" viewBox="0 0 14 14" version="1.1" xmlns="http://www.w3.org/2000/svg" xmlns:xlink="http://www.w3.org/1999/xlink">
    <title>20px/面性/提示/Success_强</title>
    <g id="页面-1" stroke="none" stroke-width="1" fill="none" fill-rule="evenodd">
        <g id="20px/面性/提示/Success_强">
            <path d="" id="矩形" opacity="0" fill-rule="nonzero"></path>
            <path d="M7,0.7 C10.47942,0.7 13.3,3.520608 13.3,7 C13.3,10.47942 10.47942,13.3 7,13.3 C3.520608,13.3 0.7,10.47942 0.7,7 C0.7,3.520608 3.520608,0.7 7,0.7 Z" id="路径" fill="#FF4848"></path>
            <g id="Group-2711" transform="translate(4.524390, 4.454515)" fill="#FFFFFF">
                <path d="M2.16477088,-0.212364579 L2.60227099,-0.212364579 C2.84389705,-0.212483582 3.0397711,-0.0166080133 3.0397711,0.225016724 C3.0397711,0.225056624 3.0397711,0.225095824 3.0396521,0.225135724 L3.0384131,4.77568431 C3.0382311,5.01726844 2.84237105,5.21306555 2.60079399,5.21318455 L1.72579376,5.21318455 L1.7271516,0.225135724 C1.72733652,-0.0164421132 1.92319311,-0.21224533 2.16477088,-0.212364579 Z" id="矩形" transform="translate(2.382782, 2.500410) rotate(40.000001) translate(-2.382782, -2.500410) "></path>
                <path d="M2.16477084,-0.212364577 L2.60227095,-0.212364577 C2.84389701,-0.21248358 3.03977106,-0.0166080117 3.03977106,0.225016725 C3.03977106,0.225056625 3.03977106,0.225095825 3.03965206,0.225135725 L3.03841306,4.77568431 C3.03823106,5.01726844 2.84237101,5.21306556 2.60079395,5.21318456 L1.72579373,5.21318456 L1.72715157,0.225135725 C1.72733649,-0.0164421116 1.92319308,-0.212245328 2.16477084,-0.212364577 Z" id="矩形" transform="translate(2.382782, 2.500410) rotate(-45.000000) translate(-2.382782, -2.500410) "></path>
            </g>
        </g>
    </g>
</svg>