<svg xmlns="http://www.w3.org/2000/svg" xmlns:xlink="http://www.w3.org/1999/xlink" width="100px" height="102px" viewBox="0 0 100 102" version="1.1">
    <title>编组 27备份</title>
    <defs>
        <linearGradient x1="10.2398303%" y1="50.0952845%" x2="106.907641%" y2="51.1845966%" id="linearGradient-1">
            <stop stop-color="#657899" offset="0%"/>
            <stop stop-color="#9BA6BD" offset="100%"/>
        </linearGradient>
        <linearGradient x1="100%" y1="84.7990021%" x2="11.7591795%" y2="7.42491518%" id="linearGradient-2">
            <stop stop-color="#808FAB" offset="0%"/>
            <stop stop-color="#5C6D8B" offset="100%"/>
        </linearGradient>
        <linearGradient x1="59.4162124%" y1="41.4887307%" x2="36.8524606%" y2="61.8833131%" id="linearGradient-3">
            <stop stop-color="#BBC4D3" offset="0%"/>
            <stop stop-color="#798AA9" offset="65.9273%"/>
            <stop stop-color="#9FABC0" offset="100%"/>
        </linearGradient>
        <linearGradient x1="61.7478787%" y1="39.6361874%" x2="33.5968838%" y2="64.4706181%" id="linearGradient-4">
            <stop stop-color="#BDC5D4" offset="0%"/>
            <stop stop-color="#798AA9" offset="65.1223776%"/>
            <stop stop-color="#B2BCD0" offset="100%"/>
        </linearGradient>
        <linearGradient x1="74.3497661%" y1="8.89684325%" x2="23.2019631%" y2="95.8643843%" id="linearGradient-5">
            <stop stop-color="#DFE4ED" offset="0%"/>
            <stop stop-color="#AFB9CA" offset="100%"/>
        </linearGradient>
    </defs>
    <g id="登录页调整" stroke="none" stroke-width="1" fill="none" fill-rule="evenodd" opacity="0.6">
        <g id="3-0数据中心-业务关注数据" transform="translate(-1048.000000, -684.000000)">
            <g id="编组-27备份" transform="translate(1048.000000, 684.000000)">
                <rect id="矩形" fill="#D8D8D8" opacity="0" x="0" y="0" width="100" height="102"/>
                <g id="编组" transform="translate(3.000000, 0.000000)">
                    <path d="M57.3421999,27.3408839 C57.4057156,28.044317 57.4380117,28.7557906 57.4380117,29.4740009 C57.4380117,43.7906147 44.5800633,54.6863313 28.7190059,54.6863313 C12.8579484,54.6863313 0,43.7906147 0,29.4740009 C0,28.7557906 0.0322961246,28.044317 0.0958118364,27.3408839 C1.29765829,40.5952854 13.653725,50.4250954 28.7190059,50.4250954 C43.6284042,50.4250954 55.8841375,40.7978185 57.3012915,27.7513829 L57.3421999,27.3408839 Z" id="路径" fill="url(#linearGradient-1)"/>
                    <path d="M28.7190059,50.4246608 C44.5800633,50.4246608 57.4380117,39.5289442 57.4380117,25.2123304 C57.4380117,10.8957165 44.5800633,0 28.7190059,0 C12.8579484,0 0,10.8957165 0,25.2123304 C0,39.5289442 12.8579484,50.4246608 28.7190059,50.4246608 Z" id="路径" fill="url(#linearGradient-2)" fill-rule="nonzero"/>
                    <path d="M47.0873191,48.2898053 C46.1998216,47.0102828 44.4526013,46.6995292 43.185086,47.5952818 C41.9175708,48.4910345 41.6094658,50.2545069 42.4969633,51.5338121 L51.7945869,64.9355499 C52.6820844,66.2148551 54.4293048,66.525826 55.69682,65.6300734 C56.9643352,64.7343207 57.2724403,62.9708483 56.3849428,61.6915431 L47.0873191,48.2898053 Z" id="路径" fill="url(#linearGradient-3)" fill-rule="nonzero"/>
                    <path d="M50.1502836,57.9377266 C52.3683814,56.3700508 55.4259632,56.9141955 56.9791915,59.1531426 L69.1128455,76.6431374 C70.6660738,78.8820845 70.1269438,81.9678894 67.908846,83.5355653 C65.6905328,85.1032411 62.6331664,84.5590964 61.0799381,82.3201493 L48.9460687,64.8301545 C47.3928404,62.5912074 47.9319704,59.5054024 50.1502836,57.9377266 Z" id="路径" fill="url(#linearGradient-4)" fill-rule="nonzero"/>
                    <path d="M28.7185753,44.7433027 C40.32408,44.7433027 49.7323717,36.1582456 49.7323717,25.5678499 C49.7323717,14.9774542 40.32408,6.39217978 28.7185753,6.39217978 C17.1128552,6.39217978 7.70456349,14.9774542 7.70456349,25.5678499 C7.70456349,36.1582456 17.1128552,44.7433027 28.7185753,44.7433027 Z" id="路径" fill="#3FC7B2" fill-rule="nonzero"/>
                    <path d="M28.7185753,44.7433027 C40.32408,44.7433027 49.7323717,36.1582456 49.7323717,25.5678499 C49.7323717,14.9774542 40.32408,6.39217978 28.7185753,6.39217978 C17.1128552,6.39217978 7.70456349,14.9774542 7.70456349,25.5678499 C7.70456349,36.1582456 17.1128552,44.7433027 28.7185753,44.7433027 Z" id="路径" fill="url(#linearGradient-5)" fill-rule="nonzero"/>
                    <path d="M19.8009693,25.9403196 L30.8064121,20.9721736 C31.4463059,20.6833683 32.1960066,20.9749986 32.4808585,21.6236696 C32.7657103,22.2725579 32.4778442,23.0324917 31.8381656,23.3212969 L20.8325075,28.2894429 C20.192829,28.5782482 19.4431283,28.2866179 19.1582764,27.6377296 C18.8734246,26.9890586 19.1610754,26.2291248 19.8009693,25.9403196 Z" id="路径" fill-opacity="0.550159" fill="#FFFFFF"/>
                    <path d="M22.5289153,31.6279797 L37.5892442,24.8294298 C38.2289227,24.5406245 38.9786234,24.8322548 39.2634753,25.4809258 C39.5483271,26.1298141 39.2606763,26.8897479 38.6207824,27.1785531 L23.5606688,33.977103 C22.920775,34.2659083 22.1710743,33.9740607 21.8862224,33.3253897 C21.6013706,32.6767187 21.8892367,31.9167849 22.5289153,31.6279797 Z" id="路径" fill-opacity="0.550159" fill="#FFFFFF"/>
                    <path d="M28.7185753,6.39217978 C40.32408,6.39217978 49.7323717,14.9774542 49.7323717,25.5678499 C49.7323717,26.2880159 49.6888796,26.9990549 49.6040484,27.6985765 C48.4426798,18.1106328 39.534978,10.6534157 28.7185753,10.6534157 C17.9021725,10.6534157 8.99447071,18.1106328 7.83288676,27.6981419 C7.74805561,26.9990549 7.70456349,26.2880159 7.70456349,25.5678499 C7.70456349,14.9774542 17.1128552,6.39217978 28.7185753,6.39217978 Z" id="路径" fill="#5C6D8B"/>
                    <path d="M54.2195429,98.2435757 C55.846837,97.8502443 57.0874388,97.313488 57.9415636,96.6335244" id="路径" stroke="#D7DBE1" stroke-width="2.59062559" stroke-linecap="round"/>
                    <path d="M41.9900771,98.8227074 C44.8564658,98.7857647 47.6716113,97.8715407 50.4359443,96.079818 C54.5821208,93.3921253 57.6033156,102 50.4359443,102 C45.657625,102 42.8422641,100.94083 41.9900771,98.8227074 Z" id="路径" fill="#D7DBE1"/>
                </g>
            </g>
        </g>
    </g>
</svg>