<?xml version="1.0" encoding="UTF-8"?>
<svg width="14px" height="14px" viewBox="0 0 14 14" version="1.1" xmlns="http://www.w3.org/2000/svg" xmlns:xlink="http://www.w3.org/1999/xlink">
    <title>20px/面性/提示/Success_强备份</title>
    <g id="页面-1" stroke="none" stroke-width="1" fill="none" fill-rule="evenodd">
        <g id="20px/面性/提示/Success_强备份">
            <path d="" id="矩形" opacity="0" fill-rule="nonzero"></path>
            <path d="M7,0.7 C10.47942,0.7 13.3,3.520608 13.3,7 C13.3,10.47942 10.47942,13.3 7,13.3 C3.520608,13.3 0.7,10.47942 0.7,7 C0.7,3.520608 3.520608,0.7 7,0.7 Z" id="路径" fill="#00B42A"></path>
            <g id="Group-2711" transform="translate(3.899220, 4.729786)" fill="#FFFFFF">
                <path d="M3.44152889,-0.212364579 L3.879029,-0.212364579 C4.12065506,-0.212483582 4.31652911,-0.0166080133 4.31652911,0.225016724 C4.31652911,0.225056624 4.31652911,0.225095824 4.31641011,0.225135724 L4.31517111,4.77568431 C4.31498911,5.01726844 4.11912906,5.21306555 3.877552,5.21318455 L3.00255178,5.21318455 L3.00390962,0.225135724 C3.00409454,-0.0164421132 3.19995113,-0.21224533 3.44152889,-0.212364579 Z" id="矩形" transform="translate(3.659540, 2.500410) rotate(40.000001) translate(-3.659540, -2.500410) "></path>
                <path d="M1.3906993,1.88335096 L1.82939395,1.88335096 C2.06721143,1.88335096 2.261468,2.07331346 2.26678799,2.31106566 L2.32751286,5.02548994 L1.45223057,5.06019594 C1.2107962,5.06977194 1.00731441,4.88180794 0.997741302,4.64037094 C0.997623212,4.63739594 0.997535503,4.63441394 0.997478313,4.63143894 L0.95328111,2.32924816 C0.948643255,2.08766836 1.14072215,1.8880696 1.38230212,1.88343174 C1.38510072,1.88335096 1.38790001,1.88335096 1.3906993,1.88335096 Z" id="矩形备份-3" transform="translate(1.640356, 3.471949) rotate(-47.999999) translate(-1.640356, -3.471949) "></path>
            </g>
        </g>
    </g>
</svg>