<?xml version="1.0" encoding="UTF-8"?>
<svg width="14px" height="14px" viewBox="0 0 14 14" version="1.1" xmlns="http://www.w3.org/2000/svg" xmlns:xlink="http://www.w3.org/1999/xlink">
    <title>16px/面性/提示/icon-info-fill备份 2</title>
    <g id="页面-1" stroke="none" stroke-width="1" fill="none" fill-rule="evenodd">
        <g id="16px/面性/提示/icon-info-fill备份-2" transform="translate(0.875000, 0.875000)">
            <path d="M6.125,0 C9.50775,0 12.25,2.74225875 12.25,6.125 C12.25,9.50775 9.50775,12.25 6.125,12.25 C2.74225875,12.25 0,9.50775 0,6.125 C0,2.74225875 2.74225875,0 6.125,0 Z" id="路径" fill="#FF7D00"></path>
            <path d="M6.58981383,8.31381204 C6.78728104,8.31381204 6.94736292,8.47389392 6.94736292,8.67136114 L6.94736292,9.60098879 C6.94736292,9.79845601 6.78728104,9.95853789 6.58981383,9.95853789 L5.66018617,9.95853789 C5.46271753,9.95853789 5.30263708,9.79845601 5.30263708,9.60098879 L5.30263708,8.67136114 C5.30263708,8.47389392 5.46271753,8.31381204 5.66018617,8.31381204 L6.58981383,8.31381204 Z M6.58981383,2.29146211 C6.78728104,2.29146211 6.94736292,2.47911317 6.94736292,2.71059177 L6.94736292,7.11999505 C6.94736292,7.35147198 6.78728104,7.53912471 6.58981383,7.53912471 L5.66018617,7.53912471 C5.46271753,7.53912471 5.30263708,7.35147198 5.30263708,7.11999505 L5.30263708,2.71059177 C5.30263708,2.47911317 5.46271753,2.29146211 5.66018617,2.29146211 L6.58981383,2.29146211 Z" id="形状结合" fill="#FFFFFF"></path>
            <path d="M6.125,0 C9.50775,0 12.25,2.74225875 12.25,6.125 C12.25,9.50775 9.50775,12.25 6.125,12.25 C2.74225875,12.25 0,9.50775 0,6.125 C0,2.74225875 2.74225875,0 6.125,0 Z M6.125,2.04166375 C3.86983625,2.04166375 2.04166375,3.86983625 2.04166375,6.125 C2.04166375,8.38016375 3.86983625,10.2083625 6.125,10.2083625 C8.38016375,10.2083625 10.2083625,8.38016375 10.2083625,6.125 C10.2083625,3.86983625 8.38016375,2.04166375 6.125,2.04166375 Z" id="形状结合" fill="#FF7D00"></path>
        </g>
    </g>
</svg>