<?xml version="1.0" encoding="UTF-8"?>
<svg width="140px" height="141px" viewBox="0 0 140 141" version="1.1" xmlns="http://www.w3.org/2000/svg" xmlns:xlink="http://www.w3.org/1999/xlink">
    <title>组_16988</title>
    <defs>
        <linearGradient x1="8.62656319%" y1="74.4178646%" x2="110.319016%" y2="30.1155943%" id="linearGradient-1">
            <stop stop-color="#596B8D" offset="0%"></stop>
            <stop stop-color="#A5B0C4" offset="100%"></stop>
        </linearGradient>
        <linearGradient x1="-2.09228209%" y1="49.4952904%" x2="97.9847722%" y2="49.4952904%" id="linearGradient-2">
            <stop stop-color="#6E809F" offset="0%"></stop>
            <stop stop-color="#BBC3D2" offset="100%"></stop>
        </linearGradient>
        <linearGradient x1="59.2765911%" y1="28.2207676%" x2="40.1284214%" y2="78.5322816%" id="linearGradient-3">
            <stop stop-color="#BDC5D4" offset="0%"></stop>
            <stop stop-color="#7B8AA4" offset="100%"></stop>
        </linearGradient>
        <linearGradient x1="50.0856923%" y1="0.0814950119%" x2="50.0856923%" y2="78.5558522%" id="linearGradient-4">
            <stop stop-color="#6D7F9F" offset="0%"></stop>
            <stop stop-color="#8F9FB9" offset="100%"></stop>
        </linearGradient>
        <linearGradient x1="50.0856923%" y1="8.25795199%" x2="50.0856923%" y2="90.9705927%" id="linearGradient-5">
            <stop stop-color="#BDC5D4" offset="0%"></stop>
            <stop stop-color="#566889" offset="100%"></stop>
        </linearGradient>
        <linearGradient x1="50.0856923%" y1="0.0814950119%" x2="50.0856923%" y2="78.5558522%" id="linearGradient-6">
            <stop stop-color="#6D80A3" offset="0%"></stop>
            <stop stop-color="#8292AD" offset="100%"></stop>
        </linearGradient>
        <linearGradient x1="-2.4403633%" y1="51.284853%" x2="144.470213%" y2="43.5839202%" id="linearGradient-7">
            <stop stop-color="#5C6D8B" offset="0%"></stop>
            <stop stop-color="#DBDFE8" offset="100%"></stop>
        </linearGradient>
        <linearGradient x1="0.18690157%" y1="69.6809475%" x2="94.5300651%" y2="7.2925761%" id="linearGradient-8">
            <stop stop-color="#4C5E7D" offset="0%"></stop>
            <stop stop-color="#798AA9" offset="100%"></stop>
        </linearGradient>
        <linearGradient x1="71.9363148%" y1="-2.98119422%" x2="-20.946092%" y2="163.435867%" id="linearGradient-9">
            <stop stop-color="#8493AD" offset="0%"></stop>
            <stop stop-color="#ACB5C6" offset="100%"></stop>
        </linearGradient>
    </defs>
    <g id="页面-1" stroke="none" stroke-width="1" fill="none" fill-rule="evenodd" opacity="0.49767">
        <g id="1-1标准地址管理-暂无数据" transform="translate(-893.000000, -568.000000)">
            <g id="组_16988" transform="translate(893.000000, 568.000000)">
                <polygon id="矩形" fill="url(#linearGradient-1)" fill-rule="nonzero" points="12.4359403 53.2179701 64.4810049 43.9315954 64.4810049 96.7489973 12.4359403 96.7489973"></polygon>
                <polygon id="矩形-2" fill="url(#linearGradient-2)" fill-rule="nonzero" points="64.4810049 43.9315954 127.406863 52.4403966 127.406863 100.634247 64.4810049 100.634247"></polygon>
                <polygon id="矩形-3" fill="url(#linearGradient-3)" fill-rule="nonzero" points="12.4359403 53.2074978 73.0264594 65.923574 73.0264594 141 12.4359403 124.804479"></polygon>
                <polygon id="矩形-4" fill="url(#linearGradient-4)" points="12.4359403 66.0623329 73.0264594 66.0623329 66.9341578 99.7833668 12.4359403 85.8577317"></polygon>
                <path d="M64.7506684,70.5523619 L62.8865865,70.1125223 C63.0017825,69.6150847 63.1483957,69.0652852 63.326426,68.4552696 L65.1590909,68.9945967 C64.9993873,69.5653409 64.8580102,70.0889594 64.7506684,70.5523619 Z M66.0387701,66.318906 L64.2349042,65.6774733 C64.6564171,64.4914773 65.1276738,63.2714461 65.6329657,62.0566511 L67.4001783,62.7949532 C66.9053587,63.9783311 66.4524287,65.1512366 66.0387701,66.3162879 L66.0387701,66.318906 Z M68.5469029,60.2056595 L66.8111074,59.3940508 C67.3844697,58.1687834 67.9735406,57.0011141 68.5678476,55.9198418 L70.246045,56.8440285 C69.6726827,57.8912656 69.0993204,59.0170455 68.5469029,60.2030414 L68.5469029,60.2056595 Z M77.448418,56.3047014 L77.4248552,54.3908757 C78.5120124,54.3615763 79.56538,54.0068057 80.4487522,53.3724376 L81.5771502,54.9223485 C80.3735965,55.7885997 78.9361394,56.2704901 77.4536542,56.3047014 L77.448418,56.3047014 Z M74.1784202,55.3386252 C73.4375086,54.8143906 72.8296021,54.1239953 72.4033534,53.3226939 C72.1572527,53.6717729 71.9102793,54.0400512 71.6624332,54.427529 L70.0496881,53.3933824 C70.7551187,52.2727626 71.5427076,51.2060172 72.4059715,50.2019274 L73.5081885,51.1653855 L73.5657865,51.1470588 L73.5919675,51.2439283 L73.8537767,51.4664661 L73.7281083,51.6130793 C74.0105086,52.4752216 74.5516968,53.2294112 75.2780192,53.7730058 L74.1784202,55.3386252 Z M83.4778855,51.9560495 L81.5850045,51.6680593 C81.7559515,50.7013283 81.4531796,49.7112347 80.7707776,49.005459 L82.079824,47.594307 C83.2330092,48.7313945 83.760461,50.358681 83.493594,51.9560495 L83.4778855,51.9560495 Z M75.7937834,49.6678365 L74.6968026,48.0969808 C74.8722148,47.9713124 75.0502451,47.8561163 75.2204211,47.7540107 C76.2683511,47.0961393 77.4482116,46.6769312 78.6763035,46.5261252 L78.8490976,48.4320967 C77.9033914,48.5594856 76.9966739,48.8909065 76.1917335,49.4034091 C76.0608289,49.4819519 75.9299242,49.570967 75.7885472,49.6652184 L75.7937834,49.6678365 Z M73.2018717,48.6075089 L71.2854278,48.5708556 C71.3386334,47.1619708 71.6752127,45.7782558 72.2750668,44.5023396 L74.0213347,45.2877674 C73.5283978,46.3291512 73.2497285,47.4589638 73.2018717,48.610127 L73.2018717,48.6075089 Z M75.3513258,42.934102 L73.7647616,41.860684 C74.5106658,40.7693693 75.3312173,39.7309955 76.2205325,38.753008 L77.6421569,40.0332553 C76.8136719,40.9462349 76.0482925,41.9145492 75.3513258,42.931484 L75.3513258,42.934102 Z M79.5926359,38.017324 L78.2600267,36.6428253 C79.1344697,35.7971814 80.1057821,34.9201203 81.1399287,34.0247326 L82.3835227,35.4830102 C81.3703209,36.3417447 80.4278075,37.1900067 79.5847816,38.0094697 L79.5926359,38.017324 Z M84.5853387,33.697471 L83.4019608,32.1920677 C84.368037,31.4302028 85.4048017,30.644775 86.486074,29.8593471 L87.6118538,31.4066399 C86.5462901,32.1789773 85.5173797,32.9486965 84.5853387,33.6948529 L84.5853387,33.697471 Z M89.931484,29.7572415 L88.8423574,28.1863859 C89.8581774,27.482119 90.9368316,26.7569073 92.0390486,26.0316956 L93.0862857,27.6339684 C91.9893048,28.3487077 90.9263592,29.063447 89.9236297,29.7598596 L89.931484,29.7572415 Z" id="路径-19" fill="#FFFFFF" fill-rule="nonzero" opacity="0.350539435"></path>
                <polygon id="矩形-5" fill="url(#linearGradient-5)" fill-rule="nonzero" points="73.0264594 65.9890263 127.409481 52.4299242 127.409481 123.058211 73.0264594 140.994764"></polygon>
                <polygon id="矩形-6" fill="url(#linearGradient-6)" points="73.0264594 66.0623329 127.409481 66.0623329 127.409481 85.3262589 78.0715241 103.328264"></polygon>
                <polygon id="矩形-7" fill="#DFE4ED" fill-rule="nonzero" points="12.4359403 53.2074978 73.0343137 65.9864082 60.9910873 93.6387032 0 77.9170566"></polygon>
                <polygon id="矩形-8" fill="#CDD4E2" fill-rule="nonzero" points="73.0264594 65.9890263 127.409481 52.4299242 139.02334 76.8331662 87.1851047 93.6413213"></polygon>
                <g id="飞机" transform="translate(84.679590, 0.000000)" fill-rule="nonzero">
                    <polygon id="路径-16备份" fill="url(#linearGradient-7)" points="45.8323307 0 0 8.68421346 11.6531306 16.4180593"></polygon>
                    <polygon id="路径-16备份-2" fill="url(#linearGradient-8)" points="45.8323307 0 11.6531306 16.4180593 11.6531306 29.5085227"></polygon>
                    <polygon id="路径-16备份-2-2" fill="#5C6D8B" points="45.8323307 0 11.6531306 16.4180593 18.4104278 23.696357"></polygon>
                    <polygon id="路径-16备份-2-3" fill="url(#linearGradient-9)" points="45.8323307 0 16.5620544 19.7247103 30.6264483 28.7466578"></polygon>
                </g>
            </g>
        </g>
    </g>
</svg>