<?xml version="1.0" encoding="UTF-8"?>
<svg width="193px" height="160px" viewBox="0 0 193 160" version="1.1" xmlns="http://www.w3.org/2000/svg" xmlns:xlink="http://www.w3.org/1999/xlink">
    <title>编组</title>
    <defs>
        <linearGradient x1="10.2398303%" y1="50.0935363%" x2="106.907641%" y2="51.162863%" id="linearGradient-1">
            <stop stop-color="#657899" offset="0%"></stop>
            <stop stop-color="#9BA6BD" offset="100%"></stop>
        </linearGradient>
        <linearGradient x1="100%" y1="84.1605489%" x2="11.7591795%" y2="8.20603526%" id="linearGradient-2">
            <stop stop-color="#808FAB" offset="0%"></stop>
            <stop stop-color="#5C6D8B" offset="100%"></stop>
        </linearGradient>
        <linearGradient x1="59.5921993%" y1="41.4887307%" x2="36.6067359%" y2="61.8833131%" id="linearGradient-3">
            <stop stop-color="#BBC4D3" offset="0%"></stop>
            <stop stop-color="#798AA9" offset="65.9273%"></stop>
            <stop stop-color="#9FABC0" offset="100%"></stop>
        </linearGradient>
        <linearGradient x1="61.967444%" y1="39.6361874%" x2="33.2903131%" y2="64.4706181%" id="linearGradient-4">
            <stop stop-color="#BDC5D4" offset="0%"></stop>
            <stop stop-color="#798AA9" offset="65.1223776%"></stop>
            <stop stop-color="#B2BCD0" offset="100%"></stop>
        </linearGradient>
        <linearGradient x1="74.3497661%" y1="9.65095804%" x2="23.2019631%" y2="95.0229158%" id="linearGradient-5">
            <stop stop-color="#DFE4ED" offset="0%"></stop>
            <stop stop-color="#AFB9CA" offset="100%"></stop>
        </linearGradient>
    </defs>
    <g id="页面-1" stroke="none" stroke-width="1" fill="none" fill-rule="evenodd" opacity="0.5">
        <g id="1-1标准地址管理-搜索无结果" transform="translate(-897.000000, -569.000000)">
            <g id="编组" transform="translate(897.000000, 569.000000)">
                <path d="M138.566027,46.6028689 C138.65395,47.5676477 138.698658,48.5434543 138.698658,49.5285004 C138.698658,69.1641492 120.899576,84.1079387 98.9433313,84.1079387 C76.9870868,84.1079387 59.188005,69.1641492 59.188005,49.5285004 C59.188005,48.5434543 59.232712,47.5676477 59.320636,46.6028689 C60.9843355,64.7816629 78.0886693,78.2635308 98.9433313,78.2635308 C119.582207,78.2635308 136.547651,65.0594429 138.509398,47.1658801 L138.566027,46.6028689 Z" id="路径" fill="url(#linearGradient-1)"></path>
                <path d="M98.9433313,78.2629347 C120.899576,78.2629347 138.698658,63.3191452 138.698658,43.6834964 C138.698658,24.0478475 120.899576,9.10405805 98.9433313,9.10405805 C76.9870868,9.10405805 59.188005,24.0478475 59.188005,43.6834964 C59.188005,63.3191452 76.9870868,78.2629347 98.9433313,78.2629347 Z" id="路径" fill="url(#linearGradient-2)" fill-rule="nonzero"></path>
                <path d="M124.370336,75.3349188 C123.141785,73.5800168 120.723132,73.1538092 118.968528,74.3823599 C117.213924,75.6109105 116.787418,78.0295637 118.015969,79.7841677 L130.886542,98.1650377 C132.115093,99.9196417 134.533746,100.346147 136.28835,99.1175966 C138.042954,97.889046 138.469459,95.4703928 137.240909,93.7157888 L124.370336,75.3349188 Z" id="路径" fill="url(#linearGradient-3)" fill-rule="nonzero"></path>
                <path d="M128.610355,88.5673212 C131.680838,86.4172085 135.913406,87.1635188 138.063519,90.2342993 L154.85997,114.222332 C157.010083,117.293112 156.263772,121.525383 153.19329,123.675495 C150.122509,125.825608 145.890239,125.079298 143.740126,122.008517 L126.943377,98.0204848 C124.793265,94.9497043 125.539575,90.7174338 128.610355,88.5673212 Z" id="路径" fill="url(#linearGradient-4)" fill-rule="nonzero"></path>
                <path d="M98.9427352,70.4707882 C115.008076,70.4707882 128.031846,58.6961348 128.031846,44.1711016 C128.031846,29.6460685 115.008076,17.871117 98.9427352,17.871117 C82.8770959,17.871117 69.8533266,29.6460685 69.8533266,44.1711016 C69.8533266,58.6961348 82.8770959,70.4707882 98.9427352,70.4707882 Z" id="路径" fill="#3FC7B2" fill-rule="nonzero"></path>
                <path d="M98.9427352,70.4707882 C115.008076,70.4707882 128.031846,58.6961348 128.031846,44.1711016 C128.031846,29.6460685 115.008076,17.871117 98.9427352,17.871117 C82.8770959,17.871117 69.8533266,29.6460685 69.8533266,44.1711016 C69.8533266,58.6961348 82.8770959,70.4707882 98.9427352,70.4707882 Z" id="路径" fill="url(#linearGradient-5)" fill-rule="nonzero"></path>
                <path d="M86.5982155,44.6819545 L101.832899,37.867999 C102.718695,37.4718943 103.756496,37.8718736 104.150812,38.7615446 C104.545129,39.6515136 104.14664,40.6937847 103.261141,41.0898895 L88.0261597,47.903845 C87.1406614,48.2999497 86.102861,47.8999704 85.7085445,47.0100014 C85.3142281,46.1203304 85.7124191,45.0780593 86.5982155,44.6819545 Z" id="路径" fill-opacity="0.550159" fill="#FFFFFF"></path>
                <path d="M90.3744737,52.4827444 L111.222281,43.1583372 C112.107779,42.7622324 113.145579,43.1622118 113.539896,44.0518827 C113.934212,44.9418517 113.536021,45.9841228 112.650225,46.3802276 L91.802716,55.7046348 C90.9169197,56.1007396 89.8791193,55.7004622 89.4848028,54.8107912 C89.0904863,53.9211203 89.4889754,52.8788491 90.3744737,52.4827444 Z" id="路径" fill-opacity="0.550159" fill="#FFFFFF"></path>
                <path d="M98.9427352,17.871117 C115.008076,17.871117 128.031846,29.6460685 128.031846,44.1711016 C128.031846,45.1588301 127.97164,46.1340406 127.85421,47.0934546 C126.246543,33.9433133 113.915733,23.7155249 98.9427352,23.7155249 C83.969737,23.7155249 71.6389275,33.9433133 70.0309628,47.0928585 C69.9135322,46.1340406 69.8533266,45.1588301 69.8533266,44.1711016 C69.8533266,29.6460685 82.8770959,17.871117 98.9427352,17.871117 Z" id="路径" fill="#5C6D8B"></path>
                <path d="M37.93295,54.4696236 C37.1628308,56.4885334 36.3590632,58.3241834 35.5220742,59.9763819 L36.8808015,60.6647011 C37.7427401,58.9632528 38.567684,57.0792401 39.3560587,55.0124727 L37.93295,54.4696236 Z M32.4181322,65.0621646 C31.102712,66.8138767 29.723612,68.1799338 28.2835402,69.1638071 L29.1427708,70.4214423 C30.7285749,69.338003 32.2254466,67.8552881 33.6360896,65.9767701 L32.4181322,65.0621646 Z M22.9917643,71.0598538 C21.4384601,71.1620139 19.8082334,70.909668 18.0968396,70.2975668 L17.7153677,70.1576918 C17.5923749,70.1115446 17.472984,70.0656686 17.355507,70.0194444 L16.7978124,71.4368011 L17.179612,71.5834848 C17.3099214,71.6323803 17.4438665,71.6814954 17.5832252,71.7314856 C19.4849582,72.4116644 21.3223177,72.6960728 23.0917239,72.5796996 L22.9917643,71.0598538 Z M13.0857554,66.9361419 C12.7780471,65.852453 14.0719826,64.5682984 16.4056354,63.7536375 L15.9036315,62.3156126 C12.9027652,63.3631928 11.0187941,65.2329229 11.6205471,67.3521807 L13.0857554,66.9361419 Z M21.9364295,63.403274 C22.0511629,63.4426585 22.1598166,63.4859302 22.2621087,63.5329407 C23.4233809,64.0696339 23.9970822,65.6004828 23.7421714,67.7176691 L25.2543796,67.89974 C25.5801147,65.1943149 24.7615837,63.010169 22.8996192,62.1496472 C22.748831,62.0803472 22.59297,62.0182751 22.4309494,61.9626583 L21.9364295,63.403274 Z M21.6553393,73.0892667 C20.6342456,74.6613059 19.3019885,76.1173621 17.7059227,77.3638071 L18.6434034,78.5642459 C20.3728774,77.213616 21.8198688,75.632164 22.9326691,73.9189365 L21.6553393,73.0892667 Z M12.6263856,80.2254887 C11.6973521,80.5851511 10.7253969,80.8868095 9.71215631,81.1273638 L10.0639845,82.6093019 C11.1444213,82.3527944 12.1825551,82.0305967 13.176275,81.6458918 L12.6263856,80.2254887 Z" id="路径" fill="#A4AFBE" fill-rule="nonzero" opacity="0.497791109"></path>
                <path d="M191.54619,0 C190.786165,1.99241119 189.999763,3.84256315 189.187179,5.55035973 L190.562556,6.20477582 C191.393068,4.45930148 192.195249,2.57202665 192.969296,0.54285746 L191.54619,0 Z M186.315951,10.8205727 C185.162207,12.6521896 183.964262,14.2321443 182.723257,15.5608305 L183.836373,16.6004917 C185.145974,15.1983638 186.401708,13.5421907 187.604713,11.6323699 L186.315951,10.8205727 Z M178.159968,19.2112703 C176.407809,20.1749772 174.581552,20.7130408 172.673889,20.8292407 L172.766495,22.3495524 C174.90155,22.2195014 176.946492,21.617008 178.894004,20.5458542 L178.159968,19.2112703 Z M166.955644,20.0030526 C166.815913,19.9564794 166.675763,19.9079867 166.535196,19.8575735 C164.39962,19.0914613 162.798713,18.2834752 161.717875,17.4579147 L160.79333,18.6683444 C162.013368,19.6002284 163.749143,20.4762824 166.020945,21.2912645 C166.172353,21.3455655 166.323359,21.3978146 166.474025,21.4480324 L166.955644,20.0030526 Z M160.92052,13.3887535 C161.944488,12.3228449 163.824806,11.3986349 165.944747,10.9061306 L165.600073,9.42251231 C163.215805,9.97642515 161.076258,11.0280507 159.822112,12.3335649 L160.92052,13.3887535 Z M171.514947,10.9194696 C171.648173,10.9666892 171.775155,11.0181129 171.895627,11.0736252 C173.156925,11.6565101 173.888714,13.0982163 173.921313,15.1441732 L175.444249,15.1199081 C175.403131,12.5392428 174.393435,10.5500308 172.533818,9.69064472 C172.369858,9.61509321 172.199984,9.54629903 172.023779,9.48384625 L171.514947,10.9194696 Z M172.605156,20.7402247 C171.835961,22.4384411 170.759672,24.1085286 169.416802,25.650895 L170.565544,26.651053 C172.005078,24.9976614 173.161974,23.2024954 173.992599,21.3686573 L172.605156,20.7402247 Z M165.024619,29.5438079 C163.435212,30.6307543 161.682879,31.5505962 159.780953,32.2803451 L160.326577,33.702392 C162.33943,32.9300818 164.197184,31.9549018 165.884413,30.8010578 L165.024619,29.5438079 Z" id="路径" fill="#A4AFBE" fill-rule="nonzero" opacity="0.495721726"></path>
                <path d="M0,107.363967 C2.13342199,107.338335 4.22899199,106.699918 6.28641194,105.448716 C9.37239284,103.571912 11.6208611,109.582631 6.28641194,109.582631 C2.72981448,109.582631 0.634542528,108.843175 0,107.363967 Z" id="路径" fill="#D7DBE1" opacity="0.7"></path>
                <path d="M134.243375,143.847956 C136.496016,143.30849 138.213364,142.572314 139.395718,141.639724" id="路径" stroke="#D7DBE1" stroke-width="3.56036" stroke-linecap="round"></path>
                <path d="M117.314293,144.642252 C121.282196,144.591584 125.179163,143.337699 129.005792,140.8803 C134.745287,137.194052 138.927485,149 129.005792,149 C122.39123,149 118.493964,147.547318 117.314293,144.642252 Z" id="路径" fill="#D7DBE1"></path>
            </g>
        </g>
    </g>
</svg>