<?xml version="1.0" encoding="UTF-8"?>
<svg width="22px" height="22px" viewBox="0 0 22 22" version="1.1" xmlns="http://www.w3.org/2000/svg" xmlns:xlink="http://www.w3.org/1999/xlink">
    <title>删除默认</title>
    <g id="页面-1" stroke="none" stroke-width="1" fill="none" fill-rule="evenodd" fill-opacity="0.7">
        <g id="现场管理-方案管理" transform="translate(-699, -203)" fill="#8CD5FF">
            <g id="编组-24" transform="translate(366, 80)">
                <g id="编组-15" transform="translate(333, 123)">
                    <g id="删除默认" transform="translate(3.4375, 3.4375)">
                        <path d="M9.83125,0 C10.2489143,0 10.5875,0.338584469 10.5875,0.75625 L10.5871219,1.51212187 L14.6402437,1.5125 C14.8087615,1.5125 14.8698917,1.530045 14.931526,1.5630049 C14.9931604,1.59596479 15.0415604,1.64431437 15.0744573,1.70593615 C15.1074802,1.76755792 15.125,1.82868812 15.125,1.99723104 L15.125,2.54026896 C15.125,2.70882448 15.1074802,2.76994208 15.0744573,2.83156385 C15.0415604,2.89318563 14.9931604,2.94153521 14.931526,2.9744951 C14.8698917,3.007455 14.8087615,3.025 14.6402437,3.025 L13.6121219,3.02462188 L13.6125,14.36875 C13.6125,14.7864521 13.2739521,15.125 12.85625,15.125 L2.26875,15.125 C1.85108573,15.125 1.5125,14.7864521 1.5125,14.36875 L1.51212187,3.02462188 L0.484734823,3.025 C0.316181823,3.025 0.255060437,3.007455 0.193439927,2.9744951 C0.131819417,2.94153521 0.08345975,2.89318563 0.0505047698,2.83156385 C0.0175499156,2.76994208 -8.8817842e-16,2.70882448 -8.8817842e-16,2.54026896 L-8.8817842e-16,1.99723104 C-8.8817842e-16,1.82868812 0.0175499156,1.76755792 0.0505047698,1.70593615 C0.08345975,1.64431437 0.131819417,1.59596479 0.193439927,1.5630049 C0.255060437,1.530045 0.316181823,1.5125 0.484734823,1.5125 L4.53712187,1.51212187 L4.5375,0.75625 C4.5375,0.338584469 4.87608573,0 5.29375,0 L9.83125,0 Z M12.0996219,3.02462188 L3.02462187,3.02462188 L3.025,13.6125 L12.1,13.6125 L12.0996219,3.02462188 Z M6.428125,5.29375 C6.63696344,5.29375 6.80625,5.46303656 6.80625,5.671875 L6.80625,10.965625 C6.80625,11.1744634 6.63696344,11.34375 6.428125,11.34375 L5.671875,11.34375 C5.46303656,11.34375 5.29375,11.1744634 5.29375,10.965625 L5.29375,5.671875 C5.29375,5.46303656 5.46303656,5.29375 5.671875,5.29375 L6.428125,5.29375 Z M9.453125,5.29375 C9.66196344,5.29375 9.83125,5.46303656 9.83125,5.671875 L9.83125,10.965625 C9.83125,11.1744634 9.66196344,11.34375 9.453125,11.34375 L8.696875,11.34375 C8.48803656,11.34375 8.31875,11.1744634 8.31875,10.965625 L8.31875,5.671875 C8.31875,5.46303656 8.48803656,5.29375 8.696875,5.29375 L9.453125,5.29375 Z" id="形状"></path>
                    </g>
                </g>
            </g>
        </g>
    </g>
</svg>