<?xml version="1.0" encoding="UTF-8"?>
<svg width="22px" height="22px" viewBox="0 0 22 22" version="1.1" xmlns="http://www.w3.org/2000/svg" xmlns:xlink="http://www.w3.org/1999/xlink">
    <title>删除默认备份</title>
    <g id="页面-1" stroke="none" stroke-width="1" fill="none" fill-rule="evenodd">
        <g id="现场管理-方案管理" transform="translate(-699, -172)" fill="#8CD5FF">
            <g id="编组-24" transform="translate(366, 80)">
                <g id="编组-15" transform="translate(333, 92)">
                    <g id="删除默认备份" transform="translate(4.7266, 4.7266)">
                        <path d="M8.15546875,0 C8.50194025,0 8.7828125,0.280871207 8.7828125,0.62734375 L8.78249883,1.25437383 L12.1447477,1.2546875 C12.2845408,1.2546875 12.335251,1.26924188 12.3863796,1.29658361 C12.4375081,1.32392534 12.4776581,1.36403352 12.5049475,1.41515158 C12.5323415,1.46626964 12.546875,1.51697992 12.546875,1.65679393 L12.546875,2.10726857 C12.546875,2.24709303 12.5323415,2.29779286 12.5049475,2.34891092 C12.4776581,2.40002898 12.4375081,2.44013716 12.3863796,2.46747889 C12.335251,2.49482063 12.2845408,2.509375 12.1447477,2.509375 L11.2918738,2.50906133 L11.2921875,11.9195313 C11.2921875,12.2660341 11.0113466,12.546875 10.6648437,12.546875 L1.88203125,12.546875 C1.53555975,12.546875 1.2546875,12.2660341 1.2546875,11.9195313 L1.25437383,2.50906133 L0.402109569,2.509375 C0.262287194,2.509375 0.211584227,2.49482063 0.160467212,2.46747889 C0.109350198,2.44013716 0.0692336562,2.40002898 0.0418960022,2.34891092 C0.0145584527,2.29779286 -8.8817842e-16,2.24709303 -8.8817842e-16,2.10726857 L-8.8817842e-16,1.65679393 C-8.8817842e-16,1.51697992 0.0145584527,1.46626964 0.0418960022,1.41515158 C0.0692336562,1.36403352 0.109350198,1.32392534 0.160467212,1.29658361 C0.211584227,1.26924188 0.262287194,1.2546875 0.402109569,1.2546875 L3.76374883,1.25437383 L3.7640625,0.62734375 C3.7640625,0.280871207 4.04493475,0 4.39140625,0 L8.15546875,0 Z M10.0371863,2.50906133 L2.50906133,2.50906133 L2.509375,11.2921875 L10.0375,11.2921875 L10.0371863,2.50906133 Z M5.33242187,4.39140625 C5.50566285,4.39140625 5.64609375,4.53183715 5.64609375,4.70507812 L5.64609375,9.09648437 C5.64609375,9.26972535 5.50566285,9.41015625 5.33242187,9.41015625 L4.70507812,9.41015625 C4.53183715,9.41015625 4.39140625,9.26972535 4.39140625,9.09648437 L4.39140625,4.70507812 C4.39140625,4.53183715 4.53183715,4.39140625 4.70507812,4.39140625 L5.33242187,4.39140625 Z M7.84179688,4.39140625 C8.01503785,4.39140625 8.15546875,4.53183715 8.15546875,4.70507812 L8.15546875,9.09648437 C8.15546875,9.26972535 8.01503785,9.41015625 7.84179688,9.41015625 L7.21445312,9.41015625 C7.04121215,9.41015625 6.90078125,9.26972535 6.90078125,9.09648437 L6.90078125,4.70507812 C6.90078125,4.53183715 7.04121215,4.39140625 7.21445312,4.39140625 L7.84179688,4.39140625 Z" id="形状"></path>
                    </g>
                </g>
            </g>
        </g>
    </g>
</svg>