<?xml version="1.0" encoding="UTF-8"?>
<svg width="22px" height="22px" viewBox="0 0 22 22" version="1.1" xmlns="http://www.w3.org/2000/svg" xmlns:xlink="http://www.w3.org/1999/xlink">
    <title>icon-jiupian</title>
    <g id="页面-2" stroke="none" stroke-width="1" fill="none" fill-rule="evenodd">
        <g id="1-2设备关联/未关联" transform="translate(-388.000000, -418.000000)">
            <g id="编组-19" transform="translate(30.000000, 59.941656)">
                <g id="编组-47" transform="translate(31.000000, 350.058344)">
                    <g id="icon-jiupian" transform="translate(327.000000, 8.000000)">
                        <rect id="矩形" fill="#D8D8D8" opacity="0" x="0" y="0" width="22" height="22"></rect>
                        <path d="M16.5848113,13.6279363 C16.6820864,13.6957171 16.80839,13.680599 16.9297836,13.7329694 C17.2499595,13.8710576 17.5818659,14.1793496 17.7577007,14.4682219 C18.4151038,15.5483922 17.6052037,16.7618481 16.7917906,17.0591356 C16.2171997,17.2691392 14.618724,17.1292551 13.8595672,17.1291507 L7.40867584,17.1291507 C7.22503345,17.129128 7.04613555,17.1278095 6.87410304,17.1271306 L6.53982025,17.1271992 C5.62218256,17.1330597 4.97040245,17.2008915 4.97040245,17.6828613 C4.97040245,18.4525495 6.32398499,18.4393762 7.70311692,18.4100352 L8.06259683,18.4025184 C8.24175337,18.3990807 8.41937988,18.3965023 8.5925293,18.3964844 L18.8381159,18.3964844 C19.1209636,18.3964844 19.5090779,18.3440514 19.7350397,18.4315024 C19.9203863,18.5032297 19.9888589,18.6845632 20.1145051,18.8166376 L20.1145051,19.5869082 L7.10920187,19.5869082 C6.30727278,19.5869082 5.51499095,19.6157 4.97040245,19.3768211 C3.91778564,18.9151001 3.46850586,18.1662598 3.76947021,17.1291507 C3.92068443,16.6080737 5.02421308,15.9260729 6.511752,15.9387478 L16.4123252,15.9387478 C16.5367593,15.8176361 16.6859741,15.9387478 16.7917906,15.5886097 C16.8642693,14.5346872 15.9011121,14.7832168 14.8944636,14.7833421 L9.37498912,14.7833421 L9.37498912,14.7483241 C9.59217867,14.575009 9.89643305,14.1089795 10.0649131,13.8730205 L10.2029062,13.6279363 L16.5848113,13.6279363 Z M7.02512554,2.69567871 C9.74851927,2.69567871 11.9519845,5.01229199 11.9519845,7.86433761 C11.9519845,9.70990219 10.5075454,12.113658 7.65025699,15.1684372 L7.62939029,15.1899982 C7.28413839,15.5351251 6.73372174,15.525472 6.39999408,15.1687367 C3.54270572,12.1139574 2.0982666,9.70990219 2.0982666,7.86463706 C2.0982666,5.01229199 4.30173181,2.69567871 7.02512554,2.69567871 Z M7.10054674,4.05770256 C5.12987918,4.05770256 3.5285057,5.74132093 3.5285057,7.82242087 C3.5285057,9.15029323 4.71002697,11.151329 7.10054674,13.7454641 C9.49106652,11.151329 10.6725878,9.15029323 10.6725878,7.82270478 C10.6725878,5.74132093 9.07121431,4.05770256 7.10054674,4.05770256 Z M7.02512554,5.39080791 C8.30560978,5.39080791 9.34364735,6.4633861 9.34364735,7.78647832 C9.34364735,9.10957053 8.30560978,10.1821487 7.02512554,10.1821487 C6.19679745,10.1821487 5.43139073,9.72553654 5.01722669,8.98431353 C4.60306264,8.24309052 4.60306264,7.32986611 5.01722669,6.58864311 C5.43139073,5.8474201 6.19679745,5.39080791 7.02512554,5.39080791 Z M7.02512554,6.58864312 C6.38488341,6.58864312 5.86586461,7.1249322 5.86586461,7.78647832 C5.86586461,8.44802443 6.38488341,8.98431352 7.02512554,8.98431352 C7.43928958,8.98431352 7.82199295,8.75600743 8.02907498,8.38539593 C8.236157,8.01478442 8.236157,7.55817221 8.02907498,7.18756071 C7.82199295,6.8169492 7.43928958,6.58864312 7.02512554,6.58864312 Z" id="形状结合" fill="#38F0FD" fill-rule="nonzero"></path>
                    </g>
                </g>
            </g>
        </g>
    </g>
</svg>