<?xml version="1.0" encoding="UTF-8"?>
<svg width="18px" height="18px" viewBox="0 0 18 18" version="1.1" xmlns="http://www.w3.org/2000/svg" xmlns:xlink="http://www.w3.org/1999/xlink">
    <title>shujuziyuan</title>
    <g id="控件" stroke="none" stroke-width="1" fill="none" fill-rule="evenodd">
        <g id="数据资源" transform="translate(2.544763, 2.545211)">
            <path d="M0,8.83054785 C1.12640674,9.56580536 2.37319536,10.0327202 3.74036585,10.2312925 C4.11123477,11.1610917 4.77171284,11.9439273 5.6100844,12.4690564 L5.3073552,12.4719774 L5.3073552,12.4719774 C3.11881303,12.4719774 1.41583059,11.9549148 0.198407864,10.9207897 L0,10.7436479 L0,8.83054785 Z M0,5.82375421 C1.08851877,6.50448359 2.28945724,6.94512778 3.60281543,7.14568676 C3.47492574,7.57073693 3.40625736,8.02310828 3.40625736,8.491518 C3.40625736,8.75498738 3.42798264,9.01338255 3.46973949,9.2650098 C2.14432224,9.05324617 1.05407088,8.5942578 0.199193645,7.88831545 L0,7.71547698 L0,5.82375421 Z M4.04657675,6.12439666 L3.9707436,6.26070876 C2.40644961,6.10070131 1.14850792,5.6449187 0.196918536,4.89336094 L2.27373675e-13,4.72979947 L2.27373675e-13,2.88584807 C1.54317447,3.75871666 3.31229287,4.19515095 5.3073552,4.19515095 C5.59287043,4.19515095 5.85558323,4.21454324 6.09422339,4.24962753 C5.2370945,4.65442247 4.52288976,5.31127947 4.04657675,6.12439666 Z M5.3073552,0 C8.23852653,0 10.6147104,0.721669002 10.6147104,1.61189283 C10.6147104,2.50211666 8.23852653,3.22378566 5.3073552,3.22378566 C2.37618386,3.22378566 2.27373675e-13,2.50211666 2.27373675e-13,1.61189283 C2.27373675e-13,0.721669002 2.37618386,0 5.3073552,0 Z" id="形状结合" fill="#FFFFFF"></path>
            <path d="M8.58365787,4.25594498 C10.9732924,4.25594498 12.9104739,6.19312652 12.9104739,8.58276105 C12.9104739,10.9723956 10.9732924,12.9095771 8.58365787,12.9095771 C6.19402333,12.9095771 4.25684179,10.9723956 4.25684179,8.58276105 C4.25684179,6.19312652 6.19402333,4.25594498 8.58365787,4.25594498 Z M7.25499661,8.82733647 L6.39113082,8.82733647 L6.39113082,10.9947121 L7.25499661,10.9947121 L7.25499661,8.82733647 Z M8.88017547,7.41114408 L8.01630968,7.41114408 L8.01630968,10.9947121 L8.88017547,10.9947121 L8.88017547,7.41114408 Z M10.5053543,5.89662811 L9.64148855,5.89662811 L9.64148855,10.9947121 L10.5053543,10.9947121 L10.5053543,5.89662811 Z" id="形状结合" fill="#D9EDFF"></path>
        </g>
    </g>
</svg>