<?xml version="1.0" encoding="UTF-8"?>
<svg width="18px" height="18px" viewBox="0 0 18 18" version="1.1" xmlns="http://www.w3.org/2000/svg" xmlns:xlink="http://www.w3.org/1999/xlink">
    <title>地图服务</title>
    <g id="控件" stroke="none" stroke-width="1" fill="none" fill-rule="evenodd">
        <g id="地图服务" transform="translate(3.525419, 2.089391)">
            <path d="M3.73203576,7.12280574 C4.40984258,8.10586682 5.06273843,9.00600822 5.48211406,9.00600822 C5.90148969,9.00600822 6.55201271,8.10586682 7.22567747,7.12280574 L9.91332178,7.12256488 L10.949163,12.5479422 L0,12.5479422 L1.0420612,7.12256488 L3.73203576,7.12280574 Z M7.55284647,9.55036958 L3.41856524,9.55036958 C2.79091625,9.55036958 2.47709176,9.84090343 2.47709176,10.4219711 C2.47709176,11.0030388 2.79091625,11.2935727 3.41856524,11.2935727 L7.55284647,11.2935727 C8.17293269,11.2935727 8.4829758,11.0030388 8.4829758,10.4219711 C8.4829758,9.84090343 8.17293269,9.55036958 7.55284647,9.55036958 Z" id="形状结合" stroke="#FFFFFF" fill="#FFFFFF" stroke-linejoin="round"></path>
            <path d="M5.4757292,0 C6.72772661,0 7.558252,0.538534913 7.89651738,0.926597125 C8.23478276,1.31465934 8.49212134,1.8392986 8.60382509,2.46780163 C8.71552885,3.09630467 8.68599319,3.96815947 7.89651738,4.82010625 C7.37020017,5.38807077 6.55927213,6.33633084 5.46373326,7.66488647 C4.38561245,6.33633084 3.58059615,5.38807077 3.04868435,4.82010625 C2.25081667,3.96815947 2.25032836,3.09630467 2.33296024,2.46780163 C2.41559212,1.8392986 2.65386763,1.31465934 3.04868435,0.926597125 C3.44350108,0.538534913 4.22373179,0 5.4757292,0 Z M5.47458149,1.18779998 C4.48760497,1.18779998 3.68750241,1.98702268 3.68750241,2.97291383 C3.68750241,3.95880499 4.48760497,4.75802769 5.47458149,4.75802769 C6.46155802,4.75802769 7.26166058,3.95880499 7.26166058,2.97291383 C7.26166058,1.98702268 6.46155802,1.18779998 5.47458149,1.18779998 Z" id="形状结合" stroke="#D9EDFF" stroke-width="0.3" fill="#D9EDFF" stroke-linejoin="round"></path>
            <circle id="椭圆形" fill="#D9EDFF" cx="5.47458149" cy="3.04056038" r="1.07222526"></circle>
        </g>
    </g>
</svg>