<?xml version="1.0" encoding="UTF-8"?>
<svg width="18px" height="18px" viewBox="0 0 18 18" version="1.1" xmlns="http://www.w3.org/2000/svg" xmlns:xlink="http://www.w3.org/1999/xlink">
    <title>ditulianwang</title>
    <g id="控件" stroke="none" stroke-width="1" fill="none" fill-rule="evenodd">
        <g id="地图联网" transform="translate(2.742177, 1.375712)">
            <path d="M8.51596515,11.341365 C8.13834145,12.6514954 7.4368437,13.9528428 6.4114719,15.2454072 L6.25782343,15.2485757 L6.07018374,15.2440551 C5.05577898,13.9471869 4.36102123,12.6464087 3.98591047,11.3417203 L8.51596515,11.341365 Z M9.19867525,11.3412137 L12.0590153,11.3417612 C11.2493692,13.3376167 9.4396485,14.8209732 7.25157655,15.1701076 C8.19597371,13.8945583 8.84478708,12.6184602 9.19867525,11.3412137 Z M3.34262733,11.3411341 C3.6668891,12.5314187 4.24251713,13.7242149 5.06951141,14.9195229 L5.24428034,15.1669172 C3.06508976,14.8120198 1.26383546,13.3315964 0.456631536,11.3417612 L3.34262733,11.3411341 Z M3.1960832,7.36732601 C3.0846309,7.92424613 3.02890475,8.4821619 3.02890475,9.04107335 C3.02890475,9.60050421 3.08473452,10.1604929 3.19639407,10.7210395 L0.242263495,10.72096 C0.0845038636,10.1714598 0,9.5909745 0,8.99075232 C0,8.42922657 0.0739591378,7.8849749 0.212667577,7.36720714 L3.1960832,7.36732601 Z M8.67159954,7.36729567 C8.78799006,7.92345208 8.84618532,8.48137797 8.84618532,9.04107335 C8.84618532,9.60278202 8.78757064,10.1629011 8.67034127,10.7214307 L3.83173787,10.7215318 C3.71442044,10.1620965 3.65576172,9.6019437 3.65576172,9.04107335 C3.65576172,8.48054076 3.71434981,7.92264917 3.83152598,7.36739857 L5.32075286,7.36623294 C5.59341988,7.75700719 5.90003427,8.18941641 6.24059601,8.66346061 C6.57725198,8.18764917 6.88076265,7.75558657 7.15112802,7.3672728 L8.67159954,7.36729567 Z M12.3029793,7.36720714 C12.4416877,7.8849749 12.5156469,8.42922657 12.5156469,8.99075232 C12.5156469,9.5909745 12.431143,10.1714598 12.2733834,10.72096 L9.34728935,10.7211504 C9.46053295,10.1613452 9.51715475,9.60131951 9.51715475,9.04107335 C9.51715475,8.48282926 9.46093691,7.92480407 9.34850122,7.36699777 L12.3029793,7.36720714 Z M3.91230283,5.20410574 L3.86591243,5.30428679 C3.65030574,5.78361341 3.47638464,6.26362921 3.34410144,6.74438896 L0.415138697,6.74475562 C0.966908372,5.31031261 2.03172524,4.13045359 3.38481259,3.42995529 C3.43734294,3.97822632 3.60737043,4.61327476 3.91230283,5.20410574 Z M4.89121202,6.74391827 L3.98782743,6.74467529 C4.0745642,6.44671647 4.17829294,6.1495236 4.29901364,5.85309669 C4.46426049,6.10973359 4.66141063,6.40680325 4.89121202,6.74391827 Z M12.1005082,6.74475562 L9.19950588,6.74393284 C9.05412794,6.21855121 8.85884879,5.69336387 8.61366844,5.16837083 C8.91966632,4.59645484 9.08509397,3.96976275 9.12628936,3.42799028 C10.4813428,4.12759737 11.5480705,5.30857612 12.1005082,6.74475562 Z M8.51667359,6.74432413 L7.5828603,6.7434037 C7.82400962,6.39247063 8.02947613,6.08863567 8.19925984,5.83189883 C8.32351825,6.13552047 8.42886972,6.43965553 8.51667359,6.74432413 Z" id="形状结合" fill="#FFFFFF"></path>
            <path d="M6.2351339,0 C6.96898242,0 7.5581936,0.273653798 7.91646613,0.699771494 C8.27473866,1.12588919 8.49137747,1.61973127 8.5815403,2.23292487 C8.67170313,2.84611847 8.51482332,3.79561103 8.05301074,4.57294123 C7.72816893,5.11972009 7.12220998,6.06302653 6.2351339,7.40286055 C5.35936731,6.100135 4.75782586,5.15682856 4.43050955,4.57294123 C3.99160476,3.77592553 3.83229639,2.84611847 3.89569091,2.23292487 C3.95908543,1.61973127 4.16429806,1.12588919 4.57598835,0.699771494 C4.98767864,0.273653798 5.50128538,0 6.2351339,0 Z M6.24409777,1.15053697 C5.58865842,1.15053697 5.05731984,1.68187555 5.05731984,2.33731489 C5.05731984,2.99275424 5.58865842,3.52409282 6.24409777,3.52409282 C6.89953711,3.52409282 7.43087569,2.99275424 7.43087569,2.33731489 C7.43087569,1.68187555 6.89953711,1.15053697 6.24409777,1.15053697 Z" id="形状结合" stroke="#D9EDFF" stroke-width="0.3" fill="#D9EDFF" stroke-linejoin="round"></path>
        </g>
    </g>
</svg>