<?xml version="1.0" encoding="UTF-8"?>
<svg width="18px" height="18px" viewBox="0 0 18 18" version="1.1" xmlns="http://www.w3.org/2000/svg" xmlns:xlink="http://www.w3.org/1999/xlink">
    <title>运维管理</title>
    <g id="控件" stroke="none" stroke-width="1" fill="none" fill-rule="evenodd">
        <g id="编组" transform="translate(2.500000, 3.000000)">
            <path d="M5.43656321,1.29126714 C6.41507048,0.348112847 8.94129896,-0.416275051 9.63668614,0.253988133 C10.3320733,0.924251317 8.77024703,1.71393621 8.23631698,2.42856481 C7.70238692,3.1431934 7.93293274,3.69744409 8.269286,4.02164507 C8.60563925,4.34584605 9.19563996,4.58249595 9.89813824,4.0303453 C10.6006365,3.47819466 11.4562451,2.00780734 12.172776,2.69829843 C12.7468514,3.2517545 12.339063,4.91327313 11.6508497,6.03688473 C11.4266172,5.89179613 11.1418353,5.83264002 10.8203575,5.83264002 L10.8203575,5.83264002 L8.46654093,5.83264002 L8.32372203,5.83929066 C7.91868599,5.87900296 7.71656384,6.09483415 7.5048106,6.44022832 C7.26952922,6.82399963 6.36709322,8.23151714 6.23449589,8.49733165 C6.13223699,8.70232748 6.06037844,9.20665368 6.09366729,9.53924235 C5.5174862,10.2921113 4.77777736,11.1073783 3.91604315,11.5959135 C2.27237915,12.527741 1.09831389,11.6015439 0.751788942,11.2675387 C0.405263997,10.9335335 -0.569012955,9.78900693 0.456162842,8.26103691 C1.48133864,6.73306689 3.58709573,5.4858469 4.21145966,5.00542038 C3.90058503,3.46139363 4.74497211,1.9578714 5.43656321,1.29126714 Z M9.64498182,7.54899415 C9.69769061,7.54899415 9.74973898,7.55171964 9.80098349,7.55703238 C9.46332953,7.69997854 9.09105294,7.81724902 8.70177678,7.89040135 C8.95353926,7.67700534 9.28375088,7.54899415 9.64498182,7.54899415 Z" id="形状结合" stroke="#FFFFFF" stroke-width="0.5" fill="#FFFFFF"></path>
            <ellipse id="椭圆形" fill="#D9EDFF" cx="9.7916705" cy="9.18063311" rx="1" ry="1"></ellipse>
            <path d="M10.8679184,6.36126621 C11.3279499,6.36126621 11.5322345,6.56594026 11.7473924,6.9168878 C11.9625503,7.26783534 12.7878014,8.55496859 12.9090577,8.79804811 C13.0303141,9.04112764 13.0303141,9.40380312 12.9090577,9.62817839 C12.7878014,9.85255366 11.9625503,11.1785767 11.7473924,11.5081255 C11.5322345,11.8376743 11.3279499,12 10.8679184,12 L8.7154226,12 C8.25539108,12 8.05110646,11.8376743 7.83594858,11.5081255 C7.74988543,11.376306 7.56620736,11.0850506 7.36901601,10.7686391 L7.1704351,10.4488156 C6.94077025,10.0775097 6.73086954,9.73288685 6.67428325,9.62817839 C6.55302691,9.40380312 6.55302691,9.04112764 6.67428325,8.79804811 C6.79553959,8.55496859 7.6207907,7.26783534 7.83594858,6.9168878 C8.02720003,6.60493443 8.20986026,6.40855518 8.57118513,6.36876662 L8.7154226,6.36126621 L10.8679184,6.36126621 Z M9.79307204,7.93082144 C9.06470683,7.93082144 8.47425017,8.4999452 8.47425017,9.20199493 C8.47425017,9.90404466 9.06470683,10.4731684 9.79307204,10.4731684 C10.5214372,10.4731684 11.1118939,9.90404466 11.1118939,9.20199493 C11.1118939,8.4999452 10.5214372,7.93082144 9.79307204,7.93082144 Z" id="形状结合" fill="#D9EDFF"></path>
        </g>
    </g>
</svg>