<?xml version="1.0" encoding="UTF-8"?>
<svg width="18px" height="18px" viewBox="0 0 18 18" version="1.1" xmlns="http://www.w3.org/2000/svg" xmlns:xlink="http://www.w3.org/1999/xlink">
    <title>shujuzonglan</title>
    <g id="控件" stroke="none" stroke-width="1" fill="none" fill-rule="evenodd">
        <g id="数据总览" transform="translate(1.491379, 1.680309)">
            <path d="M6.53314338,0.932805664 L6.53402986,2.41844236 C6.53339038,3.01039084 6.53194881,3.64275759 6.53052487,4.2674497 C6.52953195,4.70305367 6.528549,5.13493264 6.52785195,5.54683893 L6.5270553,6.14768791 C6.52645652,6.8264634 6.52715582,7.41919333 6.53063197,7.83880037 C7.50212941,8.33465835 8.21224086,8.32945276 9.01362527,8.32357011 C9.97506609,8.31651254 11.0682583,8.30848438 12.0364332,8.30738234 L12.0364332,8.30738234 L12.6789057,8.30780673 C13.121871,8.30902894 13.5199031,8.3123115 13.8415596,8.31892289 C13.7242667,9.939725 13.0213187,11.3581708 11.9407683,12.4033327 C10.72759,13.576779 9.04142019,14.2791501 7.17934746,14.2791501 C5.33489659,14.2791501 3.66505973,13.5315387 2.45633558,12.3228145 C1.24761143,11.1140904 0.5,9.44425349 0.5,7.59980262 C0.5,5.74372792 1.21950124,4.06177681 2.40645209,2.84869334 C3.46940923,1.7623335 4.90699337,1.05344618 6.53314338,0.932805664 L6.53314338,0.932805664 Z" id="椭圆形" stroke="#FFFFFF" fill="#FFFFFF"></path>
            <path d="M8.44224581,0.51943629 C10.0129153,0.641286869 11.4249151,1.32887727 12.4747102,2.3786724 C13.5251853,3.42914742 14.2129862,4.84229649 14.3341824,6.41418877 L14.3341824,6.41418877 L8.45162553,6.41418877 L8.45104242,3.54671031 C8.44818719,1.93517463 8.44569275,1.17509504 8.44224581,0.51943629 Z" id="椭圆形" stroke="#D9EDFF" fill="#D9EDFF"></path>
        </g>
    </g>
</svg>