<?xml version="1.0" encoding="UTF-8"?>
<svg width="18px" height="18px" viewBox="0 0 18 18" version="1.1" xmlns="http://www.w3.org/2000/svg" xmlns:xlink="http://www.w3.org/1999/xlink">
    <title>fuwuziyuan</title>
    <g id="控件" stroke="none" stroke-width="1" fill="none" fill-rule="evenodd">
        <g id="服务资源" transform="translate(2.500955, 2.946263)">
            <path d="M5.62986761,0 C3.05475262,0 1.47006402,0 0.875801786,0 C0.281539556,0 -0.0103018491,0.338156365 0.000277570463,1.01446909 L0.000277570463,2.20421982 C-0.0103018491,2.87023769 0.281539556,3.20324663 0.875801786,3.20324663 C1.76719513,3.20324663 9.12042383,3.20324663 10.1942024,3.20324663 C10.9100548,3.20324663 11.2809,2.87023769 11.3067381,2.20421982 L11.3067381,1.01446909 C11.2809,0.338156365 10.9100548,0 10.1942024,0 C9.47835002,0 7.95690509,0 5.62986761,0 Z" id="路径-34" fill="#FFFFFF"></path>
            <path d="M7.86973722,6.14018649 C7.86973722,6.66741285 8.07494246,7.14681754 8.41000857,7.50322375 L0.875801786,7.50196153 C0.281539556,7.50196153 -0.0103018491,7.16915722 0.000277570463,6.50354861 L0.000277570463,6.50354861 L0.000277570463,5.31452897 C-0.0103018491,4.63863182 0.281539556,4.30068325 0.875801786,4.30068325 L0.875801786,4.30068325 L9.10197684,4.29884757 C8.37853868,4.59838082 7.86973722,5.30999732 7.86973722,6.14018649 Z" id="形状结合" fill="#FFFFFF"></path>
            <path d="M6.08509506,11.8014176 L0.875801786,11.8029041 C0.281539556,11.8029041 -0.0103018491,11.4698682 0.000277570463,10.8037965 L0.000277570463,10.8037965 L0.000277570463,9.61394958 C-0.0103018491,8.93758216 0.281539556,8.59939846 0.875801786,8.59939846 L0.875801786,8.59939846 L7.89956574,8.59841704 C6.91803798,9.15216749 6.31321443,10.2198344 6.08509506,11.8014176 Z" id="形状结合" fill="#FFFFFF"></path>
            <g id="编组" transform="translate(7.175760, 4.510354)" fill="#D9EDFF">
                <circle id="椭圆形" cx="3.0222037" cy="1.67428882" r="1.67428882"></circle>
                <path d="M0,7.63802837 L6.0444074,7.63802837 C5.78973518,5.48662619 4.78233395,4.4109251 3.0222037,4.4109251 C1.26207344,4.4109251 0.254672212,5.48662619 0,7.63802837 Z" id="路径-33" stroke="#D9EDFF" stroke-linejoin="round"></path>
            </g>
        </g>
    </g>
</svg>