<?xml version="1.0" encoding="UTF-8"?>
<svg width="18px" height="18px" viewBox="0 0 18 18" version="1.1" xmlns="http://www.w3.org/2000/svg" xmlns:xlink="http://www.w3.org/1999/xlink">
    <title>系统配置</title>
    <g id="控件" stroke="none" stroke-width="1" fill="none" fill-rule="evenodd">
        <g id="编组-2" transform="translate(2.469572, 3.241486)">
            <path d="M8.80989335,9.15340943 L10.0916077,11.7670283 L2.94722056,11.7670283 L4.23941108,9.15340943 L8.80989335,9.15340943 Z" id="矩形" stroke="#D9EDFF" stroke-width="0.5" fill="#D9EDFF" stroke-linejoin="round"></path>
            <path d="M12.5077524,0 C12.8017604,0 13.0608555,0.312293163 13.0608555,0.522089934 L13.0608555,0.522089934 L13.0608555,9.0383914 C13.0608555,9.27608019 12.7683611,9.58636208 12.5077524,9.58636208 L12.5077524,9.58636208 L0.532520595,9.58636208 C0.303468965,9.58636208 0,9.27608019 0,9.0383914 L0,9.0383914 L0,0.522089934 C0,0.312293163 0.2329435,0 0.532520595,0 L0.532520595,0 Z M6.97809578,1.84787339 L6.06217719,1.84787339 L6.00253688,1.85670546 C5.88460397,1.8913336 5.77984534,2.02354512 5.77984534,2.17772701 L5.77984534,2.17772701 L5.77984534,2.78917248 L5.67719858,2.82904087 C5.58038003,2.86779035 5.50104613,2.90318313 5.43919687,2.93521919 C5.3567312,2.97793394 5.2408132,3.04332801 5.09144288,3.13140138 C4.85515658,2.99498141 4.68959304,2.89939326 4.59475227,2.84463692 C4.45249112,2.7625024 4.20254299,2.8839007 4.10301892,3.05628143 C4.00349486,3.22866217 3.83226064,3.52524854 3.72857162,3.70484319 C3.62488261,3.88443783 3.62282318,4.06516211 3.81846278,4.18920975 C3.94888919,4.27190817 4.11445272,4.36749632 4.3151534,4.47597421 C4.26630538,4.62523398 4.24188137,4.75251476 4.24188137,4.85781654 C4.24188137,4.96311832 4.25850877,5.1166626 4.29176358,5.31844938 C4.19452085,5.37459249 4.0897515,5.4350811 3.97745553,5.49991521 C3.80901157,5.59716638 3.60370745,5.86844454 3.72389632,6.07661777 C3.84408519,6.28479099 4.01635408,6.58316946 4.12031843,6.763241 C4.22428279,6.94331255 4.44565992,7.01330431 4.66480955,6.88677821 C4.8109093,6.80242748 4.94401658,6.72557796 5.06413138,6.65622965 C5.23198141,6.77753534 5.35700324,6.86252313 5.43919687,6.91119304 C5.5213905,6.95986294 5.63493999,7.00610382 5.77984534,7.04991567 L5.77984534,7.04991567 L5.77984534,7.59342752 L5.78815122,7.66118133 C5.82052676,7.79629438 5.94239686,7.92252105 6.06217719,7.92252105 L6.06217719,7.92252105 L6.97809578,7.92252105 C7.1178395,7.92252105 7.26042763,7.75071253 7.26042763,7.59342752 L7.26042763,7.59342752 L7.26042763,7.04991567 C7.40533298,7.00610382 7.51888246,6.95986294 7.6010761,6.91119304 C7.68326973,6.86252313 7.80829156,6.77753534 7.97614159,6.65622965 C8.09625639,6.72557796 8.22936367,6.80242748 8.37546342,6.88677821 C8.59461305,7.01330431 8.81599018,6.94331255 8.91995454,6.763241 C9.02391889,6.58316946 9.19618778,6.28479099 9.31637665,6.07661777 C9.43656552,5.86844454 9.2312614,5.59716638 9.06281744,5.49991521 C8.95052146,5.4350811 8.84575211,5.37459249 8.74850939,5.31844938 C8.7817642,5.1166626 8.7983916,4.96311832 8.7983916,4.85781654 C8.7983916,4.75251476 8.77396759,4.62523398 8.72511957,4.47597421 C8.92582024,4.36749632 9.09138378,4.27190817 9.22181018,4.18920975 C9.41744979,4.06516211 9.41539036,3.88443783 9.31170135,3.70484319 C9.20801233,3.52524854 9.03677811,3.22866217 8.93725404,3.05628143 C8.83772998,2.8839007 8.58778185,2.7625024 8.4455207,2.84463692 C8.35067993,2.89939326 8.18511639,2.99498141 7.94883008,3.13140138 C7.79945977,3.04332801 7.68354177,2.97793394 7.6010761,2.93521919 C7.51861042,2.89250444 7.40506093,2.8438222 7.26042763,2.78917248 L7.26042763,2.78917248 L7.26042763,2.17772701 C7.26042763,1.99784813 7.1178395,1.84787339 6.97809578,1.84787339 L6.97809578,1.84787339 Z" id="形状结合" fill="#FFFFFF"></path>
            <circle id="椭圆形" fill="#FFFFFF" cx="6.53042774" cy="4.94944098" r="1.25177756"></circle>
        </g>
    </g>
</svg>