<?xml version="1.0" encoding="UTF-8"?>
<svg width="18px" height="18px" viewBox="0 0 18 18" version="1.1" xmlns="http://www.w3.org/2000/svg" xmlns:xlink="http://www.w3.org/1999/xlink">
    <title>用户管理</title>
    <g id="控件" stroke="none" stroke-width="1" fill="none" fill-rule="evenodd">
        <g id="用户管理" transform="translate(2.386988, 2.710301)">
            <path d="M6.68105175,9.0883704e-05 C7.21735621,0.00322446855 7.54684132,0.0871269671 7.85108331,0.210899477 C8.46434067,0.460386425 9.04576468,1.16250774 9.20772012,1.73094189 C9.38185447,2.34212182 9.44322205,3.0079336 9.39182287,3.72837725 C9.56234885,3.8524152 9.64761185,4.09537232 9.64761185,4.45724861 C9.64761185,4.8191249 9.4804245,5.08706782 9.14604982,5.26107737 C9.03910475,5.69756706 8.92527046,5.99655041 8.80454695,6.15802743 C8.68382344,6.31950445 8.49380203,6.51312716 8.23448273,6.73889554 C8.15125947,7.46372476 8.28091912,7.95121848 8.62346168,8.2013767 C9.13727552,8.57661403 11.4953971,9.16677533 11.8825215,9.58286138 C12.1066148,9.82371969 12.2407196,10.1188626 12.2847168,10.5112579 C12.3167254,10.7967309 12.2847168,11.1346386 12.2847168,11.5358692 C12.2847168,12.1543889 10.4466704,12.5004491 6.77057774,12.5740499 C6.71911051,12.578608 6.66880702,12.5777684 6.61883421,12.5768798 L6.46988827,12.5793986 C2.79324671,12.5005026 0.954916151,12.1544367 0.954916151,11.5358692 C0.954916151,11.1346386 0.922907564,10.7967309 0.954916151,10.5112579 C0.998913375,10.1188626 1.13301813,9.82371969 1.35711148,9.58286138 C1.74423583,9.16677533 4.10235744,8.57661403 4.61617128,8.2013767 C4.95871384,7.95121848 5.08837348,7.46372476 5.00515022,6.73889554 C4.74583093,6.51312716 4.55580952,6.31950445 4.43508601,6.15802743 C4.31436249,5.99655041 4.2005282,5.69756706 4.09358313,5.26107737 C3.75920845,5.08706782 3.59202111,4.8191249 3.59202111,4.45724861 C3.59202111,4.09537232 3.6772841,3.8524152 3.84781009,3.72837725 C3.7964109,3.0079336 3.85777848,2.34212182 4.03191284,1.73094189 C4.19386827,1.16250774 4.77529228,0.460386425 5.38854965,0.210899477 C5.69279163,0.0871269671 6.02227674,0.00322446855 6.55858121,9.0883704e-05 L6.63569011,0.001 L6.68105175,9.0883704e-05 Z M6.95269289,8.63793797 L6.29736936,8.63793797 C6.10942905,8.78360515 5.99182735,8.94246864 5.94456425,9.11452845 C5.92540191,9.18428834 5.92151046,9.27409571 5.94456425,9.34676198 C5.96924694,9.4245626 6.05509878,9.54286931 6.20211977,9.70168213 C5.99460229,10.4738104 5.89084354,10.9692312 5.89084354,11.1879445 C5.93968055,11.3119902 6.27636686,11.7724596 6.55841876,11.8375168 L6.55841876,11.8375168 L6.60884354,11.840938 L6.60900943,11.8444397 L6.62769011,11.842 L6.62484354,11.842938 L6.64084354,11.840938 L6.64069011,11.841 L6.69164348,11.8375168 C6.9454902,11.7789653 7.24359078,11.4001299 7.33627461,11.2345191 L7.35921871,11.1879445 C7.35921871,10.9692312 7.25545996,10.4738104 7.04794247,9.70168213 C7.19496347,9.54286931 7.28081531,9.4245626 7.30549799,9.34676198 C7.32855178,9.27409571 7.32466033,9.18428834 7.30549799,9.11452845 C7.2582349,8.94246864 7.1406332,8.78360515 6.95269289,8.63793797 L6.95269289,8.63793797 Z" id="形状结合" stroke="#FFFFFF" stroke-width="0.1" fill="#FFFFFF"></path>
            <path d="M3.13571418,1.80446608 C3.0069637,2.70468791 2.94258846,3.26221905 2.94258846,3.47705949 C2.71658386,3.86240449 2.49137581,5.12960146 3.32774119,5.85623319 C3.39676763,6.30082902 3.62082389,6.72815855 4.06929741,7.05714773 C4.02502358,7.25884764 4.04310323,7.4239415 4.12353636,7.55242932 C3.74515422,7.763145 3.43732406,7.91045911 3.20004589,7.99437163 C1.98282499,8.42483715 1.33222651,8.65224959 1.07716832,8.75759223 C0.338938475,9.06249161 0,10.084323 0,10.797192 C0,11.2724379 0,10.4926504 0,8.45782947 C0.922817713,8.18441709 1.54177498,7.88261704 1.85687181,7.55242932 C1.93627533,7.304895 1.93627533,7.03067125 1.85687181,6.72975806 C1.46238505,6.38405669 1.26514167,6.05021339 1.26514167,5.72822815 C1.07716832,5.58045094 0.881815364,5.46449928 0.881815364,5.09713741 C0.881815364,4.8522295 0.946933016,4.67582326 1.07716832,4.56791868 C1.06850088,3.83398998 1.13115866,3.31554469 1.26514167,3.0125828 C1.46611619,2.55813997 1.77683707,2.13632705 2.2512488,1.95110347 C2.56752329,1.82762109 2.86234508,1.77874196 3.13571418,1.80446608 Z" id="路径-48" stroke="#D9EDFF" stroke-width="0.2" fill="#D9EDFF" stroke-linejoin="round"></path>
            <path d="M12.2382023,1.80446608 C12.1094518,2.70468791 12.0450766,3.26221905 12.0450766,3.47705949 C11.8190719,3.86240449 11.5938639,5.12960146 12.4302293,5.85623319 C12.4992557,6.30082902 12.723312,6.72815855 13.1717855,7.05714773 C13.1275117,7.25884764 13.1455913,7.4239415 13.2260245,7.55242932 C12.8476423,7.763145 12.5398122,7.91045911 12.302534,7.99437163 C11.0853131,8.42483715 10.4347146,8.65224959 10.1796564,8.75759223 C9.44142657,9.06249161 9.10248809,10.084323 9.10248809,10.797192 C9.10248809,11.2724379 9.10248809,10.4926504 9.10248809,8.45782947 C10.0253058,8.18441709 10.6442631,7.88261704 10.9593599,7.55242932 C11.0387634,7.304895 11.0387634,7.03067125 10.9593599,6.72975806 C10.5648731,6.38405669 10.3676298,6.05021339 10.3676298,5.72822815 C10.1796564,5.58045094 9.98430346,5.46449928 9.98430346,5.09713741 C9.98430346,4.8522295 10.0494211,4.67582326 10.1796564,4.56791868 C10.170989,3.83398998 10.2336468,3.31554469 10.3676298,3.0125828 C10.5686043,2.55813997 10.8793252,2.13632705 11.3537369,1.95110347 C11.6700114,1.82762109 11.9648332,1.77874196 12.2382023,1.80446608 Z" id="路径-48" stroke="#D9EDFF" stroke-width="0.2" fill="#D9EDFF" stroke-linejoin="round" transform="translate(11.164256, 6.364989) scale(-1, 1) translate(-11.164256, -6.364989) "></path>
        </g>
    </g>
</svg>