<?xml version="1.0" encoding="UTF-8"?>
<svg width="18px" height="18px" viewBox="0 0 18 18" version="1.1" xmlns="http://www.w3.org/2000/svg" xmlns:xlink="http://www.w3.org/1999/xlink">
    <title>形状结合</title>
    <defs>
        <linearGradient x1="50%" y1="0%" x2="50%" y2="98.3309659%" id="linearGradient-1">
            <stop stop-color="#FFFFFF" offset="0%"></stop>
            <stop stop-color="#007BC7" offset="100%"></stop>
        </linearGradient>
    </defs>
    <g id="页面-2" stroke="none" stroke-width="1" fill="none" fill-rule="evenodd">
        <g id="7-3责任区-视角" transform="translate(-1776.000000, -82.000000)" fill="url(#linearGradient-1)" fill-rule="nonzero">
            <g id="编组-2" transform="translate(0.000000, 0.000000)">
                <g id="编组" transform="translate(1700.000000, 70.000000)">
                    <g id="筛选备份" transform="translate(5.000000, 5.000000)">
                        <g id="编组-13备份-2" transform="translate(64.000000, 0.000000)">
                            <path d="M25,7 L25,25 L7,25 L7,7 L25,7 Z M23.0462633,8.94244604 L8.95373665,8.94244604 L8.95373665,23.0251799 L23.0462633,23.0251799 L23.0462633,8.94244604 Z M17.8280987,18.5 L17.8280987,22.1 L14.2280987,22.1 L14.2280987,18.5 L17.8280987,18.5 Z M13.5466192,18.5 L13.5466192,22.1 L9.94661922,22.1 L9.94661922,18.5 L13.5466192,18.5 Z M22.0256525,18.5 L22.0256525,22.1 L18.4256525,22.1 L18.4256525,18.5 L22.0256525,18.5 Z M13.5466192,14.2 L13.5466192,17.8 L9.94661922,17.8 L9.94661922,14.2 L13.5466192,14.2 Z M17.8280987,14.2 L17.8280987,17.8 L14.2280987,17.8 L14.2280987,14.2 L17.8280987,14.2 Z M22.0256525,14.2 L22.0256525,17.8 L18.4256525,17.8 L18.4256525,14.2 L22.0256525,14.2 Z M13.5466192,9.91366906 L13.5466192,13.5136691 L9.94661922,13.5136691 L9.94661922,9.91366906 L13.5466192,9.91366906 Z M17.8280987,9.91366906 L17.8280987,13.5136691 L14.2280987,13.5136691 L14.2280987,9.91366906 L17.8280987,9.91366906 Z M22.0256525,9.91366906 L22.0256525,13.5136691 L18.4256525,13.5136691 L18.4256525,9.91366906 L22.0256525,9.91366906 Z" id="形状结合"></path>
                        </g>
                    </g>
                </g>
            </g>
        </g>
    </g>
</svg>