<?xml version="1.0" encoding="UTF-8"?>
<svg width="163px" height="44px" viewBox="0 0 163 44" version="1.1" xmlns="http://www.w3.org/2000/svg" xmlns:xlink="http://www.w3.org/1999/xlink">
    <title>画板</title>
    <defs>
        <filter x="-18.2%" y="-140.7%" width="136.5%" height="381.4%" filterUnits="objectBoundingBox" id="filter-1">
            <feGaussianBlur stdDeviation="6" in="SourceGraphic"></feGaussianBlur>
        </filter>
        <radialGradient cx="50%" cy="100.114729%" fx="50%" fy="100.114729%" r="79.9067108%" gradientTransform="translate(0.500000,1.001147),scale(0.072822,1.000000),rotate(90.000000),scale(1.000000,3.401204),translate(-0.500000,-1.001147)" id="radialGradient-2">
            <stop stop-color="#FF8D00" offset="0%"></stop>
            <stop stop-color="#FF8D00" stop-opacity="0.63845121" offset="35.9347684%"></stop>
            <stop stop-color="#FF8D00" stop-opacity="0.378359921" offset="48.6997378%"></stop>
            <stop stop-color="#FF8D00" stop-opacity="0" offset="98.0960446%"></stop>
        </radialGradient>
        <filter x="-1.7%" y="-23.4%" width="103.4%" height="146.9%" filterUnits="objectBoundingBox" id="filter-3">
            <feGaussianBlur stdDeviation="1" in="SourceGraphic"></feGaussianBlur>
        </filter>
        <linearGradient x1="-1.52058914%" y1="49.8737896%" x2="100%" y2="50%" id="linearGradient-4">
            <stop stop-color="#FF9A25" stop-opacity="0" offset="0.0655594406%"></stop>
            <stop stop-color="#FFB336" offset="50.4698427%"></stop>
            <stop stop-color="#FF9A25" stop-opacity="0" offset="100%"></stop>
        </linearGradient>
    </defs>
    <g id="画板" stroke="none" stroke-width="1" fill="none" fill-rule="evenodd">
        <g id="编组-31" transform="translate(75.286990, 24.605736) scale(-1, 1) rotate(8.000000) translate(-75.286990, -24.605736) translate(-12.609933, 3.227572)">
            <path d="M83.8488049,26.6340127 C111.102918,26.6109696 134.112246,25.567863 134.11577,21.3802213 C134.119294,17.1925797 112.028327,13.8165055 84.7742144,13.8394314 C57.5201013,13.8625917 35.4234203,17.2760261 35.4198961,21.4636678 C35.4163718,25.6513094 56.5946918,26.6570558 83.8488049,26.6340127 Z" id="椭圆形" fill="#A26C00" opacity="0.624139695" filter="url(#filter-1)" transform="translate(84.767833, 20.236914) rotate(-8.000000) translate(-84.767833, -20.236914) "></path>
            <path d="M86.264914,24.9614138 C134.789492,24.9283479 175.755604,23.8767256 175.758445,19.6888617 C175.761285,15.5009978 136.426644,12.1328685 87.9020662,12.1659344 C39.3774881,12.1990002 0.0382427442,15.6207399 0.0354025272,19.8086038 C0.0325623102,23.9964677 37.7403359,24.9944797 86.264914,24.9614138 Z" id="椭圆形" fill="url(#radialGradient-2)" opacity="0.8" filter="url(#filter-3)" transform="translate(87.896924, 18.563947) rotate(-8.000000) translate(-87.896924, -18.563947) "></path>
            <path d="M83.3831577,24.0002291 C84.947203,24.0002291 86.5055854,24.0058927 88.0573993,24.0171358 L91.1520006,24.0470362 C94.2373072,24.0843259 97.2939247,24.1437084 100.314608,24.2245093 L103.323045,24.3124248 C107.816928,24.4549323 112.224525,24.6451257 116.521385,24.8807289 L119.369284,25.0445001 C120.312937,25.1013164 121.250852,25.1603501 122.182762,25.2215763 L124.960209,25.4118076 L127.700015,25.615044 C139.942032,26.5586452 150.991794,27.8927282 160.189095,29.5558436 L161.203361,29.7419852 L160.329828,31.6574873 C152.076278,30.1201431 142.208736,28.8561374 131.252499,27.9154579 L128.602369,27.6959282 C115.249891,26.6295753 100.390209,26.0345706 84.9310393,25.9972929 L83.3831577,25.9954274 C72.1616395,25.9954274 61.2404793,26.2894222 50.9641823,26.844123 L48.177803,27.0018438 C46.7928663,27.0839111 45.4205033,27.17077 44.0615874,27.262336 L41.3619442,27.4517192 C27.9559641,28.4297663 15.9529397,29.8729016 6.22642818,31.6967153 L5.26139776,31.8803624 L4.3582664,29.9704751 C15.0675627,27.9020594 28.5579845,26.3029016 43.6697546,25.2825137 L46.434957,25.1033906 C46.8987157,25.0746078 47.3638987,25.0463626 47.8304738,25.018658 L50.64637,24.8589421 C60.5586646,24.3228127 71.0563775,24.0277806 81.8406328,24.0020672 L83.3831577,24.0002291 Z" id="路径" fill="url(#linearGradient-4)" fill-rule="nonzero" transform="translate(82.780814, 27.940296) rotate(-8.000000) translate(-82.780814, -27.940296) "></path>
        </g>
    </g>
</svg>