<?xml version="1.0" encoding="UTF-8"?>
<svg width="41px" height="41px" viewBox="0 0 41 41" version="1.1" xmlns="http://www.w3.org/2000/svg" xmlns:xlink="http://www.w3.org/1999/xlink">
    <title>hover</title>
    <defs>
        <path d="M15.9911556,7.72469209 C18.7554718,7.72469209 20.9594537,8.44653741 22.6031012,9.89022805 C24.2467487,11.3339187 25.0685725,13.5691064 25.0685725,16.5957911 C25.0685725,16.7270632 25.0672762,16.8568071 25.0646836,16.9850229 L20.9577727,16.9848688 L20.7861333,16.990507 L20.6075156,17.0084752 C20.1292945,17.0733329 19.6844537,17.2693883 19.3115367,17.5662424 C19.3524252,17.2774012 19.3718397,16.9657938 19.3718397,16.633783 C19.3718397,15.1774284 18.9951704,14.1389843 18.241832,13.5184506 C17.4884936,12.8979169 16.4331972,12.58765 15.0759428,12.58765 L9.71541061,12.58765 L9.71541061,20.8318834 L15.0759428,20.8318834 C16.2828196,20.8318834 17.2534041,20.5665338 17.9876965,20.0358345 L16.6605542,23.8289562 L15.5970058,23.8290318 L15.4582115,23.8363374 C15.1371185,23.8702474 14.8378857,24.0209205 14.6138286,24.2614533 C14.4022355,24.4886056 14.2720067,24.7802332 14.2391167,25.0887391 L14.2308572,25.2441783 L14.23,25.6566921 L9.71541061,25.6568495 L9.71541061,35.7246921 L4,35.7246921 L4,7.72469209 L15.9911556,7.72469209 Z M31.1838502,17.9111465 C31.9433165,17.9111465 32.6231416,18.4168111 32.8897143,19.1802498 L34.8369314,24.7553095 L36.5446172,24.7553095 C36.6653922,24.7553095 36.7812206,24.8068151 36.8666215,24.8984958 C36.9520223,24.9901765 37,25.1145222 37,25.2441783 L37,25.9481493 C37,26.396902 36.7152292,26.7879566 36.3096396,26.8965548 L35.1784686,27.1996534 L35.1784686,34.5326852 C35.1784686,35.0726748 34.7707049,35.5104228 34.2677029,35.5104228 L33.3569371,35.5104228 C32.8539351,35.5104228 32.4461714,35.0726748 32.4461714,34.5326852 L32.4461714,33.5549476 L19.6954515,33.5549476 L19.6954515,34.5326852 C19.6954515,35.0726748 19.2876878,35.5104228 18.7846858,35.5104228 L17.87392,35.5104228 C17.370918,35.5104228 16.9631543,35.0726748 16.9631543,34.5326852 L16.9631543,27.1996534 L15.8310725,26.8965548 C15.4258446,26.787577 15.1416229,26.3966174 15.1416229,25.9481493 L15.1416229,25.2441783 C15.1416229,25.1145222 15.1896006,24.9901765 15.2750014,24.8984958 C15.3604023,24.8068151 15.4762307,24.7553095 15.5970057,24.7553095 L17.3046915,24.7553095 L19.2519086,19.1802498 C19.5184812,18.4168111 20.1983064,17.9111465 20.9577727,17.9111465 L31.1838502,17.9111465 Z M18.7846858,28.6662598 L18.7846858,30.6217349 C18.7846858,31.1617245 19.1924494,31.5994725 19.6954515,31.5994725 L22.6508862,31.5994725 C22.8108454,31.5991981 22.9589416,31.5088456 23.0410205,31.3614542 C23.1230994,31.2140628 23.1271242,31.0312472 23.0516231,30.8798576 C22.3184567,29.4034739 20.8958407,28.6662598 18.7846858,28.6662598 Z M33.3569371,28.6662598 C31.246693,28.6662598 29.8240769,29.4044516 29.089089,30.8798576 C29.0135116,31.0314008 29.0176263,31.2144207 29.0999258,31.3618733 C29.1822254,31.5093258 29.3306151,31.5995415 29.4907367,31.5994725 L32.4461714,31.5994725 C32.9491735,31.5994725 33.3569371,31.1617245 33.3569371,30.6217349 L33.3569371,28.6662598 Z M21.2588686,20.481048 L20.1925897,23.9158401 C20.1232436,24.1393548 20.1581521,24.3850262 20.2864202,24.5761796 C20.4146883,24.7673329 20.6206947,24.8806883 20.8401441,24.8808671 L31.2621564,24.9925344 C31.4816058,24.9923556 31.6876122,24.8790002 31.8158803,24.6878469 C31.9441484,24.4966936 31.9790569,24.2510221 31.9097108,24.0275075 L30.8434319,20.5927154 L21.2588686,20.481048 Z" id="path-1"></path>
        <filter x="-23.9%" y="-28.2%" width="147.9%" height="156.4%" filterUnits="objectBoundingBox" id="filter-2">
            <feMorphology radius="0.4" operator="dilate" in="SourceAlpha" result="shadowSpreadOuter1"></feMorphology>
            <feOffset dx="0" dy="0" in="shadowSpreadOuter1" result="shadowOffsetOuter1"></feOffset>
            <feGaussianBlur stdDeviation="2.5" in="shadowOffsetOuter1" result="shadowBlurOuter1"></feGaussianBlur>
            <feComposite in="shadowBlurOuter1" in2="SourceAlpha" operator="out" result="shadowBlurOuter1"></feComposite>
            <feColorMatrix values="0 0 0 0 1   0 0 0 0 0.55758497   0 0 0 0 0.0705882353  0 0 0 1 0" type="matrix" in="shadowBlurOuter1"></feColorMatrix>
        </filter>
        <filter x="-17.9%" y="-21.1%" width="135.8%" height="142.1%" filterUnits="objectBoundingBox" id="filter-3">
            <feOffset dx="-1" dy="1" in="SourceAlpha" result="shadowOffsetInner1"></feOffset>
            <feComposite in="shadowOffsetInner1" in2="SourceAlpha" operator="arithmetic" k2="-1" k3="1" result="shadowInnerInner1"></feComposite>
            <feColorMatrix values="0 0 0 0 1   0 0 0 0 1   0 0 0 0 1  0 0 0 1 0" type="matrix" in="shadowInnerInner1"></feColorMatrix>
        </filter>
    </defs>
    <g id="hover" stroke="none" stroke-width="1" fill="none" fill-rule="evenodd" stroke-dasharray="0,0">
        <g id="工程类">
            <use fill="black" fill-opacity="1" filter="url(#filter-2)" xlink:href="#path-1"></use>
            <use fill="#FFF5D9" fill-rule="evenodd" xlink:href="#path-1"></use>
            <use fill="black" fill-opacity="1" filter="url(#filter-3)" xlink:href="#path-1"></use>
            <use stroke-opacity="0" stroke="#000000" stroke-width="0.8" xlink:href="#path-1"></use>
        </g>
    </g>
</svg>