<?xml version="1.0" encoding="UTF-8"?>
<svg width="41px" height="41px" viewBox="0 0 41 41" version="1.1" xmlns="http://www.w3.org/2000/svg" xmlns:xlink="http://www.w3.org/1999/xlink">
    <title>默认</title>
    <defs>
        <path d="M15.9911556,7 C18.7554718,7 20.9594537,7.72184532 22.6031012,9.16553596 C24.2467487,10.6092266 25.0685725,12.8444143 25.0685725,15.8710991 C25.0685725,16.0023711 25.0672762,16.132115 25.0646836,16.2603308 L20.9577727,16.2601767 L20.7861333,16.265815 L20.6075156,16.2837831 C20.1292945,16.3486408 19.6844537,16.5446962 19.3115367,16.8415503 C19.3524252,16.5527091 19.3718397,16.2411017 19.3718397,15.9090909 C19.3718397,14.4527363 18.9951704,13.4142922 18.241832,12.7937585 C17.4884936,12.1732248 16.4331972,11.8629579 15.0759428,11.8629579 L9.71541061,11.8629579 L9.71541061,20.1071913 L15.0759428,20.1071913 C16.2828196,20.1071913 17.2534041,19.8418417 17.9876965,19.3111424 L16.6605542,23.1042641 L15.5970058,23.1043397 L15.4582115,23.1116453 C15.1371185,23.1455553 14.8378857,23.2962284 14.6138286,23.5367612 C14.4022355,23.7639135 14.2720067,24.0555411 14.2391167,24.364047 L14.2308572,24.5194862 L14.23,24.932 L9.71541061,24.9321574 L9.71541061,35 L4,35 L4,7 L15.9911556,7 Z M31.1838502,17.1864544 C31.9433165,17.1864544 32.6231416,17.692119 32.8897143,18.4555577 L34.8369314,24.0306174 L36.5446172,24.0306174 C36.6653922,24.0306174 36.7812206,24.0821231 36.8666215,24.1738037 C36.9520223,24.2654844 37,24.3898301 37,24.5194862 L37,25.2234572 C37,25.6722099 36.7152292,26.0632645 36.3096396,26.1718627 L35.1784686,26.4749613 L35.1784686,33.8079931 C35.1784686,34.3479827 34.7707049,34.7857307 34.2677029,34.7857307 L33.3569371,34.7857307 C32.8539351,34.7857307 32.4461714,34.3479827 32.4461714,33.8079931 L32.4461714,32.8302555 L19.6954515,32.8302555 L19.6954515,33.8079931 C19.6954515,34.3479827 19.2876878,34.7857307 18.7846858,34.7857307 L17.87392,34.7857307 C17.370918,34.7857307 16.9631543,34.3479827 16.9631543,33.8079931 L16.9631543,26.4749613 L15.8310725,26.1718627 C15.4258446,26.0628849 15.1416229,25.6719253 15.1416229,25.2234572 L15.1416229,24.5194862 C15.1416229,24.3898301 15.1896006,24.2654844 15.2750014,24.1738037 C15.3604023,24.0821231 15.4762307,24.0306174 15.5970057,24.0306174 L17.3046915,24.0306174 L19.2519086,18.4555577 C19.5184812,17.692119 20.1983064,17.1864544 20.9577727,17.1864544 L31.1838502,17.1864544 Z M18.7846858,27.9415677 L18.7846858,29.8970428 C18.7846858,30.4370324 19.1924494,30.8747804 19.6954515,30.8747804 L22.6508862,30.8747804 C22.8108454,30.874506 22.9589416,30.7841535 23.0410205,30.6367621 C23.1230994,30.4893707 23.1271242,30.3065551 23.0516231,30.1551655 C22.3184567,28.6787818 20.8958407,27.9415677 18.7846858,27.9415677 Z M33.3569371,27.9415677 C31.246693,27.9415677 29.8240769,28.6797595 29.089089,30.1551655 C29.0135116,30.3067087 29.0176263,30.4897286 29.0999258,30.6371812 C29.1822254,30.7846337 29.3306151,30.8748494 29.4907367,30.8747804 L32.4461714,30.8747804 C32.9491735,30.8747804 33.3569371,30.4370324 33.3569371,29.8970428 L33.3569371,27.9415677 Z M21.2588686,19.756356 L20.1925897,23.1911481 C20.1232436,23.4146627 20.1581521,23.6603342 20.2864202,23.8514875 C20.4146883,24.0426408 20.6206947,24.1559962 20.8401441,24.156175 L31.2621564,24.2678423 C31.4816058,24.2676635 31.6876122,24.1543081 31.8158803,23.9631548 C31.9441484,23.7720015 31.9790569,23.52633 31.9097108,23.3028154 L30.8434319,19.8680233 L21.2588686,19.756356 Z" id="path-1"></path>
        <filter x="-19.2%" y="-22.6%" width="138.3%" height="145.2%" filterUnits="objectBoundingBox" id="filter-2">
            <feMorphology radius="0.32416384" operator="dilate" in="SourceAlpha" result="shadowSpreadOuter1"></feMorphology>
            <feOffset dx="0" dy="0" in="shadowSpreadOuter1" result="shadowOffsetOuter1"></feOffset>
            <feGaussianBlur stdDeviation="2" in="shadowOffsetOuter1" result="shadowBlurOuter1"></feGaussianBlur>
            <feComposite in="shadowBlurOuter1" in2="SourceAlpha" operator="out" result="shadowBlurOuter1"></feComposite>
            <feColorMatrix values="0 0 0 0 0.0873871966   0 0 0 0 0.53621158   0 0 0 0 0.730383832  0 0 0 1 0" type="matrix" in="shadowBlurOuter1"></feColorMatrix>
        </filter>
        <filter x="-14.6%" y="-17.2%" width="129.2%" height="134.5%" filterUnits="objectBoundingBox" id="filter-3">
            <feOffset dx="-1" dy="1" in="SourceAlpha" result="shadowOffsetInner1"></feOffset>
            <feComposite in="shadowOffsetInner1" in2="SourceAlpha" operator="arithmetic" k2="-1" k3="1" result="shadowInnerInner1"></feComposite>
            <feColorMatrix values="0 0 0 0 0.98210747   0 0 0 0 0.992507503   0 0 0 0 1  0 0 0 1 0" type="matrix" in="shadowInnerInner1"></feColorMatrix>
        </filter>
    </defs>
    <g id="默认" stroke="none" stroke-width="1" fill="none" fill-rule="evenodd" stroke-dasharray="0,0">
        <g id="工程类">
            <use fill="black" fill-opacity="1" filter="url(#filter-2)" xlink:href="#path-1"></use>
            <use fill="#C4EDFF" fill-rule="evenodd" xlink:href="#path-1"></use>
            <use fill="black" fill-opacity="1" filter="url(#filter-3)" xlink:href="#path-1"></use>
            <use stroke-opacity="0" stroke="#000000" stroke-width="0.64832768" xlink:href="#path-1"></use>
        </g>
    </g>
</svg>