<?xml version="1.0" encoding="UTF-8"?>
<svg width="41px" height="41px" viewBox="0 0 41 41" version="1.1" xmlns="http://www.w3.org/2000/svg" xmlns:xlink="http://www.w3.org/1999/xlink">
    <title>hover</title>
    <defs>
        <path d="M5.00303571,13.2229928 L29.7641071,13.2229928 C30.316875,13.2229928 30.7671429,12.7807206 30.7671429,12.2296929 L30.7671429,10.717992 C30.7671429,10.1705895 30.3205357,9.72469209 29.7641071,9.72469209 L5.00303571,9.72469209 C4.45026786,9.72469209 4,10.1669643 4,10.717992 L4,12.2296929 C4,12.7807206 4.44660714,13.2229928 5.00303571,13.2229928 Z M5.00303571,23.8121496 L18.35,23.8121496 C18.3646429,20.5132339 19.8691964,17.5695861 22.2120536,15.6409892 L5.00303571,15.6409892 C4.45026786,15.6409892 4,16.0832614 4,16.6342891 L4,22.8224749 C4,23.3698774 4.44660714,23.8121496 5.00303571,23.8121496 L5.00303571,23.8121496 Z M18.5476786,25.9220056 L5.00303571,25.9220056 C4.44660714,25.9220056 4,26.3642778 4,26.9116803 L4,31.1313922 C4,31.6787947 4.44660714,32.1246921 5.00303571,32.1246921 L22.2669643,32.1246921 C20.3816964,30.5948653 19.0308929,28.4161308 18.5476786,25.9220056 L18.5476786,25.9220056 Z M28.7647321,15.7026173 C24.3279464,15.7026173 20.7294643,19.3568008 20.7294643,23.8629022 C20.7294643,28.3690035 24.3279464,32.0195618 28.7647321,32.0195618 C33.2015179,32.0195618 36.8,28.3690035 36.8,23.8629022 C36.8,19.3568008 33.2015179,15.7026173 28.7647321,15.7026173 L28.7647321,15.7026173 Z M34.1533036,27.0168106 C34.0398214,27.2089452 33.8714286,27.3467021 33.6774107,27.4228309 C33.3991964,27.5352116 33.0770536,27.524336 32.7988393,27.3612029 L28.2705357,24.7075696 C28.2595536,24.7039444 28.2558929,24.6930689 28.2449107,24.6894437 C28.2119643,24.6676926 28.1790179,24.6423163 28.1497321,24.6205652 C28.1314286,24.6060645 28.113125,24.5915638 28.0984821,24.577063 C28.061875,24.5444364 28.0289286,24.5045594 27.9959821,24.4646824 C27.9886607,24.457432 27.9813393,24.4501817 27.9776786,24.4393061 C27.856875,24.2761729 27.78,24.0767879 27.78,23.859277 L27.78,18.7151436 C27.78,18.1749915 28.2229464,17.7363445 28.7683929,17.7363445 C29.3138393,17.7363445 29.7567857,18.1749915 29.7567857,18.7151436 L29.7567857,23.3009989 L33.8055357,25.6754932 C34.2741071,25.951007 34.4315179,26.5527873 34.1533036,27.0168106 Z" id="path-1"></path>
        <filter x="-24.1%" y="-35.3%" width="148.2%" height="170.5%" filterUnits="objectBoundingBox" id="filter-2">
            <feMorphology radius="0.4" operator="dilate" in="SourceAlpha" result="shadowSpreadOuter1"></feMorphology>
            <feOffset dx="0" dy="0" in="shadowSpreadOuter1" result="shadowOffsetOuter1"></feOffset>
            <feGaussianBlur stdDeviation="2.5" in="shadowOffsetOuter1" result="shadowBlurOuter1"></feGaussianBlur>
            <feComposite in="shadowBlurOuter1" in2="SourceAlpha" operator="out" result="shadowBlurOuter1"></feComposite>
            <feColorMatrix values="0 0 0 0 1   0 0 0 0 0.55758497   0 0 0 0 0.0705882353  0 0 0 1 0" type="matrix" in="shadowBlurOuter1"></feColorMatrix>
        </filter>
        <filter x="-18.0%" y="-26.3%" width="136.0%" height="152.7%" filterUnits="objectBoundingBox" id="filter-3">
            <feOffset dx="-1" dy="1" in="SourceAlpha" result="shadowOffsetInner1"></feOffset>
            <feComposite in="shadowOffsetInner1" in2="SourceAlpha" operator="arithmetic" k2="-1" k3="1" result="shadowInnerInner1"></feComposite>
            <feColorMatrix values="0 0 0 0 1   0 0 0 0 1   0 0 0 0 1  0 0 0 1 0" type="matrix" in="shadowInnerInner1"></feColorMatrix>
        </filter>
    </defs>
    <g id="hover" stroke="none" stroke-width="1" fill="none" fill-rule="evenodd" stroke-dasharray="0,0">
        <g id="工程时序">
            <use fill="black" fill-opacity="1" filter="url(#filter-2)" xlink:href="#path-1"></use>
            <use fill="#FFF5D9" fill-rule="evenodd" xlink:href="#path-1"></use>
            <use fill="black" fill-opacity="1" filter="url(#filter-3)" xlink:href="#path-1"></use>
            <use stroke-opacity="0" stroke="#000000" stroke-width="0.8" xlink:href="#path-1"></use>
        </g>
    </g>
</svg>