<?xml version="1.0" encoding="UTF-8"?>
<svg width="41px" height="41px" viewBox="0 0 41 41" version="1.1" xmlns="http://www.w3.org/2000/svg" xmlns:xlink="http://www.w3.org/1999/xlink">
    <title>hover</title>
    <defs>
        <path d="M20.5602695,7.72469209 C21.1556656,7.72469209 21.7266757,7.9612013 22.1476843,8.38219039 C22.5686929,8.80317948 22.8052131,9.37416322 22.8052131,9.96953171 L22.8052131,9.96953171 L22.8052131,11.4781605 C23.6965054,11.7202266 24.5522102,12.0781063 25.350448,12.5426489 L25.350448,12.5426489 L26.6414113,11.2498144 C27.0623291,10.8284156 27.6334647,10.591554 28.2290863,10.5913729 C28.824708,10.5911918 29.3959875,10.8277061 29.8171615,11.2488489 L29.8171615,11.2488489 L30.6118233,12.0439566 C31.4890414,12.9211775 31.4894736,14.3432542 30.6127889,15.2210081 L30.6127889,15.2210081 L29.2972036,16.5379807 C29.7291841,17.3095008 30.0632727,18.1318721 30.2917378,18.9860628 L30.2917378,18.9860628 L31.7565031,18.9860628 C32.3518054,18.9859344 32.9227413,19.2224487 33.3435478,19.6435073 C33.7643542,20.0645659 34.0005109,20.6356279 34,21.2309024 L34,21.2309024 L34,22.3547705 C34,23.5945612 32.9949029,24.5996101 31.7550548,24.5996101 L31.7550548,24.5996101 L30.2729092,24.5996101 C30.2531151,24.6715415 30.2323554,24.7439557 30.2111129,24.8154044 C30.0151028,25.4719596 29.1943707,25.6940297 28.687448,25.2334755 L28.687448,25.2334755 L27.3139288,23.9855378 C27.076997,23.7734274 26.9668362,23.4537385 27.0228103,23.1407057 C27.1710248,22.3480118 27.188405,21.5089728 27.0483978,20.6462786 C26.5477513,17.5604689 24.0083097,15.1220421 20.9059425,14.7406607 C16.2644614,14.170037 12.3635701,18.0557819 12.9086328,22.6927033 C13.2740999,25.8031338 15.7102258,28.3569406 18.8000406,28.8691502 C19.6287619,29.0082414 20.4754085,29.0015431 21.3018251,28.849357 C21.6101295,28.7948677 21.9249165,28.9015517 22.1365578,29.1322551 L22.1365578,29.1322551 L23.3773116,30.4641932 C23.8485083,30.970127 23.628359,31.8048211 22.9635661,31.9969601 L22.9635661,31.9969601 L22.8061786,32.0408913 L22.8061786,33.479037 C22.8061786,34.7188277 21.8010832,35.7238766 20.5612351,35.7238766 L20.5612351,35.7238766 L19.4387633,35.7238766 C18.8433672,35.7238766 18.272357,35.4873674 17.8513485,35.0663783 C17.4303399,34.6453892 17.1938197,34.0744055 17.1938197,33.479037 L17.1938197,33.479037 L17.1938197,32.0408913 C16.335227,31.8087949 15.509522,31.4687954 14.7364514,31.0290239 L14.7364514,31.0290239 L13.3576215,32.4077899 C12.9361599,32.8293707 12.364374,33.0661037 11.7682392,33.065832 C11.1721044,33.0655604 10.6005345,32.8283064 10.1794573,32.4063416 L10.1794573,32.4063416 L9.38576112,31.6107511 C8.51030679,30.7330538 8.51073878,29.3123127 9.38672668,28.4351479 L9.38672668,28.4351479 L10.7568664,27.0636233 C10.3109633,26.2883662 9.96495605,25.4598039 9.72708909,24.597679 L9.72708909,24.597679 L8.24494357,24.597679 C7.64954752,24.597679 7.07853734,24.3611698 6.65752875,23.9401807 C6.23652016,23.5191916 6,22.9482079 6,22.3528394 L6,22.3528394 L6,21.2304196 C6,19.9906289 7.00509547,18.98558 8.24494357,18.98558 L8.24494357,18.98558 L9.71019168,18.98558 C9.93805192,18.1311866 10.2721705,17.3087416 10.7047258,16.5374979 L10.7047258,16.5374979 L9.38817503,15.2195598 C8.51175492,14.3420084 8.51132293,12.9205922 9.38720948,12.0425083 L9.38720948,12.0425083 L10.1794573,11.2483661 C10.6000191,10.8267795 11.1709463,10.5896863 11.7664494,10.5893241 C12.3619524,10.5889619 12.9331676,10.8253604 13.354242,11.2464351 L13.354242,11.2464351 L14.6490675,12.5407179 C15.4468232,12.0769323 16.3018528,11.7195503 17.1923714,11.4776777 L17.1923714,11.4776777 L17.1923714,9.96953171 C17.1923714,8.72974102 18.1974668,7.72469209 19.4373149,7.72469209 L19.4373149,7.72469209 Z M20.7061987,16.4479208 L20.9286333,16.4501181 C21.5731494,16.4901873 22.8322489,16.7277058 24.1362474,18.0316439 C25.439763,19.3355819 26.2329764,21.8493195 25.3209982,23.6138117 C25.192095,23.8667786 25.0535361,24.2433323 25.4648677,24.6647829 C25.4899725,24.690852 25.5368025,24.7357488 25.6014955,24.7970594 L25.6014955,24.7970594 L25.5961849,24.8028526 L33.2985138,31.7816486 C34.2549081,32.6095841 34.2003535,34.1312474 33.3139629,35.0335281 C32.4217789,35.9208432 30.8899066,35.9903608 30.0619328,35.0287005 C30.0619328,35.0287005 28.4770396,33.3326952 26.7918736,31.5298312 L26.1581357,30.851852 C24.4710987,29.0471037 22.8693665,27.33414 22.8375596,27.3021073 C22.4407115,26.9052776 22.0689681,27.0394852 21.7865397,27.1582445 C19.4464878,28.1546636 17.3396204,27.0293473 16.209424,25.9585829 C15.0343288,24.8530597 14.6577576,23.4255348 14.6229972,22.755945 C14.6065826,22.442633 14.6621027,22.0771828 14.7914887,21.7122153 C15.0174314,21.0744878 15.845888,20.9045558 16.3252921,21.3820067 L16.3252921,21.3820067 L17.971584,23.0224292 C18.1877121,23.2377447 18.4954444,23.3338278 18.7956956,23.2797409 L18.7956956,23.2797409 L20.4106066,22.9896015 C20.7939803,22.9205348 21.0941873,22.6207266 21.1637489,22.2374595 L21.1637489,22.2374595 L21.4563158,20.6255198 C21.5108703,20.3237941 21.4138308,20.0143441 21.1965782,19.7975844 L21.1965782,19.7975844 L19.5386995,18.1460583 C19.0670199,17.6763316 19.2162,16.854672 19.8394736,16.6219811 C20.1866048,16.4895054 20.5575744,16.4309686 20.9286333,16.4501181 Z M31.5952534,32.4444797 C31.1091796,32.4444797 30.715139,32.8385021 30.715139,33.3245534 C30.715139,33.8106047 31.1091796,34.2046271 31.5952534,34.2046271 C32.0813272,34.2046271 32.4753679,33.8106047 32.4753679,33.3245534 C32.4753679,32.8385021 32.0813272,32.4444797 31.5952534,32.4444797 Z" id="path-1"></path>
        <filter x="-28.2%" y="-28.2%" width="156.4%" height="156.4%" filterUnits="objectBoundingBox" id="filter-2">
            <feMorphology radius="0.4" operator="dilate" in="SourceAlpha" result="shadowSpreadOuter1"></feMorphology>
            <feOffset dx="0" dy="0" in="shadowSpreadOuter1" result="shadowOffsetOuter1"></feOffset>
            <feGaussianBlur stdDeviation="2.5" in="shadowOffsetOuter1" result="shadowBlurOuter1"></feGaussianBlur>
            <feComposite in="shadowBlurOuter1" in2="SourceAlpha" operator="out" result="shadowBlurOuter1"></feComposite>
            <feColorMatrix values="0 0 0 0 1   0 0 0 0 0.55758497   0 0 0 0 0.0705882353  0 0 0 1 0" type="matrix" in="shadowBlurOuter1"></feColorMatrix>
        </filter>
        <filter x="-21.1%" y="-21.1%" width="142.1%" height="142.1%" filterUnits="objectBoundingBox" id="filter-3">
            <feOffset dx="-1" dy="1" in="SourceAlpha" result="shadowOffsetInner1"></feOffset>
            <feComposite in="shadowOffsetInner1" in2="SourceAlpha" operator="arithmetic" k2="-1" k3="1" result="shadowInnerInner1"></feComposite>
            <feColorMatrix values="0 0 0 0 1   0 0 0 0 1   0 0 0 0 1  0 0 0 1 0" type="matrix" in="shadowInnerInner1"></feColorMatrix>
        </filter>
    </defs>
    <g id="hover" stroke="none" stroke-width="1" fill="none" fill-rule="evenodd" stroke-dasharray="0,0">
        <g id="管理类" transform="translate(20.000000, 21.724692) scale(-1, 1) rotate(-2.000000) translate(-20.000000, -21.724692) ">
            <use fill="black" fill-opacity="1" filter="url(#filter-2)" xlink:href="#path-1"></use>
            <use fill="#FFF5D9" fill-rule="evenodd" xlink:href="#path-1"></use>
            <use fill="black" fill-opacity="1" filter="url(#filter-3)" xlink:href="#path-1"></use>
            <use stroke-opacity="0" stroke="#000000" stroke-width="0.8" xlink:href="#path-1"></use>
        </g>
    </g>
</svg>