<?xml version="1.0" encoding="UTF-8"?>
<svg width="41px" height="41px" viewBox="0 0 41 41" version="1.1" xmlns="http://www.w3.org/2000/svg" xmlns:xlink="http://www.w3.org/1999/xlink">
    <title>默认</title>
    <defs>
        <path d="M21.040334,7.48006453 C21.6357301,7.48006453 22.2067403,7.71657374 22.6277489,8.13756283 C23.0487574,8.55855192 23.2852776,9.12953566 23.2852776,9.72490415 L23.2852776,9.72490415 L23.2852776,11.2335329 C24.17657,11.4755991 25.0322747,11.8334787 25.8305125,12.2980214 L25.8305125,12.2980214 L27.1214758,11.0051869 C27.5423936,10.5837881 28.1135292,10.3469264 28.7091509,10.3467453 C29.3047726,10.3465642 29.876052,10.5830786 30.2972261,11.0042213 L30.2972261,11.0042213 L31.0918878,11.799329 C31.969106,12.6765499 31.9695382,14.0986267 31.0928534,14.9763806 L31.0928534,14.9763806 L29.7772682,16.2933531 C30.2092486,17.0648733 30.5433372,17.8872446 30.7718023,18.7414352 L30.7718023,18.7414352 L32.2365676,18.7414352 C32.8318699,18.7413069 33.4028059,18.9778211 33.8236123,19.3988797 C34.2444187,19.8199383 34.4805754,20.3910003 34.4800645,20.9862748 L34.4800645,20.9862748 L34.4800645,22.1101429 C34.4800645,23.3499336 33.4749674,24.3549825 32.2351193,24.3549825 L32.2351193,24.3549825 L30.7529738,24.3549825 C30.7331796,24.4269139 30.7124199,24.4993281 30.6911775,24.5707768 C30.4951673,25.227332 29.6744353,25.4494022 29.1675125,24.988848 L29.1675125,24.988848 L27.7939933,23.7409103 C27.5570615,23.5287998 27.4469008,23.2091109 27.5028748,22.8960782 C27.6510894,22.1033843 27.6684696,21.2643453 27.5284623,20.401651 C27.0278158,17.3158414 24.4883742,14.8774145 21.3860071,14.4960331 C16.7445259,13.9254094 12.8436347,17.8111544 13.3886973,22.4480758 C13.7541645,25.5585062 16.1902903,28.112313 19.2801052,28.6245227 C20.1088264,28.7636139 20.955473,28.7569155 21.7818896,28.6047295 C22.0901941,28.5502402 22.404981,28.6569242 22.6166224,28.8876275 L22.6166224,28.8876275 L23.8573761,30.2195657 C24.3285729,30.7254994 24.1084236,31.5601936 23.4436306,31.7523325 L23.4436306,31.7523325 L23.2862432,31.7962638 L23.2862432,33.2344094 C23.2862432,34.4742001 22.2811477,35.479249 21.0412996,35.479249 L21.0412996,35.479249 L19.9188278,35.479249 C19.3234318,35.479249 18.7524216,35.2427398 18.331413,34.8217507 C17.9104044,34.4007616 17.6738842,33.8297779 17.6738842,33.2344094 L17.6738842,33.2344094 L17.6738842,31.7962638 C16.8152915,31.5641673 15.9895866,31.2241678 15.2165159,30.7843963 L15.2165159,30.7843963 L13.837686,32.1631623 C13.4162244,32.5847431 12.8444385,32.8214761 12.2483037,32.8212045 C11.6521689,32.8209328 11.080599,32.5836788 10.6595218,32.161714 L10.6595218,32.161714 L9.86582566,31.3661235 C8.99037133,30.4884262 8.99080331,29.0676852 9.86679121,28.1905203 L9.86679121,28.1905203 L11.236931,26.8189957 C10.7910279,26.0437387 10.4450206,25.2151763 10.2071536,24.3530515 L10.2071536,24.3530515 L8.7250081,24.3530515 C8.12961205,24.3530515 7.55860187,24.1165423 7.13759328,23.6955532 C6.71658469,23.2745641 6.48006453,22.7035803 6.48006453,22.1082119 L6.48006453,22.1082119 L6.48006453,20.9857921 C6.48006453,19.7460014 7.48516001,18.7409524 8.7250081,18.7409524 L8.7250081,18.7409524 L10.1902562,18.7409524 C10.4181165,17.8865591 10.752235,17.064114 11.1847903,16.2928704 L11.1847903,16.2928704 L9.86823956,14.9749323 C8.99181945,14.0973809 8.99138746,12.6759647 9.86727401,11.7978808 L9.86727401,11.7978808 L10.6595218,11.0037386 C11.0800836,10.582152 11.6510109,10.3450587 12.2465139,10.3446965 C12.8420169,10.3443343 13.4132322,10.5807328 13.8343066,11.0018075 L13.8343066,11.0018075 L15.1291321,12.2960903 C15.9268877,11.8323047 16.7819174,11.4749228 17.6724359,11.2330501 L17.6724359,11.2330501 L17.6724359,9.72490415 C17.6724359,8.48511346 18.6775314,7.48006453 19.9173795,7.48006453 L19.9173795,7.48006453 Z M21.1862632,16.2032932 L21.4086979,16.2054906 C22.053214,16.2455598 23.3123135,16.4830783 24.6163119,17.7870163 C25.9198275,19.0909543 26.7130409,21.6046919 25.8010628,23.3691842 C25.6721595,23.622151 25.5336006,23.9987048 25.9449322,24.4201553 C25.970037,24.4462244 26.016867,24.4911212 26.08156,24.5524319 L26.08156,24.5524319 L26.0762494,24.558225 L33.7785784,31.537021 C34.7349726,32.3649565 34.6804181,33.8866198 33.7940274,34.7889005 C32.9018434,35.6762156 31.3699711,35.7457332 30.5419973,34.7840729 C30.5419973,34.7840729 28.9571041,33.0880676 27.2719381,31.2852036 L26.6382002,30.6072244 C24.9511632,28.8024761 23.349431,27.0895124 23.3176241,27.0574798 C22.920776,26.6606501 22.5490327,26.7948577 22.2666043,26.9136169 C19.9265524,27.9100361 17.8196849,26.7847197 16.6894886,25.7139553 C15.5143934,24.6084322 15.1378222,23.1809073 15.1030618,22.5113175 C15.0866471,22.1980055 15.1421672,21.8325552 15.2715532,21.4675878 C15.4974959,20.8298602 16.3259525,20.6599283 16.8053566,21.1373791 L16.8053566,21.1373791 L18.4516486,22.7778017 C18.6677766,22.9931172 18.9755089,23.0892002 19.2757601,23.0351134 L19.2757601,23.0351134 L20.8906711,22.7449739 C21.2740449,22.6759073 21.5742519,22.376099 21.6438135,21.9928319 L21.6438135,21.9928319 L21.9363803,20.3808923 C21.9909349,20.0791665 21.8938954,19.7697166 21.6766428,19.5529568 L21.6766428,19.5529568 L20.018764,17.9014307 C19.5470844,17.431704 19.6962646,16.6100445 20.3195382,16.3773536 C20.6666693,16.2448779 21.0376389,16.1863411 21.4086979,16.2054906 Z M32.075318,32.1998521 C31.5892442,32.1998521 31.1952035,32.5938746 31.1952035,33.0799258 C31.1952035,33.5659771 31.5892442,33.9599995 32.075318,33.9599995 C32.5613917,33.9599995 32.9554324,33.5659771 32.9554324,33.0799258 C32.9554324,32.5938746 32.5613917,32.1998521 32.075318,32.1998521 Z" id="path-1"></path>
        <filter x="-33.8%" y="-33.8%" width="167.6%" height="167.6%" filterUnits="objectBoundingBox" id="filter-2">
            <feMorphology radius="0.4576" operator="dilate" in="SourceAlpha" result="shadowSpreadOuter1"></feMorphology>
            <feOffset dx="0" dy="0" in="shadowSpreadOuter1" result="shadowOffsetOuter1"></feOffset>
            <feGaussianBlur stdDeviation="3" in="shadowOffsetOuter1" result="shadowBlurOuter1"></feGaussianBlur>
            <feComposite in="shadowBlurOuter1" in2="SourceAlpha" operator="out" result="shadowBlurOuter1"></feComposite>
            <feColorMatrix values="0 0 0 0 0.0873871966   0 0 0 0 0.53621158   0 0 0 0 0.730383832  0 0 0 1 0" type="matrix" in="shadowBlurOuter1"></feColorMatrix>
        </filter>
        <filter x="-24.8%" y="-24.8%" width="149.7%" height="149.7%" filterUnits="objectBoundingBox" id="filter-3">
            <feOffset dx="-1" dy="1" in="SourceAlpha" result="shadowOffsetInner1"></feOffset>
            <feComposite in="shadowOffsetInner1" in2="SourceAlpha" operator="arithmetic" k2="-1" k3="1" result="shadowInnerInner1"></feComposite>
            <feColorMatrix values="0 0 0 0 0.98210747   0 0 0 0 0.992507503   0 0 0 0 1  0 0 0 1 0" type="matrix" in="shadowInnerInner1"></feColorMatrix>
        </filter>
    </defs>
    <g id="默认" stroke="none" stroke-width="1" fill="none" fill-rule="evenodd" stroke-dasharray="0,0">
        <g id="管理类" transform="translate(20.480065, 21.480065) scale(-1, 1) rotate(-2.000000) translate(-20.480065, -21.480065) ">
            <use fill="black" fill-opacity="1" filter="url(#filter-2)" xlink:href="#path-1"></use>
            <use fill="#C4EDFF" fill-rule="evenodd" xlink:href="#path-1"></use>
            <use fill="black" fill-opacity="1" filter="url(#filter-3)" xlink:href="#path-1"></use>
            <use stroke-opacity="0" stroke="#000000" stroke-width="0.9152" xlink:href="#path-1"></use>
        </g>
    </g>
</svg>