<?xml version="1.0" encoding="UTF-8"?>
<svg width="204px" height="162px" viewBox="0 0 204 162" version="1.1" xmlns="http://www.w3.org/2000/svg" xmlns:xlink="http://www.w3.org/1999/xlink">
    <title>编组 23</title>
    <defs>
        <linearGradient x1="35.3325621%" y1="18.2505677%" x2="96.0381267%" y2="77.7201674%" id="linearGradient-1">
            <stop stop-color="#505C72" stop-opacity="0.862181764" offset="0%"></stop>
            <stop stop-color="#3F4E6B" offset="100%"></stop>
        </linearGradient>
        <linearGradient x1="60.1327489%" y1="132.269882%" x2="56.0231019%" y2="7.45356781%" id="linearGradient-2">
            <stop stop-color="#A2BAEA" offset="0%"></stop>
            <stop stop-color="#6A83BF" offset="100%"></stop>
        </linearGradient>
        <path d="M30.6678894,7.0971722 L4.56696105,50.4197186 C3.14191098,52.785029 3.9041426,55.8577233 6.26945302,57.2827734 C7.04832742,57.7520289 7.94042366,58 8.84973443,58 L61.1355663,58 C63.89699,58 66.1355663,55.7614237 66.1355663,53 C66.1355663,52.0882768 65.8862786,51.1939071 65.4146689,50.4136356 L39.2297654,7.09108926 C37.8013558,4.72780613 34.7275816,3.96994138 32.3642984,5.39835097 C31.6692525,5.81844888 31.0869993,6.40153003 30.6678894,7.0971722 Z" id="path-3"></path>
        <filter x="-52.9%" y="-60.3%" width="205.7%" height="227.6%" filterUnits="objectBoundingBox" id="filter-4">
            <feOffset dx="0" dy="2" in="SourceAlpha" result="shadowOffsetOuter1"></feOffset>
            <feGaussianBlur stdDeviation="12" in="shadowOffsetOuter1" result="shadowBlurOuter1"></feGaussianBlur>
            <feComposite in="shadowBlurOuter1" in2="SourceAlpha" operator="out" result="shadowBlurOuter1"></feComposite>
            <feColorMatrix values="0 0 0 0 0.843254573   0 0 0 0 0.897774722   0 0 0 0 1  0 0 0 0.5 0" type="matrix" in="shadowBlurOuter1"></feColorMatrix>
        </filter>
        <filter x="-40.0%" y="-44.8%" width="180.0%" height="196.6%" filterUnits="objectBoundingBox" id="filter-5">
            <feGaussianBlur stdDeviation="0.5" in="SourceAlpha" result="shadowBlurInner1"></feGaussianBlur>
            <feOffset dx="0" dy="-1" in="shadowBlurInner1" result="shadowOffsetInner1"></feOffset>
            <feComposite in="shadowOffsetInner1" in2="SourceAlpha" operator="arithmetic" k2="-1" k3="1" result="shadowInnerInner1"></feComposite>
            <feColorMatrix values="0 0 0 0 1   0 0 0 0 1   0 0 0 0 1  0 0 0 0.35 0" type="matrix" in="shadowInnerInner1" result="shadowMatrixInner1"></feColorMatrix>
            <feGaussianBlur stdDeviation="2" in="SourceAlpha" result="shadowBlurInner2"></feGaussianBlur>
            <feOffset dx="0" dy="4" in="shadowBlurInner2" result="shadowOffsetInner2"></feOffset>
            <feComposite in="shadowOffsetInner2" in2="SourceAlpha" operator="arithmetic" k2="-1" k3="1" result="shadowInnerInner2"></feComposite>
            <feColorMatrix values="0 0 0 0 0.925490196   0 0 0 0 0.952941176   0 0 0 0 1  0 0 0 0.25 0" type="matrix" in="shadowInnerInner2" result="shadowMatrixInner2"></feColorMatrix>
            <feGaussianBlur stdDeviation="1.5" in="SourceAlpha" result="shadowBlurInner3"></feGaussianBlur>
            <feOffset dx="0" dy="-3" in="shadowBlurInner3" result="shadowOffsetInner3"></feOffset>
            <feComposite in="shadowOffsetInner3" in2="SourceAlpha" operator="arithmetic" k2="-1" k3="1" result="shadowInnerInner3"></feComposite>
            <feColorMatrix values="0 0 0 0 0.926276677   0 0 0 0 0.951314787   0 0 0 0 1  0 0 0 0.3 0" type="matrix" in="shadowInnerInner3" result="shadowMatrixInner3"></feColorMatrix>
            <feMerge>
                <feMergeNode in="shadowMatrixInner1"></feMergeNode>
                <feMergeNode in="shadowMatrixInner2"></feMergeNode>
                <feMergeNode in="shadowMatrixInner3"></feMergeNode>
            </feMerge>
        </filter>
    </defs>
    <g id="页面-1" stroke="none" stroke-width="1" fill="none" fill-rule="evenodd">
        <g id="5.5资产管理-静态资产管理" transform="translate(-850.000000, -343.000000)">
            <g id="编组-12" transform="translate(668.000000, 343.000000)">
                <g id="编组-23" transform="translate(182.784542, 0.000000)">
                    <g id="编组-30">
                        <g id="编组-2" transform="translate(49.714134, 0.000000)">
                            <path d="M3.58690644,4.08947916 C2.07472329,8.49870127 3.48468121,12.8220631 7.81678018,17.0595646 C12.1488792,21.2970662 16.8368595,23.6105446 21.8807212,24 C22.4050397,18.8079195 21.2007827,14.057045 18.2679502,9.7473764 C15.3351177,5.43770781 10.4414364,3.55174206 3.58690644,4.08947916 Z" id="路径-2" fill="#2C303B"></path>
                            <path d="M12.6513866,12 C5.46553732,5.23525607 1.2485493,1.58649968 0.000422589854,1.05373082 C-0.0135022154,1.03943082 0.316701333,0.688187217 0.991033234,0 C7.04637404,5.24226495 11.0488736,9.11507027 12.998532,11.6184159 C13.014592,11.6279179 12.8988768,11.7551126 12.6513866,12 Z" id="路径-3" fill="#3F4556"></path>
                        </g>
                        <g id="编组-2" transform="translate(8.452992, 47.797282) rotate(-11.000000) translate(-8.452992, -47.797282) translate(1.375949, 39.904707)">
                            <path d="M1.55565391,1.84778462 C0.52100228,4.93424011 1.48571033,7.96059338 4.44977805,10.9268445 C7.41384577,13.8930955 10.6214113,15.5125304 14.0724745,15.7851492 C14.4312188,12.1506929 13.6072535,8.8250807 11.6005786,5.80831269 C9.59390372,2.79154468 6.24559549,1.47136866 1.55565391,1.84778462 Z" id="路径-2" fill="#2C303B"></path>
                            <path d="M7.7854687,8 C3.36340758,3.49017071 0.76833803,1.05766645 0.000260055295,0.702487211 C-0.00830905562,0.692953882 0.194893128,0.458791478 0.609866606,-8.75460001e-13 C4.33623018,3.4948433 6.79930685,6.07671351 7.99909664,7.74561063 C8.00897968,7.75194528 7.93777037,7.83674173 7.7854687,8 Z" id="路径-3" fill="#3F4556"></path>
                        </g>
                        <g id="编组-2" transform="translate(189.588253, 65.130257) rotate(-27.000000) translate(-189.588253, -65.130257) translate(183.428225, 58.131522)">
                            <path d="M1.65984431,2.0511563 C0.784369856,4.69668957 1.60066128,7.29070667 4.10871858,9.83320759 C6.61677589,12.3757085 9.33086976,13.7637956 12.2510002,13.9974688 C12.554553,10.8822205 11.8573516,8.0316958 10.159396,5.44589465 C8.46144031,2.8600935 5.62825642,1.72851405 1.65984431,2.0511563 Z" id="路径-2" fill="#2C303B"></path>
                            <path d="M6.81228511,7 C2.94298163,3.05389937 0.672295776,0.925458145 0.000227548382,0.61467631 C-0.00727042367,0.606334647 0.170531487,0.401442543 0.53363328,4.24208272e-13 C3.7942014,3.05798789 5.9493935,5.31712432 6.99920956,6.7774093 C7.00785722,6.78295212 6.94554907,6.85714902 6.81228511,7 Z" id="路径-3" fill="#3F4556"></path>
                        </g>
                    </g>
                    <g id="编组-50" transform="translate(99.285814, 86.461492) rotate(-8.000000) translate(-99.285814, -86.461492) translate(37.215458, 37.000000)">
                        <path d="M90.0028338,5.53538641 C90.2503183,5.21178341 90.6693703,5.07066178 91.0621932,5.17863229 L91.0621932,5.17863229 L121.199905,13.4622229 C123.307708,14.0415694 124.560046,16.2057233 124.01207,18.3218986 L124.01207,18.3218986 L103.917106,95.9246278 C103.900027,95.990584 103.881265,96.0560931 103.86084,96.121091 C103.198552,98.2286181 100.953174,99.4002164 98.8456469,98.737929 L98.8456469,98.737929 L62.456446,87.3026748 C62.3252851,87.2614577 62.2040322,87.1936374 62.1002616,87.1034503 C61.6834085,86.7411633 61.6391739,86.1095453 62.001461,85.6926922 L62.001461,85.6926922 L75.1251351,70.5923894 C75.3253733,70.3619921 75.4094141,70.0527551 75.353336,69.7526993 L75.353336,69.7526993 L68.667259,33.977646 C68.6152003,33.6990968 68.6837644,33.4115394 68.855909,33.1864484 L68.855909,33.1864484 Z M68.4776223,1.79020943e-11 C68.6142378,1.79000708e-11 68.7494043,0.0279926413 68.874783,0.0822509222 C69.3816419,0.301596726 69.6147172,0.890301891 69.3953714,1.39716071 L69.3953714,1.39716071 L56.1142739,32.08679 C56.0057065,32.3376647 56.0045726,32.6220478 56.1111359,32.8737803 L56.1111359,32.8737803 L69.8281502,65.2772269 C69.9376336,65.5358576 69.9333129,65.8286066 69.8162444,66.0838936 L69.8162444,66.0838936 L60.0334646,87.4168371 C59.8705081,87.7721904 59.5154192,88 59.1244834,88 L59.1244834,88 L4,88 C1.790861,88 -4.4347926e-13,86.209139 -4.5159824e-13,84 L-4.5159824e-13,84 L-4.5159824e-13,4 C-4.50092425e-13,1.790861 1.790861,1.79025001e-11 4,1.79020943e-11 L4,1.79020943e-11 Z" id="形状结合" fill="url(#linearGradient-1)"></path>
                        <g id="编组-49" opacity="0.768848238" transform="translate(9.000000, -0.000000)" fill="url(#linearGradient-2)">
                            <path d="M3.6369645,-4.81590289e-13 C4.69132629,-4.81590289e-13 5.55512962,0.815877791 5.63147876,1.85073766 L5.6369645,2 L5.63723524,24.6891651 C6.46613509,25.3331938 7,26.3430002 7,27.4782714 C7,29.4232684 5.43299662,31 3.5,31 C1.56700338,31 -2.07581202e-13,29.4232684 -2.07581202e-13,27.4782714 C-2.07581202e-13,26.2227102 0.652992005,25.1206103 1.63590086,24.4970525 L1.6369645,2 C1.6369645,0.8954305 2.532395,-4.81590289e-13 3.6369645,-4.81590289e-13 Z M15.6369645,3.57205602e-12 C16.6913263,3.57205602e-12 17.5551296,0.815877791 17.6314788,1.85073766 L17.6369645,2 L17.6372352,42.7541583 C18.4661351,43.3915544 19,44.3909611 19,45.5145406 C19,47.4395067 17.4329966,49 15.5,49 C13.5670034,49 12,47.4395067 12,45.5145406 C12,44.27191 12.652992,43.1811602 13.6359009,42.5640243 L13.6369645,2 C13.6369645,0.8954305 14.532395,3.57205602e-12 15.6369645,3.57205602e-12 Z M27.6369645,1.33029369e-12 C28.6913263,1.33029369e-12 29.5551296,0.815877791 29.6314788,1.85073766 L29.6369645,2 L29.6372352,30.8718636 C30.4661351,31.4972477 31,32.4778202 31,33.5802254 C31,35.4689148 29.4329966,37 27.5,37 C25.5670034,37 24,35.4689148 24,33.5802254 C24,32.3610126 24.652992,31.2908184 25.6359009,30.6853126 L25.6369645,2 C25.6369645,0.8954305 26.532395,1.33029369e-12 27.6369645,1.33029369e-12 Z" id="形状结合"></path>
                        </g>
                        <g id="编组-49备份" opacity="0.768848238" transform="translate(21.000000, 0.000000)"></g>
                        <g id="编组-49备份-2" transform="translate(33.000000, 0.000000)"></g>
                    </g>
                    <g id="编组-48" transform="translate(109.215458, 78.000000)">
                        <g id="路径-74">
                            <use fill="black" fill-opacity="1" filter="url(#filter-4)" xlink:href="#path-3"></use>
                            <use fill-opacity="0.2" fill="#CADCFF" fill-rule="evenodd" xlink:href="#path-3"></use>
                            <use fill="black" fill-opacity="1" filter="url(#filter-5)" xlink:href="#path-3"></use>
                            <path stroke="#DFE9FF" stroke-width="0.6" d="M32.5194803,5.65509713 C33.6302234,4.98374462 34.9079319,4.82616659 36.0757927,5.11411244 C37.2436535,5.4020583 38.3016668,6.13552805 38.9730193,7.24627112 L38.9730193,7.24627112 L65.1579228,50.5688175 C65.6012358,51.3022726 65.8355663,52.1429802 65.8355663,53 C65.8355663,54.2978692 65.3095009,55.4728692 64.4589681,56.3234019 C63.6084354,57.1739346 62.4334354,57.7 61.1355663,57.7 L61.1355663,57.7 L8.84973443,57.7 C7.9949823,57.7 7.15641184,57.4669072 6.42426991,57.025807 C5.31257401,56.3560334 4.57760163,55.2990635 4.2879966,54.131613 C3.99839158,52.9641625 4.15415392,51.6862314 4.82392745,50.5745355 L4.82392745,50.5745355 L30.9248558,7.25198909 C31.3188191,6.59808544 31.8661371,6.04998917 32.5194803,5.65509713 Z" stroke-linejoin="square"></path>
                        </g>
                        <rect id="矩形" fill="#BACFFA" x="31" y="19" width="6" height="22" rx="3"></rect>
                        <circle id="椭圆形" fill="#BACFFA" cx="34" cy="47" r="3"></circle>
                    </g>
                </g>
            </g>
        </g>
    </g>
</svg>