<?xml version="1.0" encoding="UTF-8"?>
<svg width="41px" height="41px" viewBox="0 0 41 41" version="1.1" xmlns="http://www.w3.org/2000/svg" xmlns:xlink="http://www.w3.org/1999/xlink">
    <title>默认</title>
    <defs>
        <path d="M32.9122807,17.8161994 L28.2631579,17.8161994 L28.2631579,14.7632399 C30.8070175,14.7632399 32.9122807,12.6697819 32.9122807,10.1401869 L28.2631579,10.1401869 C28.2631579,8.39563862 26.8596491,7 25.1052632,7 L15.8070176,7 C14.0526316,7 12.6491228,8.39563862 12.6491228,10.1401869 L8,10.1401869 C8,12.6697819 10.1052632,14.7632399 12.6491228,14.7632399 L12.6491228,17.9034268 L8,17.9034268 C8,20.4330218 10.1052632,22.5264797 12.6491228,22.5264797 L12.6491228,25.6666667 L8,25.6666667 C8,28.1962617 10.1052632,30.2897196 12.6491228,30.2897196 L12.6491228,31.8598131 C12.6491228,33.6043614 14.0526316,35 15.8070176,35 L25.1929824,35 C26.9473684,35 28.3508772,33.6043614 28.3508772,31.8598131 L28.3508772,30.2897196 C30.8947368,30.2897196 33,28.1962617 33,25.6666667 L28.3508772,25.6666667 L28.3508772,22.5264797 C30.8070175,22.5264797 32.9122807,20.4330218 32.9122807,17.8161994 Z M20.4561404,31.7725857 C18.7017544,31.7725857 17.2982456,30.376947 17.2982456,28.6323988 C17.2982456,26.8878505 18.7017544,25.4922118 20.4561404,25.4922118 C22.2105263,25.4922118 23.6140351,26.8878504 23.6140351,28.6323988 C23.6140351,30.3769471 22.2105263,31.7725857 20.4561404,31.7725857 Z M20.4561404,24.0965732 C18.7017544,24.0965732 17.2982456,22.7009346 17.2982456,20.9563863 C17.2982456,19.211838 18.7017544,17.8161994 20.4561404,17.8161994 C22.2105263,17.8161994 23.6140351,19.211838 23.6140351,20.9563863 C23.6140351,22.7009346 22.2105263,24.0965732 20.4561404,24.0965732 Z M20.4561404,16.3333333 C18.7017544,16.3333333 17.2982456,14.9376947 17.2982456,13.1931464 C17.2982456,11.4485981 18.7017544,10.1401869 20.4561404,10.1401869 C22.2105263,10.1401869 23.6140351,11.5358255 23.6140351,13.2803738 C23.6140351,15.0249221 22.2105263,16.3333333 20.4561404,16.3333333 L20.4561404,16.3333333 Z" id="path-1"></path>
        <filter x="-37.8%" y="-33.8%" width="175.7%" height="167.6%" filterUnits="objectBoundingBox" id="filter-2">
            <feMorphology radius="0.4576" operator="dilate" in="SourceAlpha" result="shadowSpreadOuter1"></feMorphology>
            <feOffset dx="0" dy="0" in="shadowSpreadOuter1" result="shadowOffsetOuter1"></feOffset>
            <feGaussianBlur stdDeviation="3" in="shadowOffsetOuter1" result="shadowBlurOuter1"></feGaussianBlur>
            <feComposite in="shadowBlurOuter1" in2="SourceAlpha" operator="out" result="shadowBlurOuter1"></feComposite>
            <feColorMatrix values="0 0 0 0 0.0873871966   0 0 0 0 0.53621158   0 0 0 0 0.730383832  0 0 0 1 0" type="matrix" in="shadowBlurOuter1"></feColorMatrix>
        </filter>
        <filter x="-27.8%" y="-24.8%" width="155.7%" height="149.7%" filterUnits="objectBoundingBox" id="filter-3">
            <feOffset dx="-1" dy="1" in="SourceAlpha" result="shadowOffsetInner1"></feOffset>
            <feComposite in="shadowOffsetInner1" in2="SourceAlpha" operator="arithmetic" k2="-1" k3="1" result="shadowInnerInner1"></feComposite>
            <feColorMatrix values="0 0 0 0 0.98210747   0 0 0 0 0.992507503   0 0 0 0 1  0 0 0 1 0" type="matrix" in="shadowInnerInner1"></feColorMatrix>
        </filter>
    </defs>
    <g id="默认" stroke="none" stroke-width="1" fill="none" fill-rule="evenodd" stroke-dasharray="0,0">
        <g id="信控调优">
            <use fill="black" fill-opacity="1" filter="url(#filter-2)" xlink:href="#path-1"></use>
            <use fill="#C4EDFF" fill-rule="evenodd" xlink:href="#path-1"></use>
            <use fill="black" fill-opacity="1" filter="url(#filter-3)" xlink:href="#path-1"></use>
            <use stroke-opacity="0" stroke="#000000" stroke-width="0.9152" xlink:href="#path-1"></use>
        </g>
    </g>
</svg>