<?xml version="1.0" encoding="UTF-8"?>
<svg width="41px" height="41px" viewBox="0 0 41 41" version="1.1" xmlns="http://www.w3.org/2000/svg" xmlns:xlink="http://www.w3.org/1999/xlink">
    <title>hover</title>
    <defs>
        <path d="M8.54960537,24.1399279 C8.77847539,24.135352 8.98447481,24.2866311 9.03940799,24.5067133 C10.3302283,29.4077615 14.8115228,32.8279131 19.9473648,32.8279131 C25.0832342,32.8279131 29.56907,29.4077341 30.8553217,24.5067133 C30.9033882,24.3141414 31.0670939,24.1742468 31.2605943,24.1453476 L31.3450969,24.1399279 L33.3637545,24.1399279 C33.5147934,24.1307487 33.661291,24.1949484 33.7619653,24.3049895 C33.862667,24.4196065 33.8992983,24.575489 33.8672631,24.7221921 C32.6954464,29.9808191 28.5711902,34.1116345 23.2522467,35.3494872 C18.0509437,36.5610294 12.6084985,34.7862041 9.16071105,30.7815676 L8.93870628,30.517242 L8.93870628,31.6221466 C8.93870628,31.8584987 8.7650903,32.055015 8.53683025,32.0957673 L8.44890366,32.1035216 L6.48977526,32.1035216 C6.24971313,32.1035216 6.0494452,31.9332667 6.00790494,31.708685 L6,31.6221466 L6,24.6213303 C6,24.3849538 6.17359436,24.1884349 6.40184961,24.1476822 L6.48977526,24.1399279 L8.54960537,24.1399279 Z M19.9702354,12.5498555 C25.1106734,12.5498555 29.2761295,16.6577092 29.2761295,21.7237916 C29.2761295,26.7898741 25.1106734,30.8977551 19.9702354,30.8977551 C14.8298248,30.8977551 10.6643687,26.7898741 10.6643687,21.7237916 C10.6643687,16.6577092 14.8298248,12.5498555 19.9702354,12.5498555 Z M21.7746859,16.3998528 L20.5871565,16.3998528 L20.5871565,17.610441 L18.7655095,17.610441 L18.7655095,18.6596175 L20.5871565,18.6596175 L20.5871565,19.8240881 L18.4311565,19.8240881 L18.4311565,20.9078528 L20.9099801,20.9078528 C19.9876271,21.5534998 18.9499801,22.0607939 17.7855095,22.4412645 L18.4542153,23.4673822 L19.3535095,23.1214998 L19.3535095,27.0414998 L20.5295095,27.0414998 L20.5295095,26.6149116 L23.4349212,26.6149116 L23.4349212,27.0414998 L24.6109212,27.0414998 L24.6109212,21.7149116 L21.832333,21.7149116 C22.1782153,21.4612645 22.5010389,21.1960881 22.8238624,20.9078528 L25.3142153,20.9078528 L25.3142153,19.8240881 L23.8845683,19.8240881 C24.4725683,19.1323233 25.0029212,18.3367939 25.4871565,17.4605586 L24.4264506,16.9186763 C24.1612742,17.3913822 23.8730389,17.8525586 23.5617448,18.2906763 L23.5617448,17.610441 L21.7746859,17.610441 L21.7746859,16.3998528 Z M17.1168036,16.4113822 L15.9062153,16.4113822 L15.9062153,19.2937351 L14.7648036,19.2937351 L14.7648036,20.4697351 L15.9062153,20.4697351 L15.9062153,24.2629116 C15.4796271,24.3551469 15.0530389,24.4358528 14.6264506,24.5050292 L14.9608036,25.7847939 C16.1829212,25.4965586 17.324333,25.1506763 18.3850389,24.7586763 L18.3850389,23.490441 C17.9699801,23.6518528 17.5433918,23.8017351 17.1168036,23.9400881 L17.1168036,20.4697351 L18.0737448,20.4697351 L18.0737448,19.2937351 L17.1168036,19.2937351 L17.1168036,16.4113822 Z M23.4349212,24.6433822 L23.4349212,25.5542057 L20.5295095,25.5542057 L20.5295095,24.6433822 L23.4349212,24.6433822 Z M23.4349212,22.7756175 L23.4349212,23.6287939 L20.5295095,23.6287939 L20.5295095,22.7756175 L23.4349212,22.7756175 Z M23.2850389,18.6596175 C22.9506859,19.0746763 22.5932742,19.4551469 22.224333,19.8240881 L21.7746859,19.8240881 L21.7746859,18.6596175 L23.2850389,18.6596175 Z M30.7984018,12.6660492 L31.0201212,12.9303686 L31.0201212,11.825464 C31.0201212,11.5890876 31.1937156,11.3925686 31.4219708,11.351816 L31.5098965,11.3440616 L33.4690249,11.3440342 C33.6063578,11.3302791 33.7436908,11.3806963 33.8443651,11.4678305 C33.9249265,11.5411766 33.976196,11.6409501 33.9934813,11.7459951 L34,11.8254366 L34,18.8217045 C34,19.0580566 33.8264056,19.2546536 33.5981504,19.2954239 L33.5102247,19.3031817 L31.3862968,19.3031817 C31.1574268,19.3076828 30.9514547,19.1563763 30.8965215,18.9363215 C29.6056739,14.0353006 25.1244067,10.6150942 19.9885373,10.6150942 C14.852668,10.6150942 10.3668322,14.0352732 9.08058052,18.9363215 C9.03251399,19.1288694 8.86878736,19.2687819 8.67528171,19.2977361 L8.5907779,19.3031817 L6.58131232,19.3031817 C6.43481472,19.3031817 6.29291313,19.2389071 6.19680742,19.128866 C6.10067435,19.014249 6.06404311,18.8675458 6.0915097,18.7254185 C7.26335371,13.4667915 11.3921512,9.33597614 16.7065808,8.09812347 C21.9123284,6.89105983 27.3548944,8.6615971 30.7984018,12.6660492 Z" id="path-1"></path>
        <filter x="-28.3%" y="-28.2%" width="156.6%" height="156.4%" filterUnits="objectBoundingBox" id="filter-2">
            <feMorphology radius="0.4" operator="dilate" in="SourceAlpha" result="shadowSpreadOuter1"></feMorphology>
            <feOffset dx="0" dy="0" in="shadowSpreadOuter1" result="shadowOffsetOuter1"></feOffset>
            <feGaussianBlur stdDeviation="2.5" in="shadowOffsetOuter1" result="shadowBlurOuter1"></feGaussianBlur>
            <feComposite in="shadowBlurOuter1" in2="SourceAlpha" operator="out" result="shadowBlurOuter1"></feComposite>
            <feColorMatrix values="0 0 0 0 1   0 0 0 0 0.55758497   0 0 0 0 0.0705882353  0 0 0 1 0" type="matrix" in="shadowBlurOuter1"></feColorMatrix>
        </filter>
        <filter x="-21.2%" y="-21.1%" width="142.3%" height="142.1%" filterUnits="objectBoundingBox" id="filter-3">
            <feOffset dx="-1" dy="1" in="SourceAlpha" result="shadowOffsetInner1"></feOffset>
            <feComposite in="shadowOffsetInner1" in2="SourceAlpha" operator="arithmetic" k2="-1" k3="1" result="shadowInnerInner1"></feComposite>
            <feColorMatrix values="0 0 0 0 1   0 0 0 0 1   0 0 0 0 1  0 0 0 1 0" type="matrix" in="shadowInnerInner1"></feColorMatrix>
        </filter>
    </defs>
    <g id="hover" stroke="none" stroke-width="1" fill="none" fill-rule="evenodd" stroke-dasharray="0,0">
        <g id="拥堵治理">
            <use fill="black" fill-opacity="1" filter="url(#filter-2)" xlink:href="#path-1"></use>
            <use fill="#FFF5D9" fill-rule="evenodd" xlink:href="#path-1"></use>
            <use fill="black" fill-opacity="1" filter="url(#filter-3)" xlink:href="#path-1"></use>
            <use stroke-opacity="0" stroke="#000000" stroke-width="0.8" xlink:href="#path-1"></use>
        </g>
    </g>
</svg>