<?xml version="1.0" encoding="UTF-8"?>
<svg width="41px" height="41px" viewBox="0 0 41 41" version="1.1" xmlns="http://www.w3.org/2000/svg" xmlns:xlink="http://www.w3.org/1999/xlink">
    <title>默认</title>
    <defs>
        <path d="M8.54960537,23.4152358 C8.77847539,23.4106599 8.98447481,23.561939 9.03940799,23.7820212 C10.3302283,28.6830694 14.8115228,32.103221 19.9473648,32.103221 C25.0832342,32.103221 29.56907,28.683042 30.8553217,23.7820212 C30.9033882,23.5894493 31.0670939,23.4495547 31.2605943,23.4206555 L31.3450969,23.4152358 L33.3637545,23.4152358 C33.5147934,23.4060566 33.661291,23.4702564 33.7619653,23.5802974 C33.862667,23.6949144 33.8992983,23.8507969 33.8672631,23.9975 C32.6954464,29.256127 28.5711902,33.3869424 23.2522467,34.6247951 C18.0509437,35.8363373 12.6084985,34.061512 9.16071105,30.0568755 L8.93870628,29.7925499 L8.93870628,30.8974546 C8.93870628,31.1338066 8.7650903,31.3303229 8.53683025,31.3710752 L8.44890366,31.3788295 L6.48977526,31.3788295 C6.24971313,31.3788295 6.0494452,31.2085746 6.00790494,30.9839929 L6,30.8974546 L6,23.8966382 C6,23.6602617 6.17359436,23.4637428 6.40184961,23.4229901 L6.48977526,23.4152358 L8.54960537,23.4152358 Z M19.9702354,11.8251634 C25.1106734,11.8251634 29.2761295,15.9330171 29.2761295,20.9990995 C29.2761295,26.065182 25.1106734,30.173063 19.9702354,30.173063 C14.8298248,30.173063 10.6643687,26.065182 10.6643687,20.9990995 C10.6643687,15.9330171 14.8298248,11.8251634 19.9702354,11.8251634 Z M21.7746859,15.6751607 L20.5871565,15.6751607 L20.5871565,16.8857489 L18.7655095,16.8857489 L18.7655095,17.9349254 L20.5871565,17.9349254 L20.5871565,19.099396 L18.4311565,19.099396 L18.4311565,20.1831607 L20.9099801,20.1831607 C19.9876271,20.8288077 18.9499801,21.3361018 17.7855095,21.7165724 L18.4542153,22.7426901 L19.3535095,22.3968077 L19.3535095,26.3168077 L20.5295095,26.3168077 L20.5295095,25.8902195 L23.4349212,25.8902195 L23.4349212,26.3168077 L24.6109212,26.3168077 L24.6109212,20.9902195 L21.832333,20.9902195 C22.1782153,20.7365724 22.5010389,20.471396 22.8238624,20.1831607 L25.3142153,20.1831607 L25.3142153,19.099396 L23.8845683,19.099396 C24.4725683,18.4076313 25.0029212,17.6121018 25.4871565,16.7358665 L24.4264506,16.1939842 C24.1612742,16.6666901 23.8730389,17.1278665 23.5617448,17.5659842 L23.5617448,16.8857489 L21.7746859,16.8857489 L21.7746859,15.6751607 Z M17.1168036,15.6866901 L15.9062153,15.6866901 L15.9062153,18.569043 L14.7648036,18.569043 L14.7648036,19.745043 L15.9062153,19.745043 L15.9062153,23.5382195 C15.4796271,23.6304548 15.0530389,23.7111607 14.6264506,23.7803371 L14.9608036,25.0601018 C16.1829212,24.7718665 17.324333,24.4259842 18.3850389,24.0339842 L18.3850389,22.7657489 C17.9699801,22.9271607 17.5433918,23.077043 17.1168036,23.215396 L17.1168036,19.745043 L18.0737448,19.745043 L18.0737448,18.569043 L17.1168036,18.569043 L17.1168036,15.6866901 Z M23.4349212,23.9186901 L23.4349212,24.8295136 L20.5295095,24.8295136 L20.5295095,23.9186901 L23.4349212,23.9186901 Z M23.4349212,22.0509254 L23.4349212,22.9041018 L20.5295095,22.9041018 L20.5295095,22.0509254 L23.4349212,22.0509254 Z M23.2850389,17.9349254 C22.9506859,18.3499842 22.5932742,18.7304548 22.224333,19.099396 L21.7746859,19.099396 L21.7746859,17.9349254 L23.2850389,17.9349254 Z M30.7984018,11.9413571 L31.0201212,12.2056765 L31.0201212,11.1007719 C31.0201212,10.8643955 31.1937156,10.6678765 31.4219708,10.6271239 L31.5098965,10.6193695 L33.4690249,10.6193421 C33.6063578,10.605587 33.7436908,10.6560042 33.8443651,10.7431384 C33.9249265,10.8164845 33.976196,10.916258 33.9934813,11.021303 L34,11.1007445 L34,18.0970124 C34,18.3333645 33.8264056,18.5299615 33.5981504,18.5707318 L33.5102247,18.5784896 L31.3862968,18.5784896 C31.1574268,18.5829907 30.9514547,18.4316842 30.8965215,18.2116294 C29.6056739,13.3106085 25.1244067,9.89040212 19.9885373,9.89040212 C14.852668,9.89040212 10.3668322,13.3105811 9.08058052,18.2116294 C9.03251399,18.4041773 8.86878736,18.5440898 8.67528171,18.573044 L8.5907779,18.5784896 L6.58131232,18.5784896 C6.43481472,18.5784896 6.29291313,18.514215 6.19680742,18.4041739 C6.10067435,18.2895569 6.06404311,18.1428537 6.0915097,18.0007264 C7.26335371,12.7420994 11.3921512,8.61128405 16.7065808,7.37343138 C21.9123284,6.16636774 27.3548944,7.93690501 30.7984018,11.9413571 Z" id="path-1"></path>
        <filter x="-33.9%" y="-33.8%" width="167.7%" height="167.6%" filterUnits="objectBoundingBox" id="filter-2">
            <feMorphology radius="0.4576" operator="dilate" in="SourceAlpha" result="shadowSpreadOuter1"></feMorphology>
            <feOffset dx="0" dy="0" in="shadowSpreadOuter1" result="shadowOffsetOuter1"></feOffset>
            <feGaussianBlur stdDeviation="3" in="shadowOffsetOuter1" result="shadowBlurOuter1"></feGaussianBlur>
            <feComposite in="shadowBlurOuter1" in2="SourceAlpha" operator="out" result="shadowBlurOuter1"></feComposite>
            <feColorMatrix values="0 0 0 0 0.0873871966   0 0 0 0 0.53621158   0 0 0 0 0.730383832  0 0 0 1 0" type="matrix" in="shadowBlurOuter1"></feColorMatrix>
        </filter>
        <filter x="-24.9%" y="-24.8%" width="149.9%" height="149.7%" filterUnits="objectBoundingBox" id="filter-3">
            <feOffset dx="-1" dy="1" in="SourceAlpha" result="shadowOffsetInner1"></feOffset>
            <feComposite in="shadowOffsetInner1" in2="SourceAlpha" operator="arithmetic" k2="-1" k3="1" result="shadowInnerInner1"></feComposite>
            <feColorMatrix values="0 0 0 0 0.98210747   0 0 0 0 0.992507503   0 0 0 0 1  0 0 0 1 0" type="matrix" in="shadowInnerInner1"></feColorMatrix>
        </filter>
    </defs>
    <g id="默认" stroke="none" stroke-width="1" fill="none" fill-rule="evenodd" stroke-dasharray="0,0">
        <g id="拥堵治理">
            <use fill="black" fill-opacity="1" filter="url(#filter-2)" xlink:href="#path-1"></use>
            <use fill="#C4EDFF" fill-rule="evenodd" xlink:href="#path-1"></use>
            <use fill="black" fill-opacity="1" filter="url(#filter-3)" xlink:href="#path-1"></use>
            <use stroke-opacity="0" stroke="#000000" stroke-width="0.9152" xlink:href="#path-1"></use>
        </g>
    </g>
</svg>